<svg width="18" height="18" viewBox="0 0 18 18" fill="none" xmlns="http://www.w3.org/2000/svg">
<path d="M17.19 12.5598L16.06 10.6798C15.81 10.2698 15.59 9.4798 15.59 8.9998V7.1298C15.59 3.4998 12.64 0.549805 9.02 0.549805C5.39 0.559805 2.44 3.4998 2.44 7.1298V8.9898C2.44 9.4698 2.22 10.2598 1.98 10.6698L0.849997 12.5498C0.419997 13.2798 0.319997 14.1098 0.589997 14.8298C0.859997 15.5598 1.47 16.1398 2.27 16.3998C3.35 16.7598 4.44 17.0198 5.55 17.2098C5.66 17.2298 5.77 17.2398 5.88 17.2598C6.02 17.2798 6.17 17.2998 6.32 17.3198C6.58 17.3598 6.84 17.3898 7.11 17.4098C7.74 17.4698 8.38 17.4998 9.02 17.4998C9.65 17.4998 10.28 17.4698 10.9 17.4098C11.13 17.3898 11.36 17.3698 11.58 17.3398C11.76 17.3198 11.94 17.2998 12.12 17.2698C12.23 17.2598 12.34 17.2398 12.45 17.2198C13.57 17.0398 14.68 16.7598 15.76 16.3998C16.53 16.1398 17.12 15.5598 17.4 14.8198C17.68 14.0698 17.6 13.2498 17.19 12.5598ZM9.75 8.4998C9.75 8.9198 9.41 9.2598 8.99 9.2598C8.57 9.2598 8.23 8.9198 8.23 8.4998V5.39981C8.23 4.9798 8.57 4.6398 8.99 4.6398C9.41 4.6398 9.75 4.9798 9.75 5.39981V8.4998Z" fill="#1B1C1E"/>
</svg>
