<svg width="33" height="32" viewBox="0 0 33 32" fill="none" xmlns="http://www.w3.org/2000/svg">
<path fill-rule="evenodd" clip-rule="evenodd" d="M10.3333 5.33944C8.11172 5.36575 6.84761 5.5062 5.94461 6.25604C5.75491 6.41356 5.58019 6.58829 5.42266 6.77799C4.5 7.88911 4.5 9.547 4.5 12.8628C4.5 13.07 4.5 13.1736 4.55767 13.2431C4.56751 13.2549 4.57843 13.2659 4.59029 13.2757C4.65973 13.3334 4.76335 13.3334 4.97059 13.3334H28.0294C28.2366 13.3334 28.3403 13.3334 28.4097 13.2757C28.4216 13.2659 28.4325 13.2549 28.4423 13.2431C28.5 13.1736 28.5 13.07 28.5 12.8628C28.5 9.547 28.5 7.88911 27.5773 6.77799C27.4198 6.58829 27.2451 6.41356 27.0554 6.25604C26.1524 5.5062 24.8883 5.36575 22.6667 5.33944L22.6667 8.66671C22.6667 9.49513 21.9951 10.1667 21.1667 10.1667C20.3382 10.1667 19.6667 9.49514 19.6667 8.66671L19.6667 5.33337H13.3333L13.3333 8.66671C13.3333 9.49513 12.6618 10.1667 11.8333 10.1667C11.0049 10.1667 10.3333 9.49514 10.3333 8.66671L10.3333 5.33944Z" fill="#1B1C1E"/>
<path d="M4.5 15.1666C4.5 14.9309 4.5 14.8131 4.57322 14.7398C4.64645 14.6666 4.7643 14.6666 5 14.6666H28C28.2357 14.6666 28.3536 14.6666 28.4268 14.7398C28.5 14.8131 28.5 14.9309 28.5 15.1666V18.6666C28.5 22.4379 28.5 24.3235 27.3284 25.4951C26.1569 26.6666 24.2712 26.6666 20.5 26.6666H12.5C8.72876 26.6666 6.84315 26.6666 5.67157 25.4951C4.5 24.3235 4.5 22.4379 4.5 18.6666V15.1666Z" fill="#1B1C1E"/>
<path d="M11.834 3.33337L11.834 8.66671" stroke="#1B1C1E" stroke-linecap="round"/>
<path d="M21.166 3.33337L21.166 8.66671" stroke="#1B1C1E" stroke-linecap="round"/>
</svg>
