<svg width="33" height="32" viewBox="0 0 33 32" fill="none" xmlns="http://www.w3.org/2000/svg">
<path fill-rule="evenodd" clip-rule="evenodd" d="M16.5 28C23.1274 28 28.5 22.6274 28.5 16C28.5 9.37258 23.1274 4 16.5 4C9.87258 4 4.5 9.37258 4.5 16C4.5 22.6274 9.87258 28 16.5 28ZM17.5 8.66667C17.5 8.11438 17.0523 7.66667 16.5 7.66667C15.9477 7.66667 15.5 8.11438 15.5 8.66667V15.75C15.5 16.4404 16.0596 17 16.75 17H21.1667C21.719 17 22.1667 16.5523 22.1667 16C22.1667 15.4477 21.719 15 21.1667 15H17.5V8.66667Z" fill="#1B1C1E"/>
</svg>
