<svg width="33" height="32" viewBox="0 0 33 32" fill="none" xmlns="http://www.w3.org/2000/svg">
<path d="M16.5 8.5C16.5 8.26155 16.5 8.14232 16.5788 8.06827C16.6577 7.99422 16.7717 8.00135 16.9997 8.01562C18.2301 8.09262 19.4285 8.45315 20.5 9.0718C21.7162 9.77394 22.7261 10.7838 23.4282 12C24.1304 13.2162 24.5 14.5957 24.5 16C24.5 17.4043 24.1304 18.7838 23.4282 20C22.7261 21.2162 21.7162 22.2261 20.5 22.9282C19.2838 23.6304 17.9043 24 16.5 24C15.0957 24 13.7162 23.6303 12.5 22.9282C11.4285 22.3096 10.517 21.452 9.83517 20.4249C9.7088 20.2346 9.64562 20.1394 9.67034 20.0341C9.69505 19.9288 9.7983 19.8692 10.0048 19.75L16.25 16.1443C16.372 16.0739 16.433 16.0387 16.4665 15.9807C16.5 15.9226 16.5 15.8522 16.5 15.7113V8.5Z" fill="#1B1C1E"/>
<circle cx="16.5007" cy="16" r="11.6667" stroke="#1B1C1E" stroke-width="2"/>
</svg>
