<svg width="55" height="56" viewBox="0 0 55 56" fill="none" xmlns="http://www.w3.org/2000/svg">
<rect y="0.5" width="55" height="55" rx="10" fill="#2B65B1"/>
<path d="M33.75 17.375H21.25C17.5 17.375 15 19.25 15 23.625V32.375C15 36.75 17.5 38.625 21.25 38.625H33.75C37.5 38.625 40 36.75 40 32.375V23.625C40 19.25 37.5 17.375 33.75 17.375ZM34.3375 24.9875L30.425 28.1125C29.6 28.775 28.55 29.1 27.5 29.1C26.45 29.1 25.3875 28.775 24.575 28.1125L20.6625 24.9875C20.2625 24.6625 20.2 24.0625 20.5125 23.6625C20.8375 23.2625 21.425 23.1875 21.825 23.5125L25.7375 26.6375C26.6875 27.4 28.3 27.4 29.25 26.6375L33.1625 23.5125C33.5625 23.1875 34.1625 23.25 34.475 23.6625C34.8 24.0625 34.7375 24.6625 34.3375 24.9875Z" fill="white"/>
</svg>
