<svg width="20" height="20" viewBox="0 0 20 20" fill="none" xmlns="http://www.w3.org/2000/svg">
<path d="M8.14337 4.62759C8.92998 2.6666 9.32328 1.6861 9.99961 1.6861C10.6759 1.6861 11.0692 2.6666 11.8558 4.6276L11.8925 4.71891C12.3369 5.82678 12.5591 6.38071 13.0119 6.7174C13.4648 7.05409 14.0592 7.10733 15.2481 7.2138L15.4631 7.23305C17.4089 7.40732 18.3818 7.49445 18.59 8.11343C18.7981 8.73242 18.0756 9.38976 16.6306 10.7044L16.1483 11.1432C15.4168 11.8087 15.051 12.1415 14.8806 12.5776C14.8488 12.659 14.8223 12.7423 14.8014 12.8271C14.6894 13.2818 14.7965 13.7645 15.0107 14.73L15.0774 15.0305C15.471 16.8049 15.6679 17.692 15.3242 18.0747C15.1958 18.2177 15.0289 18.3206 14.8434 18.3712C14.3472 18.5066 13.6428 17.9326 12.2338 16.7845C11.3086 16.0306 10.8461 15.6537 10.3149 15.5689C10.106 15.5355 9.89317 15.5355 9.68426 15.5689C9.15316 15.6537 8.69057 16.0306 7.7654 16.7845C6.35645 17.9326 5.65197 18.5066 5.15577 18.3712C4.97035 18.3206 4.80344 18.2177 4.67502 18.0747C4.33134 17.692 4.52818 16.8049 4.92185 15.0305L4.98853 14.73C5.20274 13.7645 5.30984 13.2818 5.19779 12.8271C5.17688 12.7423 5.15045 12.659 5.11865 12.5776C4.94817 12.1415 4.58242 11.8087 3.85091 11.1432L3.36863 10.7044C1.92359 9.38976 1.20107 8.73242 1.40924 8.11343C1.61742 7.49445 2.59033 7.40732 4.53614 7.23305L4.75108 7.2138C5.94 7.10733 6.53445 7.05409 6.9873 6.7174C7.44015 6.38071 7.66235 5.82678 8.10674 4.71891L8.14337 4.62759Z" stroke="#FFA500" stroke-width="2"/>
</svg>
