<svg width="24" height="24" viewBox="0 0 24 24" fill="none" xmlns="http://www.w3.org/2000/svg">
<path d="M23.153 10.53L21.578 8.68668C21.2864 8.33668 21.0414 7.68334 21.0414 7.21668V5.23334C21.0414 3.99668 20.0264 2.98168 18.7897 2.98168H16.8064C16.3397 2.98168 15.6747 2.73668 15.3247 2.44501L13.4814 0.87001C12.6764 0.181676 11.358 0.181676 10.553 0.87001L8.68637 2.44501C8.33637 2.73668 7.68303 2.98168 7.21637 2.98168H5.19803C3.96137 2.98168 2.94637 3.99668 2.94637 5.23334V7.21668C2.94637 7.67168 2.71303 8.32501 2.42137 8.67501L0.846367 10.53C0.169701 11.3467 0.169701 12.6533 0.846367 13.4467L2.42137 15.3017C2.71303 15.64 2.94637 16.305 2.94637 16.76V18.755C2.94637 19.9917 3.96137 21.0067 5.19803 21.0067H7.22803C7.68303 21.0067 8.34803 21.2517 8.69803 21.5433L10.5414 23.1183C11.3464 23.8067 12.6647 23.8067 13.4697 23.1183L15.313 21.5433C15.663 21.2517 16.3164 21.0067 16.783 21.0067H18.7664C20.003 21.0067 21.018 19.9917 21.018 18.755V16.7717C21.018 16.305 21.263 15.6517 21.5547 15.3017L23.1297 13.4583C23.8414 12.665 23.8414 11.3467 23.153 10.53ZM11.1247 7.48501C11.1247 7.00668 11.5214 6.61001 11.9997 6.61001C12.478 6.61001 12.8747 7.00668 12.8747 7.48501V13.12C12.8747 13.5983 12.478 13.995 11.9997 13.995C11.5214 13.995 11.1247 13.5983 11.1247 13.12V7.48501ZM11.9997 17.6817C11.358 17.6817 10.833 17.1567 10.833 16.515C10.833 15.8733 11.3464 15.3483 11.9997 15.3483C12.6414 15.3483 13.1664 15.8733 13.1664 16.515C13.1664 17.1567 12.653 17.6817 11.9997 17.6817Z" fill="#FFA500"/>
</svg>
