<svg width="586" height="548" viewBox="0 0 586 548" fill="none" xmlns="http://www.w3.org/2000/svg">
<path d="M554.792 275.272C554.792 275.272 554.792 267.601 544.534 256.969C534.276 246.338 527.77 240.17 527.77 240.17C527.77 240.17 522.67 257.721 532.166 268.414C539.137 275.924 546.696 282.811 554.763 289.002L554.792 275.272Z" fill="#2B65B1"/>
<path d="M539.991 322.922C539.991 322.922 539.991 315.252 529.733 304.62C519.475 293.988 512.998 287.821 512.998 287.821C512.998 287.821 507.884 305.372 517.394 316.065C524.365 323.575 531.924 330.461 539.991 336.653V322.922Z" fill="#2B65B1"/>
<path d="M554.147 288.266C554.147 288.266 554.924 280.687 566.149 271.191C577.374 261.694 584.51 256.355 584.51 256.355C584.51 256.355 587.807 274.366 577.315 283.97C569.626 290.669 561.415 296.683 552.77 301.95L554.147 288.266Z" fill="#2B65B1"/>
<path d="M536.269 344.538C536.269 344.538 537.734 337.082 549.912 328.874C562.089 320.667 569.65 316.141 569.65 316.141C569.65 316.141 571.116 334.428 559.73 342.789C551.41 348.607 542.641 353.687 533.514 357.977L536.269 344.538Z" fill="#2B65B1"/>
<path d="M539.625 405.904C539.625 405.904 539.625 398.233 549.883 387.586C560.141 376.94 566.632 370.803 566.632 370.803C566.632 370.803 571.747 388.354 562.236 399.031C555.268 406.549 547.709 413.441 539.64 419.635L539.625 405.904Z" fill="#2B65B1"/>
<path d="M539.463 420.877C539.463 420.877 540.489 413.329 531.843 401.24C523.197 389.151 517.526 382.125 517.526 382.125C517.526 382.125 510.097 398.739 518.025 410.721C523.901 419.195 530.445 427.138 537.588 434.469L539.463 420.877Z" fill="#2B65B1"/>
<path d="M529.396 465.26C529.396 465.26 529.396 457.589 539.654 446.958C549.912 436.326 556.418 430.159 556.418 430.159C556.418 430.159 561.518 447.709 552.022 458.402C545.049 465.915 537.491 472.806 529.426 479.006L529.396 465.26Z" fill="#2B65B1"/>
<path d="M536.209 505.501C536.209 505.501 534.363 498.121 541.646 485.081C548.929 472.041 553.809 464.401 553.809 464.401C553.809 464.401 562.982 480.018 556.402 492.875C551.48 501.989 545.838 510.656 539.535 518.786L536.209 505.501Z" fill="#2B65B1"/>
<path d="M555.715 273.324C555.202 281.267 554.273 289.175 552.931 297.011C548.886 318.827 538.804 332.91 534.774 352.608C530.745 372.307 542.321 397.697 539.171 423.01C536.02 448.323 526.671 462.392 529.352 479.282C532.034 496.173 546.161 541.921 546.161 541.921" stroke="#263238" stroke-width="0.538494" stroke-linecap="round" stroke-linejoin="round"/>
<path d="M554.059 293.344L565.049 284.508" stroke="#263238" stroke-width="0.538494" stroke-linecap="round" stroke-linejoin="round"/>
<path d="M554.571 283.173L549.955 274.597" stroke="#263238" stroke-width="0.538494" stroke-linecap="round" stroke-linejoin="round"/>
<path d="M535.389 351.702C535.389 351.702 544.591 344.477 554.058 337.251" stroke="#263238" stroke-width="0.538494" stroke-linecap="round" stroke-linejoin="round"/>
<path d="M539.99 336.652C539.99 336.652 532.311 320.912 523.621 310.48" stroke="#263238" stroke-width="0.538494" stroke-linecap="round" stroke-linejoin="round"/>
<path d="M539.99 416.766C545.24 406.609 551.874 397.306 559.685 389.151" stroke="#263238" stroke-width="0.538494" stroke-linecap="round" stroke-linejoin="round"/>
<path d="M538.203 427.474C535.411 420.587 532.073 413.957 528.224 407.653C522.861 399.353 522.084 398.279 522.084 398.279" stroke="#263238" stroke-width="0.538494" stroke-linecap="round" stroke-linejoin="round"/>
<path d="M529.396 479.282C531.733 473.235 534.506 467.383 537.691 461.777C540.878 456.567 544.47 451.641 548.432 447.049" stroke="#263238" stroke-width="0.538494" stroke-linecap="round" stroke-linejoin="round"/>
<path d="M539.537 518.785C539.003 513.004 539.954 507.178 542.292 501.91C546.132 494.147 550.469 483.976 552.257 479.956" stroke="#263238" stroke-width="0.538494" stroke-linecap="round" stroke-linejoin="round"/>
<path d="M471.526 377.216C471.526 377.216 470.735 372.429 476.025 364.559C481.315 356.689 484.818 352.132 484.818 352.132C484.818 352.132 489.829 362.565 484.993 370.327C481.402 375.834 477.377 381.016 472.962 385.822L471.526 377.216Z" fill="#2B65B1"/>
<path d="M485.757 405.413C485.757 405.413 484.965 400.626 490.256 392.756C495.546 384.886 499.048 380.329 499.048 380.329C499.048 380.329 504.06 390.762 499.224 398.54C495.63 404.039 491.606 409.217 487.193 414.019L485.757 405.413Z" fill="#2B65B1"/>
<path d="M473.271 385.285C473.271 385.285 472.011 380.683 463.98 375.942C455.95 371.202 450.938 368.716 450.938 368.716C450.938 368.716 450.733 380.391 458.265 385.208C463.78 388.532 469.549 391.37 475.513 393.692L473.271 385.285Z" fill="#2B65B1"/>
<path d="M490.327 418.545C490.327 418.545 488.598 414.034 480.158 410.26C471.717 406.486 466.441 404.523 466.441 404.523C466.441 404.523 467.409 416.152 475.439 420.11C481.258 422.809 487.282 424.995 493.449 426.645L490.327 418.545Z" fill="#2B65B1"/>
<path d="M494.578 457.405C494.578 457.405 493.801 452.618 486.283 447.08C478.766 441.542 474.033 438.458 474.033 438.458C474.033 438.458 472.655 450.041 479.704 455.656C484.853 459.581 490.309 463.046 496.014 466.011L494.578 457.405Z" fill="#2B65B1"/>
<path d="M496.249 466.778C496.249 466.778 494.784 462.176 498.989 453.584C503.195 444.993 505.979 439.977 505.979 439.977C505.979 439.977 512.354 449.55 508.632 457.972C505.827 463.951 502.548 469.673 498.828 475.078L496.249 466.778Z" fill="#2B65B1"/>
<path d="M509.056 505.362C509.056 505.362 509.584 500.544 516.779 494.623C523.974 488.701 528.502 485.28 528.502 485.28C528.502 485.28 530.509 496.77 523.783 502.8C518.857 507.02 513.602 510.802 508.074 514.106L509.056 505.362Z" fill="#2B65B1"/>
<path d="M507.136 493.458C507.136 493.458 506.345 488.671 498.842 483.133C491.339 477.595 486.62 474.511 486.62 474.511C486.62 474.511 485.243 486.094 492.292 491.724C497.445 495.643 502.9 499.107 508.602 502.08L507.136 493.458Z" fill="#2B65B1"/>
<path d="M507.136 519.476C507.136 519.476 507.517 514.628 501.596 507.28C495.676 499.931 491.837 495.697 491.837 495.697C491.837 495.697 487.69 506.528 493.156 513.846C497.162 518.999 501.574 523.792 506.344 528.175L507.136 519.476Z" fill="#2B65B1"/>
<path d="M470.75 376.08C471.897 381.005 473.301 385.86 474.956 390.624C479.748 403.848 487.529 411.534 492.101 423.424C496.673 435.314 492.101 452.573 496.614 468.083C501.128 483.593 508.601 491.356 508.601 502.248C508.601 513.141 504.557 543.44 504.557 543.44" stroke="#263238" stroke-width="0.538494" stroke-linecap="round" stroke-linejoin="round"/>
<path d="M473.871 388.446L466.061 384.165" stroke="#263238" stroke-width="0.538494" stroke-linecap="round" stroke-linejoin="round"/>
<path d="M472.494 382.125L474.487 376.234" stroke="#263238" stroke-width="0.538494" stroke-linecap="round" stroke-linejoin="round"/>
<path d="M491.618 422.933C491.618 422.933 485.097 419.451 478.43 415.984" stroke="#263238" stroke-width="0.538494" stroke-linecap="round" stroke-linejoin="round"/>
<path d="M487.178 414.019C489.1 407.698 491.629 401.597 494.725 395.809" stroke="#263238" stroke-width="0.538494" stroke-linecap="round" stroke-linejoin="round"/>
<path d="M495.486 464.247C491.138 458.487 486.014 453.417 480.275 449.197" stroke="#263238" stroke-width="0.538494" stroke-linecap="round" stroke-linejoin="round"/>
<path d="M497.713 470.752C498.756 466.123 500.163 461.592 501.919 457.206C504.424 451.392 504.849 450.625 504.849 450.625" stroke="#263238" stroke-width="0.538494" stroke-linecap="round" stroke-linejoin="round"/>
<path d="M508.25 510.517C510.791 507.221 513.606 504.166 516.661 501.389C518.605 499.891 520.428 498.229 522.113 496.419" stroke="#263238" stroke-width="0.538494" stroke-linecap="round" stroke-linejoin="round"/>
<path d="M508.602 502.248C506.509 498.712 504.162 495.348 501.583 492.184C499.043 489.281 496.279 486.603 493.318 484.176" stroke="#263238" stroke-width="0.538494" stroke-linecap="round" stroke-linejoin="round"/>
<path d="M506.345 528.175C506.083 524.486 504.884 520.937 502.872 517.896C499.663 513.463 495.882 507.571 494.344 505.255" stroke="#263238" stroke-width="0.538494" stroke-linecap="round" stroke-linejoin="round"/>
<path d="M55.3091 310.388L48.8906 291.196L55.3091 299.342L50.2681 270.546L58.064 291.196L60.819 250.863L65.4057 289.263L70.4467 281.592V291.196L76.4109 278.232L73.2016 300.784L78.6969 296.949L69.9924 309.421L55.3091 310.388Z" fill="#2B65B1"/>
<path d="M75.4886 305.586H51.6465L55.9401 355.982H71.195L75.4886 305.586Z" fill="#263238" stroke="#263238" stroke-width="0.538494" stroke-linecap="round" stroke-linejoin="round"/>
<path d="M120.212 355.415H38.9844V535.523H120.212V355.415Z" fill="white" stroke="#263238" stroke-width="0.538494" stroke-linecap="round" stroke-linejoin="round"/>
<path d="M124.651 355.415H79.5898V535.523H124.651V355.415Z" fill="white" stroke="#263238" stroke-width="0.538494" stroke-linecap="round" stroke-linejoin="round"/>
<path d="M119.581 355.415H79.5898V535.523H119.581V355.415Z" fill="#263238" stroke="#263238" stroke-width="0.538494" stroke-linecap="round" stroke-linejoin="round"/>
<path d="M115.082 493.641H79.5898V530.521H115.082V493.641Z" fill="#2B65B1" stroke="#263238" stroke-width="0.538494" stroke-linecap="round" stroke-linejoin="round"/>
<path d="M115.082 495.635H79.5898V500.36H115.082V495.635Z" fill="white" stroke="#263238" stroke-width="0.538494" stroke-linecap="round" stroke-linejoin="round"/>
<path d="M115.082 522.79H79.5898V527.515H115.082V522.79Z" fill="white" stroke="#263238" stroke-width="0.538494" stroke-linecap="round" stroke-linejoin="round"/>
<path d="M86.3164 494.408V541.046" stroke="#263238" stroke-width="0.538494" stroke-linecap="round" stroke-linejoin="round"/>
<path d="M98.6992 494.408V541.046" stroke="#263238" stroke-width="0.538494" stroke-linecap="round" stroke-linejoin="round"/>
<path d="M109.572 494.408V541.046" stroke="#263238" stroke-width="0.538494" stroke-linecap="round" stroke-linejoin="round"/>
<path d="M115.082 362.104H79.5898V416.335H115.082V362.104Z" fill="#2B65B1" stroke="#263238" stroke-width="0.538494" stroke-linecap="round" stroke-linejoin="round"/>
<path d="M115.082 364.374H79.5898V369.744H115.082V364.374Z" fill="white" stroke="#263238" stroke-width="0.538494" stroke-linecap="round" stroke-linejoin="round"/>
<path d="M115.082 399.138H79.5898V404.507H115.082V399.138Z" fill="white" stroke="#263238" stroke-width="0.538494" stroke-linecap="round" stroke-linejoin="round"/>
<path d="M86.3164 362.963V415.968" stroke="#263238" stroke-width="0.538494" stroke-linecap="round" stroke-linejoin="round"/>
<path d="M98.6992 362.963V415.968" stroke="#263238" stroke-width="0.538494" stroke-linecap="round" stroke-linejoin="round"/>
<path d="M109.572 362.963V415.968" stroke="#263238" stroke-width="0.538494" stroke-linecap="round" stroke-linejoin="round"/>
<path d="M115.082 427.458H79.5898V481.69H115.082V427.458Z" fill="#2B65B1" stroke="#263238" stroke-width="0.538494" stroke-linecap="round" stroke-linejoin="round"/>
<path d="M115.082 429.729H79.5898V435.099H115.082V429.729Z" fill="white" stroke="#263238" stroke-width="0.538494" stroke-linecap="round" stroke-linejoin="round"/>
<path d="M115.082 464.492H79.5898V469.861H115.082V464.492Z" fill="white" stroke="#263238" stroke-width="0.538494" stroke-linecap="round" stroke-linejoin="round"/>
<path d="M86.3164 428.333V481.322" stroke="#263238" stroke-width="0.538494" stroke-linecap="round" stroke-linejoin="round"/>
<path d="M98.6992 428.333V481.322" stroke="#263238" stroke-width="0.538494" stroke-linecap="round" stroke-linejoin="round"/>
<path d="M109.572 428.333V481.322" stroke="#263238" stroke-width="0.538494" stroke-linecap="round" stroke-linejoin="round"/>
<path d="M120.196 415.584H79.5898V421.751H120.196V415.584Z" fill="white" stroke="#263238" stroke-width="0.538494" stroke-linecap="round" stroke-linejoin="round"/>
<path d="M120.196 481.353H79.5898V487.52H120.196V481.353Z" fill="white" stroke="#263238" stroke-width="0.538494" stroke-linecap="round" stroke-linejoin="round"/>
<path d="M120.197 355.415V535.508" stroke="#263238" stroke-width="0.538494" stroke-linecap="round" stroke-linejoin="round"/>
<path d="M73.8613 355.415V535.508H79.591V362.104H119.494V355.338L73.8613 355.415Z" fill="white" stroke="#263238" stroke-width="0.538494" stroke-linecap="round" stroke-linejoin="round"/>
<path d="M79.5898 362.104V355.415" stroke="#263238" stroke-width="0.538494" stroke-linecap="round" stroke-linejoin="round"/>
<path d="M119.89 272.678C115.626 264.071 113.838 257.904 113.838 256.477C113.838 253.655 119.699 251.967 119.699 251.967C128.844 246.904 171.853 254.222 191.211 257.597C202.048 259.575 213.01 260.703 224.007 260.972C224.007 260.972 226.688 258.733 229.868 255.91C233.048 253.087 248.142 234.524 254.062 232.898C259.982 231.271 265.346 235.153 265.346 235.153C265.346 235.153 275.032 241.289 273.406 242.471C271.779 243.652 248.142 264.977 242.222 268.919C236.302 272.862 223.948 271.174 213.192 273.43C203.931 275.363 166.417 277.756 157.815 278.492C151.355 280.096 144.574 279.505 138.457 276.805" fill="white"/>
<path d="M265.447 235.092C265.447 235.092 260.069 231.149 254.164 232.837C248.258 234.524 233.194 253.103 229.97 255.849C226.746 258.595 224.108 260.912 224.108 260.912C213.111 260.642 202.149 259.514 191.313 257.536C171.955 254.161 128.945 246.797 119.801 251.906C119.801 251.906 113.939 253.594 113.939 256.417C114.143 257.995 114.532 259.54 115.097 261.019L115.903 261.326C115.903 261.326 126.644 260.144 149.827 260.727C173.01 261.31 226.629 264.64 230.073 265.944C231.538 266.527 241.928 264.072 253.446 259.807C262.238 252.305 272.569 242.931 273.61 242.272C275.134 241.275 265.447 235.092 265.447 235.092Z" fill="#2B65B1"/>
<path opacity="0.5" d="M265.447 235.092C265.447 235.092 260.069 231.149 254.164 232.837C248.258 234.524 233.194 253.103 229.97 255.849C226.746 258.595 224.108 260.912 224.108 260.912C213.111 260.642 202.149 259.514 191.313 257.536C171.955 254.161 128.945 246.797 119.801 251.906C119.801 251.906 113.939 253.594 113.939 256.417C114.143 257.995 114.532 259.54 115.097 261.019L115.903 261.326C115.903 261.326 126.644 260.144 149.827 260.727C173.01 261.31 226.629 264.64 230.073 265.944C231.538 266.527 241.928 264.072 253.446 259.807C262.238 252.305 272.569 242.931 273.61 242.272C275.134 241.275 265.447 235.092 265.447 235.092Z" fill="white"/>
<path d="M119.89 272.678C115.626 264.071 113.838 257.904 113.838 256.477C113.838 253.655 119.699 251.967 119.699 251.967C128.844 246.904 171.853 254.222 191.211 257.597C202.048 259.575 213.01 260.703 224.007 260.972C224.007 260.972 226.688 258.733 229.868 255.91C233.048 253.087 248.142 234.524 254.062 232.898C259.982 231.271 265.346 235.153 265.346 235.153C265.346 235.153 275.032 241.289 273.406 242.471C271.779 243.652 248.142 264.977 242.222 268.919C236.302 272.862 223.948 271.174 213.192 273.43C203.931 275.363 166.417 277.756 157.815 278.492C151.355 280.096 144.574 279.505 138.457 276.805" stroke="#263238" stroke-width="0.538494" stroke-linecap="round" stroke-linejoin="round"/>
<path d="M332.241 322.722C333.214 320.789 334.673 319.172 336.46 318.044C338.247 316.916 340.295 316.322 342.382 316.325H440.124C440.124 316.325 447.187 316.325 445.077 330.377C442.967 344.43 413.981 430.235 406.977 456.177C399.972 482.119 398.492 536.796 398.492 536.796H281.26C281.26 536.796 290.55 406.041 332.241 322.722Z" fill="white"/>
<path opacity="0.16" d="M376.261 316.325H342.381C340.294 316.322 338.246 316.916 336.459 318.044C334.672 319.172 333.213 320.789 332.24 322.722C290.549 406.041 281.156 536.75 281.156 536.75H333.735L346.704 485.188L400.777 496.862C401.158 492.536 401.598 488.133 402.111 483.792L400.924 469.984C400.924 469.984 389.845 457.788 386.357 454.735C382.87 451.682 385.185 446.174 384.599 422.38C384.013 398.585 363.614 381.48 356.024 366.829C348.433 352.178 360.112 343.019 370.604 328.368C374.341 323.075 375.865 319.178 376.261 316.325Z" fill="black"/>
<path d="M332.241 322.722C333.214 320.789 334.673 319.172 336.46 318.044C338.247 316.916 340.295 316.322 342.382 316.325H440.124C440.124 316.325 447.187 316.325 445.077 330.377C442.967 344.43 413.981 430.235 406.977 456.177C399.972 482.119 398.492 536.796 398.492 536.796H281.26C281.26 536.796 290.55 406.041 332.241 322.722Z" stroke="#263238" stroke-width="0.538494" stroke-linecap="round" stroke-linejoin="round"/>
<path d="M423.169 340.733C413.292 364.865 392.396 460.396 388.996 536.75H398.433C398.433 536.75 399.899 482.012 406.918 456.131C413.937 430.25 442.952 344.43 445.018 330.332C447.085 316.233 440.065 316.279 440.065 316.279C440.065 316.279 431.097 321.388 423.169 340.733Z" fill="#263238" stroke="#263238" stroke-width="0.538494" stroke-linecap="round" stroke-linejoin="round"/>
<path d="M251.468 292.5C251.468 292.5 235.876 282.927 229.971 266.051C224.065 249.175 276.204 222.144 298.845 220.456C321.485 218.769 327.874 224.951 341.341 249.16C354.808 273.369 363.923 306.568 356.933 322.891C349.943 339.214 338.117 343.157 346.675 356.642C355.233 370.127 379.471 408.419 377.859 426.43C376.247 444.441 359.585 460.181 335.362 461.899C311.139 463.618 278.9 448.384 252.025 423.546C225.15 398.708 232.125 362.18 241.767 350.367C251.41 338.555 265.961 334.044 267.031 322.231C268.1 310.418 251.468 292.5 251.468 292.5Z" fill="#263238" stroke="#263238" stroke-width="0.538494" stroke-linecap="round" stroke-linejoin="round"/>
<path d="M317.924 265.79C326.203 281.929 336.564 303.545 339.802 316.601C345.459 339.46 316.356 353.85 324.43 364.85" stroke="white" stroke-width="0.538494" stroke-linecap="round" stroke-linejoin="round"/>
<path d="M306.641 244.649C306.641 244.649 309.865 250.402 314.319 258.871" stroke="white" stroke-width="0.538494" stroke-linecap="round" stroke-linejoin="round"/>
<path d="M350.074 285.258C351.029 288.283 351.649 291.413 351.921 294.586" stroke="white" stroke-width="0.538494" stroke-linecap="round" stroke-linejoin="round"/>
<path d="M312.238 236.258C312.238 236.258 337.707 255.956 347.877 279.536" stroke="white" stroke-width="0.538494" stroke-linecap="round" stroke-linejoin="round"/>
<path d="M276.893 251.032C258.707 256.371 232.55 265.039 234.674 270.04" stroke="white" stroke-width="0.538494" stroke-linecap="round" stroke-linejoin="round"/>
<path d="M293.701 246.337C293.701 246.337 289.818 247.35 284.029 248.976" stroke="white" stroke-width="0.538494" stroke-linecap="round" stroke-linejoin="round"/>
<path d="M271.207 236.396C281.624 232.959 292.534 231.453 303.446 231.947" stroke="white" stroke-width="0.538494" stroke-linecap="round" stroke-linejoin="round"/>
<path d="M263.791 239.571C265.438 238.673 267.142 237.894 268.891 237.239" stroke="white" stroke-width="0.538494" stroke-linecap="round" stroke-linejoin="round"/>
<path d="M113.837 256.478C113.83 256.585 113.83 256.693 113.837 256.8C113.83 256.693 113.83 256.585 113.837 256.478ZM119.889 272.679C117.421 267.947 115.455 262.947 114.028 257.767C115.449 262.949 117.414 267.95 119.889 272.679ZM113.866 256.892C113.866 256.984 113.866 257.092 113.866 257.23C113.896 257.092 113.881 256.984 113.866 256.892ZM113.94 257.322C113.958 257.472 113.987 257.621 114.028 257.767C113.987 257.621 113.958 257.472 113.94 257.322ZM119.889 272.663C125.37 283.531 132.188 293.599 140.17 302.61C159.528 324.563 215.448 381.986 220.767 385.929C226.087 389.872 224.533 401.117 220.767 412.377C217.001 423.638 203.021 439.992 203.564 457.972C204.106 475.952 209.425 503.567 208.942 509.197C208.458 514.827 195.006 533.974 195.006 533.974H333.721C333.721 533.974 316.429 510.961 316.429 503.091C316.429 495.221 340.168 394.382 341.238 387.064C342.308 379.746 338.014 374.684 329.412 374.116C320.81 373.548 288.015 366.23 286.403 360.6C284.791 354.97 295.005 333.584 295.005 333.584L262.766 335.272C262.766 335.272 261.154 349.907 259 352.73C256.846 355.553 253.622 349.907 246.09 345.98C238.557 342.052 224.109 338.662 218.672 334.152C213.235 329.641 161.682 278.923 161.682 278.923" fill="white"/>
<path d="M226.908 338.493C229.59 343.402 232.272 347.836 232.272 347.836C232.272 347.836 241.313 353.159 243.57 353.159C245.827 353.159 259.396 360.83 259.396 360.83C259.396 360.83 270.709 357.869 266.723 347.805C265.466 345.228 263.878 342.844 262.005 340.717C261.33 345.182 260.246 351.027 258.971 352.699C256.817 355.506 253.593 349.876 246.061 345.949C241.181 343.402 233.283 341.07 226.908 338.493Z" fill="#2B65B1"/>
<path d="M199.3 315.711C182.697 299.618 161.683 278.983 161.683 278.983L149.461 277.142L147.996 278.001C147.996 278.001 182.492 309.958 189.833 313.517C192.803 314.946 196.031 315.694 199.3 315.711Z" fill="#2B65B1"/>
<path d="M216.694 332.371L215.375 331.144C216.049 332.31 216.43 333.046 216.43 333.046L216.694 332.371Z" fill="#2B65B1"/>
<g opacity="0.5">
<path opacity="0.5" d="M226.908 338.493C229.59 343.402 232.272 347.836 232.272 347.836C232.272 347.836 241.313 353.159 243.57 353.159C245.827 353.159 259.396 360.83 259.396 360.83C259.396 360.83 270.709 357.869 266.723 347.805C265.466 345.228 263.878 342.844 262.005 340.717C261.33 345.182 260.246 351.027 258.971 352.699C256.817 355.506 253.593 349.876 246.061 345.949C241.181 343.402 233.283 341.07 226.908 338.493Z" fill="white"/>
<path opacity="0.5" d="M199.3 315.711C182.697 299.618 161.683 278.983 161.683 278.983L149.461 277.142L147.996 278.001C147.996 278.001 182.492 309.958 189.833 313.517C192.803 314.946 196.031 315.694 199.3 315.711Z" fill="white"/>
<path opacity="0.5" d="M216.694 332.371L215.375 331.144C216.049 332.31 216.43 333.046 216.43 333.046L216.694 332.371Z" fill="white"/>
</g>
<path d="M119.889 272.663C125.37 283.531 132.188 293.599 140.17 302.61C159.528 324.563 215.448 381.986 220.767 385.929C226.087 389.872 224.533 401.117 220.767 412.377C217.001 423.638 203.021 439.992 203.564 457.972C204.106 475.952 209.425 503.567 208.942 509.197C208.458 514.827 195.006 533.974 195.006 533.974H333.721C333.721 533.974 316.429 510.961 316.429 503.091C316.429 495.221 340.168 394.382 341.238 387.064C342.308 379.746 338.014 374.684 329.412 374.116C320.81 373.548 288.015 366.23 286.403 360.6C284.791 354.97 295.005 333.584 295.005 333.584L262.766 335.272C262.766 335.272 261.154 349.907 259 352.73C256.846 355.553 253.622 349.907 246.09 345.98C238.557 342.052 224.109 338.662 218.672 334.152C213.235 329.641 161.682 278.923 161.682 278.923M113.837 256.478C113.83 256.585 113.83 256.693 113.837 256.8C113.83 256.693 113.83 256.585 113.837 256.478V256.478ZM119.889 272.679C117.421 267.947 115.455 262.947 114.028 257.767C115.449 262.949 117.414 267.95 119.889 272.679V272.679ZM113.866 256.892C113.866 256.984 113.866 257.092 113.866 257.23C113.896 257.092 113.881 256.984 113.866 256.892V256.892ZM113.94 257.322C113.958 257.472 113.987 257.621 114.028 257.767C113.987 257.621 113.958 257.472 113.94 257.322Z" stroke="#263238" stroke-width="0.538494" stroke-linecap="round" stroke-linejoin="round"/>
<path d="M161.682 278.984C161.682 278.984 144.508 279.321 134.924 271.052" stroke="#263238" stroke-width="0.538494" stroke-linecap="round" stroke-linejoin="round"/>
<path d="M286.417 360.6C284.805 354.985 295.019 333.583 295.019 333.583L262.78 335.271C262.78 335.271 261.168 349.907 259.014 352.73C256.86 355.552 253.636 349.907 246.104 345.979C245.532 345.673 244.902 345.381 244.258 345.09L242.309 377.168C242.309 377.168 245.137 408.235 279.046 402.328C292.777 399.935 307.431 387.11 320.077 372.689C307.065 370.188 287.648 364.911 286.417 360.6Z" fill="white"/>
<path d="M285.508 337.833C285.508 337.833 283.559 349.278 281.991 361.935C280.423 374.591 279.266 384.011 279.266 384.011L286.417 360.6L294.477 335.793C294.477 335.793 286.681 335.793 285.508 337.833Z" fill="#2B65B1"/>
<path opacity="0.5" d="M285.508 337.833C285.508 337.833 283.559 349.278 281.991 361.935C280.423 374.591 279.266 384.011 279.266 384.011L286.417 360.6L294.477 335.793C294.477 335.793 286.681 335.793 285.508 337.833Z" fill="white"/>
<path d="M286.417 360.6C284.805 354.985 295.019 333.583 295.019 333.583L262.78 335.271C262.78 335.271 261.168 349.907 259.014 352.73C256.86 355.552 253.636 349.907 246.104 345.979C245.532 345.673 244.902 345.381 244.258 345.09L242.309 377.168C242.309 377.168 245.137 408.235 279.046 402.328C292.777 399.935 307.431 387.11 320.077 372.689C307.065 370.188 287.648 364.911 286.417 360.6Z" stroke="#263238" stroke-width="0.538494" stroke-linecap="round" stroke-linejoin="round"/>
<path d="M258.999 352.73C256.845 355.537 253.621 349.907 246.089 345.979C241.341 343.479 233.779 341.208 227.522 338.754C225.749 334.351 223.404 328.613 221.895 325.146C219.213 319.009 214.905 322.891 214.905 322.891C212.657 320.214 210.841 317.173 209.527 313.885C206.845 307.749 202.537 308.255 196.631 307.135C190.726 306.015 178.343 294.187 178.343 294.187C178.343 294.187 172.555 289.584 170.166 287.299C167.382 293.036 160.714 303.131 146.295 309.436C169.287 334.581 215.931 382.354 220.825 385.944C226.203 389.871 224.591 401.132 220.825 412.393C217.059 423.653 203.079 440.007 203.621 457.987C204.164 475.967 209.483 503.582 208.999 509.212C208.516 514.229 197.789 529.954 195.459 533.329L200.925 533.973H229.383C229.222 518.877 229.237 457.266 239.099 432.72C250.397 404.507 258.999 352.73 258.999 352.73Z" fill="#2B65B1"/>
<path opacity="0.16" d="M246.089 345.979C241.341 343.479 233.78 341.208 227.522 338.754C225.749 334.351 223.405 328.613 221.895 325.146C219.214 319.009 214.905 322.891 214.905 322.891C212.658 320.214 210.841 317.173 209.527 313.885C206.846 307.749 202.537 308.255 196.632 307.135C190.726 306.015 178.344 294.187 178.344 294.187C178.344 294.187 172.555 289.584 170.167 287.299C168.975 289.735 167.556 292.042 165.932 294.187C175.545 302.701 186.154 311.722 189.862 313.517C197.189 317.061 198.903 314.1 204.516 317.659C210.128 321.218 216.385 333.001 216.385 333.001C216.385 333.001 219.785 323.52 222.613 330.04C225.442 336.56 232.226 347.79 232.226 347.79C232.226 347.79 241.268 353.113 243.525 353.113C245.298 353.113 253.988 357.838 257.68 359.879C258.501 355.384 258.955 352.684 258.955 352.684C256.845 355.537 253.621 349.907 246.089 345.979Z" fill="black"/>
<path d="M258.999 352.73C256.845 355.537 253.621 349.907 246.089 345.979C241.341 343.479 233.779 341.208 227.522 338.754C225.749 334.351 223.404 328.613 221.895 325.146C219.213 319.009 214.905 322.891 214.905 322.891C212.657 320.214 210.841 317.173 209.527 313.885C206.845 307.749 202.537 308.255 196.631 307.135C190.726 306.015 178.343 294.187 178.343 294.187C178.343 294.187 172.555 289.584 170.166 287.299C167.382 293.036 160.714 303.131 146.295 309.436C169.287 334.581 215.931 382.354 220.825 385.944C226.203 389.871 224.591 401.132 220.825 412.392C217.059 423.653 203.079 440.007 203.621 457.987C204.164 475.967 209.483 503.582 208.999 509.212C208.516 514.229 197.789 529.954 195.459 533.329L200.925 533.973H229.383C229.222 518.877 229.237 457.266 239.099 432.72C250.397 404.507 258.999 352.73 258.999 352.73Z" stroke="#263238" stroke-width="0.538494" stroke-linecap="round" stroke-linejoin="round"/>
<path d="M259.38 350.767C259.38 350.767 252.698 348.619 248.58 352.393C244.462 356.167 238.322 375.528 234.703 396.53C232.472 408.757 234.012 421.409 239.099 432.659C239.099 432.659 247.554 409.448 250.119 398.141C252.683 386.834 259.38 350.767 259.38 350.767Z" fill="#2B65B1"/>
<path opacity="0.16" d="M246.559 354.187C246.559 354.187 251.394 352.96 253.387 353.666C255.066 354.419 256.634 355.416 258.047 356.627L259.381 350.766C257.381 349.696 255.112 349.305 252.889 349.646C249.563 350.352 246.559 354.187 246.559 354.187Z" fill="black"/>
<path d="M259.38 350.767C259.38 350.767 252.698 348.619 248.58 352.393C244.462 356.167 238.322 375.528 234.703 396.53C232.472 408.757 234.012 421.409 239.099 432.659C239.099 432.659 247.554 409.448 250.119 398.141C252.683 386.834 259.38 350.767 259.38 350.767Z" stroke="#263238" stroke-width="0.538494" stroke-linecap="round" stroke-linejoin="round"/>
<path d="M214.379 352.607L222.981 389.196L203.623 343.034" stroke="#263238" stroke-width="0.538494" stroke-linecap="round" stroke-linejoin="round"/>
<path d="M271.046 533.973H333.735C333.735 533.973 316.444 510.961 316.444 503.091C316.444 495.221 340.183 394.381 341.253 387.064C342.323 379.746 338.029 374.683 329.427 374.115C320.825 373.548 288.03 366.23 286.418 360.6C286.418 360.6 274.05 406.194 269.756 437.153C266.063 463.709 269.888 518.816 271.046 533.973Z" fill="#2B65B1"/>
<path opacity="0.16" d="M329.428 374.116C322.38 373.656 299.094 368.655 290.023 363.776L293.321 371.754C299.294 375.072 305.719 377.41 312.371 378.688C323.288 380.728 333.443 380.33 340.082 390.547L340.404 391.053C340.814 389.089 341.093 387.709 341.181 387.064C342.338 379.747 338.03 374.684 329.428 374.116Z" fill="black"/>
<path d="M271.046 533.973H333.735C333.735 533.973 316.444 510.961 316.444 503.091C316.444 495.221 340.183 394.381 341.253 387.064C342.323 379.746 338.029 374.683 329.427 374.115C320.825 373.548 288.03 366.23 286.418 360.6C286.418 360.6 274.05 406.194 269.756 437.153C266.063 463.709 269.888 518.816 271.046 533.973Z" stroke="#263238" stroke-width="0.538494" stroke-linecap="round" stroke-linejoin="round"/>
<path d="M286.417 360.6C286.417 360.6 269.829 415.829 269.756 437.153C269.756 437.153 293.32 407.284 296.397 386.296C299.474 365.309 286.417 360.6 286.417 360.6Z" fill="#2B65B1"/>
<path opacity="0.16" d="M283.561 367.657C286.053 367.569 288.528 368.119 290.773 369.257C293.017 370.396 294.963 372.09 296.441 374.192C296.441 374.192 293.188 364.174 286.418 360.6L283.561 367.657Z" fill="black"/>
<path d="M286.417 360.6C286.417 360.6 269.829 415.829 269.756 437.153C269.756 437.153 293.32 407.284 296.397 386.296C299.474 365.309 286.417 360.6 286.417 360.6Z" stroke="#263238" stroke-width="0.538494" stroke-linecap="round" stroke-linejoin="round"/>
<path d="M463.512 523.587C463.512 523.587 475.66 524.109 483.617 525.306C488.924 526.059 494.266 526.504 499.619 526.64C499.619 526.64 495.223 517.343 490.534 514.72C485.844 512.097 477.345 507.402 470.223 508.445C463.101 509.489 452.917 517.006 453.767 519.399C454.617 521.792 458.412 522.866 463.512 523.587Z" fill="white"/>
<path d="M463.512 523.587C463.512 523.587 475.66 524.109 483.617 525.306C488.924 526.059 494.266 526.504 499.619 526.64C499.619 526.64 495.223 517.343 490.534 514.72C485.844 512.097 477.345 507.402 470.223 508.445C463.101 509.489 452.917 517.006 453.767 519.399C454.617 521.792 458.412 522.866 463.512 523.587Z" fill="#2B65B1"/>
<path opacity="0.5" d="M463.512 523.587C463.512 523.587 475.66 524.109 483.617 525.306C488.924 526.059 494.266 526.504 499.619 526.64C499.619 526.64 495.223 517.343 490.534 514.72C485.844 512.097 477.345 507.402 470.223 508.445C463.101 509.489 452.917 517.006 453.767 519.399C454.617 521.792 458.412 522.866 463.512 523.587Z" fill="white"/>
<path d="M463.512 523.587C463.512 523.587 475.66 524.109 483.617 525.306C488.924 526.059 494.266 526.504 499.619 526.64C499.619 526.64 495.223 517.343 490.534 514.72C485.844 512.097 477.345 507.402 470.223 508.445C463.101 509.489 452.917 517.006 453.767 519.399C454.617 521.792 458.412 522.866 463.512 523.587Z" stroke="#263238" stroke-width="0.538494" stroke-linecap="round" stroke-linejoin="round"/>
<path d="M483.689 519.782C483.689 519.782 493.317 514.551 495.72 514.628C498.124 514.704 514.097 526.011 513.305 527.821C512.768 528.661 511.992 529.302 511.087 529.655C510.183 530.007 509.195 530.053 508.264 529.785C506.491 528.911 495.735 524.124 495.735 524.124L488.701 525.858L483.689 519.782Z" fill="white"/>
<path d="M483.689 519.782C483.689 519.782 493.317 514.551 495.72 514.628C498.124 514.704 514.097 526.011 513.305 527.821C512.514 529.632 508.733 531.104 508.264 529.785C507.795 528.466 495.735 524.124 495.735 524.124L488.701 525.858L483.689 519.782Z" fill="#2B65B1"/>
<path opacity="0.5" d="M483.689 519.782C483.689 519.782 493.317 514.551 495.72 514.628C498.124 514.704 514.097 526.011 513.305 527.821C512.514 529.632 508.733 531.104 508.264 529.785C507.795 528.466 495.735 524.124 495.735 524.124L488.701 525.858L483.689 519.782Z" fill="white"/>
<path d="M483.689 519.782C483.689 519.782 493.317 514.551 495.72 514.628C498.124 514.704 514.097 526.011 513.305 527.821C512.768 528.661 511.992 529.302 511.087 529.655C510.183 530.007 509.195 530.053 508.264 529.785C506.491 528.911 495.735 524.124 495.735 524.124L488.701 525.858L483.689 519.782Z" stroke="#263238" stroke-width="0.538494" stroke-linecap="round" stroke-linejoin="round"/>
<path d="M476.816 511.176C476.816 511.176 489.653 510.746 492.203 512.097C494.753 513.447 506.271 534.127 504.542 535.63C502.813 537.134 498.035 536.689 498.182 535.017C498.329 533.344 487.572 522.268 487.572 522.268L479.205 520.35L476.816 511.176Z" fill="white"/>
<path d="M476.816 511.176C476.816 511.176 489.653 510.746 492.203 512.097C494.753 513.447 506.271 534.127 504.542 535.63C502.813 537.134 498.035 536.689 498.182 535.017C498.329 533.344 487.572 522.268 487.572 522.268L479.205 520.35L476.816 511.176Z" fill="#2B65B1"/>
<path opacity="0.5" d="M476.816 511.176C476.816 511.176 489.653 510.746 492.203 512.097C494.753 513.447 506.271 534.127 504.542 535.63C502.813 537.134 498.035 536.689 498.182 535.017C498.329 533.344 487.572 522.268 487.572 522.268L479.205 520.35L476.816 511.176Z" fill="white"/>
<path d="M476.816 511.176C476.816 511.176 489.653 510.746 492.203 512.097C494.753 513.447 506.271 534.127 504.542 535.63C502.813 537.134 498.035 536.689 498.182 535.017C498.329 533.344 487.572 522.268 487.572 522.268L479.205 520.35L476.816 511.176Z" stroke="#263238" stroke-width="0.538494" stroke-linecap="round" stroke-linejoin="round"/>
<path d="M469.213 508.4C469.213 508.4 482.211 507.955 484.79 509.335C487.369 510.716 499.034 531.627 497.275 533.161C495.517 534.695 490.71 534.219 490.857 532.532C491.003 530.844 480.115 519.63 480.115 519.63L471.645 517.681L469.213 508.4Z" fill="white"/>
<path d="M469.213 508.4C469.213 508.4 482.211 507.955 484.79 509.335C487.369 510.716 499.034 531.627 497.275 533.161C495.517 534.695 490.71 534.219 490.857 532.532C491.003 530.844 480.115 519.63 480.115 519.63L471.645 517.681L469.213 508.4Z" fill="#2B65B1"/>
<path opacity="0.5" d="M469.213 508.4C469.213 508.4 482.211 507.955 484.79 509.335C487.369 510.716 499.034 531.627 497.275 533.161C495.517 534.695 490.71 534.219 490.857 532.532C491.003 530.844 480.115 519.63 480.115 519.63L471.645 517.681L469.213 508.4Z" fill="white"/>
<path d="M469.213 508.4C469.213 508.4 482.211 507.955 484.79 509.335C487.369 510.716 499.034 531.627 497.275 533.161C495.517 534.695 490.71 534.219 490.857 532.532C491.003 530.844 480.115 519.63 480.115 519.63L471.645 517.681L469.213 508.4Z" stroke="#263238" stroke-width="0.538494" stroke-linecap="round" stroke-linejoin="round"/>
<path d="M321.425 430.435C330.833 445.607 349.722 484.053 355.232 488.379C363.834 495.129 421.336 511.514 426.876 515.994C432.415 520.473 432.034 524.968 437.28 526.61C442.526 528.252 462.192 532.961 469.695 533.698C477.198 534.434 473.842 529.571 473.842 529.571L461.049 520.366L472.2 517.482C472.2 517.482 483.382 531.565 485.477 532.332C487.573 533.099 491.265 532.332 491.031 530.599C490.621 527.822 478.692 505.101 474.457 504.135C470.222 503.168 444.519 506.896 444.519 506.896C444.519 506.896 390.607 468.834 389.64 467.484C389.64 467.484 386.416 457.911 383.778 453.968C381.14 450.026 379.47 451.161 379.47 451.161C379.47 451.161 380.554 446.083 378.942 444.395L370.34 435.39L370.033 435.819C368.567 432.751 367.102 429.253 365.49 425.265C360.991 414.173 345.062 383.045 342.381 378.55C340.373 375.19 323.55 372.782 315.021 371.769" fill="#2B65B1"/>
<path opacity="0.16" d="M358.882 431.401C365.916 437.937 363.571 437.937 362.003 443.674C360.435 449.412 363.176 441.634 369.814 442.048C376.452 442.462 374.503 451.437 373.712 453.078C372.921 454.72 381.918 456.76 380.35 460.427C378.782 464.094 369.814 469.417 364.744 474.741C359.673 480.064 378.005 466.149 384.248 465.751C386.153 465.612 387.721 465.873 389.04 465.843C387.656 461.738 385.879 457.79 383.735 454.06C381.039 450.118 379.427 451.253 379.427 451.253C379.427 451.253 380.511 446.175 378.899 444.487L370.297 435.482L369.99 435.911C368.524 432.843 367.059 429.345 365.447 425.357C360.948 414.265 345.019 383.137 342.338 378.642C340.33 375.282 323.507 372.874 314.979 371.861L315.755 378.964L315.946 379.118C315.946 379.118 326.482 381.158 329.999 381.572C333.516 381.986 337.809 385.239 337.414 387.709C337.018 390.179 326.878 401.194 329.999 402.022C333.12 402.851 336.637 393.845 340.154 395.073C343.671 396.3 351.804 424.866 358.882 431.401Z" fill="black"/>
<path d="M321.425 430.435C330.833 445.607 349.722 484.053 355.232 488.379C363.834 495.129 421.336 511.514 426.876 515.994C432.415 520.473 432.034 524.968 437.28 526.61C442.526 528.252 462.192 532.961 469.695 533.698C477.198 534.434 473.842 529.571 473.842 529.571L461.049 520.366L472.2 517.482C472.2 517.482 483.382 531.565 485.477 532.332C487.573 533.099 491.265 532.332 491.031 530.599C490.621 527.822 478.692 505.101 474.457 504.135C470.222 503.168 444.519 506.896 444.519 506.896C444.519 506.896 390.607 468.834 389.64 467.484C389.64 467.484 386.416 457.911 383.778 453.968C381.14 450.026 379.47 451.161 379.47 451.161C379.47 451.161 380.554 446.083 378.942 444.395L370.34 435.39L370.033 435.819C368.567 432.751 367.102 429.253 365.49 425.265C360.991 414.173 345.062 383.045 342.381 378.55C340.373 375.19 323.55 372.782 315.021 371.769" stroke="#263238" stroke-width="0.538494" stroke-linecap="round" stroke-linejoin="round"/>
<path d="M321.573 409.616C321.177 410.997 320.84 412.378 320.576 413.789" stroke="#263238" stroke-width="0.538494" stroke-linecap="round" stroke-linejoin="round"/>
<path d="M335.817 384.226C331.212 389.72 327.329 395.834 324.27 402.405" stroke="#263238" stroke-width="0.538494" stroke-linecap="round" stroke-linejoin="round"/>
<path d="M357.344 471.335C361.3 465.198 367.602 457.42 374.548 455.196" stroke="#263238" stroke-width="0.538494" stroke-linecap="round" stroke-linejoin="round"/>
<path d="M352.961 478.882C352.961 478.882 353.664 477.44 354.925 475.262" stroke="#263238" stroke-width="0.538494" stroke-linecap="round" stroke-linejoin="round"/>
<path d="M352.961 469.187C352.961 469.187 360.156 450.348 367.351 445.5C374.546 440.652 370.429 450.348 370.429 450.348" stroke="#263238" stroke-width="0.538494" stroke-linecap="round" stroke-linejoin="round"/>
<path d="M426.876 516.009C432.43 520.504 432.034 524.984 437.28 526.625C442.526 528.267 462.192 532.977 469.695 533.713C477.198 534.45 473.842 529.586 473.842 529.586L461.049 520.381L472.201 517.497C472.201 517.497 483.382 531.581 485.477 532.348C487.573 533.115 491.559 533.391 491.031 530.614C490.006 525.245 478.693 505.117 474.458 504.15C470.223 503.184 444.519 506.912 444.519 506.912C444.519 506.912 395.414 471.626 390.036 467.806C369.183 469.908 359.262 481.338 355.086 488.195L355.232 488.318C363.834 495.129 421.337 511.514 426.876 516.009Z" fill="white"/>
<path d="M491.016 530.676C488.349 523.849 478.678 505.178 474.443 504.212C470.208 503.245 444.504 506.973 444.504 506.973C444.504 506.973 395.399 471.688 390.021 467.868C384.547 468.366 379.177 469.726 374.092 471.903C381.844 476.505 433.514 507.188 440.035 508.553C446.952 510.087 470.032 506.114 474.091 508.968C476.67 510.778 484.349 523.527 489.536 532.578C491.016 532.348 491.558 532.056 491.016 530.676Z" fill="#2B65B1"/>
<path opacity="0.5" d="M491.016 530.676C486.854 520.903 478.678 505.178 474.443 504.212C470.208 503.245 444.504 506.973 444.504 506.973C444.504 506.973 395.399 471.688 390.021 467.868C384.547 468.366 379.177 469.726 374.092 471.903C381.844 476.505 433.514 507.188 440.035 508.553C446.952 510.087 470.032 506.114 474.091 508.968C476.67 510.778 484.349 523.527 489.536 532.578C491.016 532.348 491.602 532.041 491.016 530.676Z" fill="white"/>
<path d="M426.876 516.009C432.43 520.504 432.034 524.984 437.28 526.625C442.526 528.267 462.192 532.977 469.695 533.713C477.198 534.45 473.842 529.586 473.842 529.586L461.049 520.381L472.201 517.497C472.201 517.497 483.382 531.581 485.477 532.348C487.573 533.115 491.559 533.391 491.031 530.614C490.006 525.245 478.693 505.117 474.458 504.15C470.223 503.184 444.519 506.912 444.519 506.912C444.519 506.912 395.414 471.626 390.036 467.806C369.183 469.908 359.262 481.338 355.086 488.195L355.232 488.318C363.834 495.129 421.337 511.514 426.876 516.009Z" stroke="#263238" stroke-width="0.538494" stroke-linecap="round" stroke-linejoin="round"/>
<path d="M297.365 248.117L253.227 267.401C252.692 275.522 250.771 283.477 247.555 290.889C242.339 302.441 245.387 324.303 250.398 336.1C255.41 347.898 277.494 343.28 285.568 341.807C291.044 340.717 296.408 339.078 301.585 336.913C303.942 337.864 306.492 338.172 308.994 337.807C311.496 337.442 313.868 336.416 315.887 334.827C315.887 334.827 292.265 265.407 297.365 248.117Z" fill="white"/>
<path d="M297.364 248.117L253.227 267.401C252.692 275.522 250.771 283.477 247.555 290.889C242.339 302.441 245.387 324.303 250.398 336.1C251.237 337.997 252.587 339.597 254.282 340.703V339.813C254.282 339.813 246.09 318.565 247.643 306.307C249.197 294.049 255.85 287.897 256.626 280.15C257.403 272.403 257.007 268.721 271.852 262.998C286.696 257.276 292.924 251.968 294.478 257.675C296.031 263.382 302.288 300.999 306.582 309.989C310.876 318.979 310.48 328.399 303.856 332.464C297.162 336.671 289.989 339.98 282.505 342.313L285.627 341.746C291.103 340.655 296.467 339.016 301.643 336.852C304.001 337.803 306.55 338.111 309.052 337.746C311.555 337.381 313.927 336.355 315.946 334.766C315.946 334.766 292.265 265.407 297.364 248.117Z" fill="#2B65B1"/>
<path opacity="0.5" d="M297.364 248.117L253.227 267.401C252.692 275.522 250.771 283.477 247.555 290.889C242.339 302.441 245.387 324.303 250.398 336.1C251.237 337.997 252.587 339.597 254.282 340.703V339.813C254.282 339.813 246.09 318.565 247.643 306.307C249.197 294.049 255.85 287.897 256.626 280.15C257.403 272.403 257.007 268.721 271.852 262.998C286.696 257.276 292.924 251.968 294.478 257.675C296.031 263.382 302.288 300.999 306.582 309.989C310.876 318.979 310.48 328.399 303.856 332.464C297.162 336.671 289.989 339.98 282.505 342.313L285.627 341.746C291.103 340.655 296.467 339.016 301.643 336.852C304.001 337.803 306.55 338.111 309.052 337.746C311.555 337.381 313.927 336.355 315.946 334.766C315.946 334.766 292.265 265.407 297.364 248.117Z" fill="white"/>
<path d="M297.365 248.117L253.227 267.401C252.692 275.522 250.771 283.477 247.555 290.889C242.339 302.441 245.387 324.303 250.398 336.1C255.41 347.898 277.494 343.28 285.568 341.807C291.044 340.717 296.408 339.078 301.585 336.913C303.942 337.864 306.492 338.172 308.994 337.807C311.496 337.442 313.868 336.416 315.887 334.827C315.887 334.827 292.265 265.407 297.365 248.117Z" stroke="#263238" stroke-width="0.538494" stroke-linecap="round" stroke-linejoin="round"/>
<path d="M275.06 278.355C275.18 281.072 274.858 283.79 274.108 286.394C272.935 289.462 261.872 301.521 262.209 302.825C262.546 304.129 263.542 308.317 265.506 308.716" stroke="#263238" stroke-width="0.538494" stroke-linecap="round" stroke-linejoin="round"/>
<path d="M287.326 289.139C288.865 285.917 293.92 289.062 293.847 296.319" stroke="#263238" stroke-width="0.538494" stroke-linecap="round" stroke-linejoin="round"/>
<path d="M262.268 279.659C262.268 279.659 266.576 277.68 270.43 284.982" stroke="#263238" stroke-width="0.538494" stroke-linecap="round" stroke-linejoin="round"/>
<path d="M281.201 299.771C286.18 300.034 290.913 302.113 294.58 305.647" stroke="#263238" stroke-width="0.269247" stroke-linecap="round" stroke-linejoin="round"/>
<path d="M257.066 290.183C259.64 290.542 262.155 291.27 264.54 292.346" stroke="#263238" stroke-width="0.269247" stroke-linecap="round" stroke-linejoin="round"/>
<path d="M274.577 271.543C273.44 270.913 272.178 270.568 270.891 270.536C269.604 270.504 268.328 270.786 267.163 271.359C263.221 273.338 260.803 275.516 261.066 272.985C261.33 270.453 265.961 267.661 267.353 267.293C268.745 266.925 274.973 265.912 274.577 271.543Z" fill="#263238"/>
<path d="M285.627 265.821C289.735 269.301 292.999 273.748 295.152 278.8C298.083 286.471 300.398 278.094 298.083 273.078C295.768 268.061 289.071 262.722 285.627 265.821Z" fill="#263238"/>
<path d="M316.532 347.943C316.532 351.518 314.597 354.418 312.223 354.418C309.849 354.418 307.93 351.518 307.93 347.943C307.93 344.369 309.849 335.271 312.223 335.271C314.597 335.271 316.532 344.369 316.532 347.943Z" fill="#2B65B1" stroke="#263238" stroke-width="0.538494" stroke-linecap="round" stroke-linejoin="round"/>
<path d="M287.707 287.744C287.538 288.213 287.406 288.695 287.311 289.186C286.886 291.457 286.461 296.198 287.311 296.397C288.161 296.596 290.242 292.163 290.608 289.892C290.691 289.447 290.74 288.995 290.755 288.542C289.755 288.214 288.737 287.947 287.707 287.744Z" fill="#263238"/>
<path d="M262.707 279.214C262.577 279.615 262.474 280.025 262.4 280.441C261.96 282.712 261.975 287.698 262.898 287.882C263.821 288.066 265.33 283.402 265.755 281.132C265.861 280.581 265.92 280.021 265.931 279.46C264.882 279.158 263.787 279.074 262.707 279.214Z" fill="#263238"/>
<path d="M287.326 289.217L288.792 286.363C291.115 286.837 293.22 288.111 294.77 289.984" stroke="#263238" stroke-width="0.403871" stroke-linecap="round" stroke-linejoin="round"/>
<path d="M262.707 279.213L264.172 277.418C264.172 277.418 264.803 277.096 268.261 278.738" stroke="#263238" stroke-width="0.403871" stroke-linecap="round" stroke-linejoin="round"/>
<path d="M257.154 320.82C257.154 320.82 259.616 316.079 262.913 316.079C266.21 316.079 268.672 323.827 268.672 323.827" stroke="#263238" stroke-width="0.538494" stroke-linecap="round" stroke-linejoin="round"/>
<path d="M151.043 525.26C147.857 525.094 144.727 524.314 141.811 522.958C141.405 522.801 141.033 522.559 140.719 522.246C140.405 521.934 140.154 521.557 139.983 521.14C139.813 520.723 139.725 520.274 139.725 519.82C139.725 519.366 139.813 518.917 139.985 518.501C140.156 518.084 140.406 517.708 140.721 517.395C141.035 517.083 141.407 516.841 141.814 516.684C142.221 516.527 142.654 516.458 143.086 516.482C143.519 516.506 143.943 516.621 144.332 516.822C147.263 518.126 151.058 518.939 152.069 518.479C153.93 516.3 156.788 503.137 153.095 496.786C152.26 495.375 151.483 495.114 150.97 495.052C148.875 494.746 145.768 497.001 144.669 498.121C144.363 498.423 144.003 498.659 143.61 498.816C143.217 498.972 142.798 499.046 142.378 499.034C141.957 499.021 141.543 498.921 141.159 498.741C140.776 498.561 140.429 498.303 140.141 497.983C139.852 497.662 139.627 497.286 139.477 496.874C139.327 496.462 139.257 496.024 139.269 495.584C139.281 495.144 139.376 494.71 139.548 494.308C139.721 493.907 139.967 493.544 140.273 493.242C140.844 492.659 146.134 487.673 151.776 488.471C153.175 488.685 154.509 489.234 155.673 490.074C156.837 490.915 157.8 492.025 158.488 493.319C163.924 502.6 160.202 520.258 156.026 523.756C154.574 524.831 152.819 525.361 151.043 525.26Z" fill="white"/>
<path d="M155.338 495.774C154.954 494.821 154.352 493.981 153.586 493.328C152.819 492.676 151.911 492.23 150.942 492.03C147.278 491.417 143.835 495.267 143.454 495.697C143.103 496.138 142.887 496.68 142.832 497.251C142.777 497.822 142.887 498.397 143.146 498.903C143.722 498.782 144.255 498.495 144.685 498.075C145.784 497.001 148.89 494.746 150.986 495.006C151.499 495.006 152.275 495.329 153.111 496.74C156.803 503.03 153.946 516.254 152.085 518.433C151.074 518.893 147.293 518.08 144.348 516.776C143.985 516.616 143.598 516.528 143.205 516.515C143.231 516.936 143.358 517.342 143.573 517.699C143.788 518.055 144.084 518.35 144.435 518.556C146.288 519.592 148.332 520.199 150.429 520.335C151.625 520.395 152.797 519.966 153.697 519.139C156.452 516.484 158.884 502.907 155.338 495.774Z" fill="#2B65B1"/>
<path opacity="0.5" d="M155.338 495.774C154.954 494.821 154.352 493.981 153.586 493.328C152.819 492.676 151.911 492.23 150.942 492.03C147.278 491.417 143.835 495.267 143.454 495.697C143.103 496.138 142.887 496.68 142.832 497.251C142.777 497.822 142.887 498.397 143.146 498.903C143.722 498.782 144.255 498.495 144.685 498.075C145.784 497.001 148.89 494.746 150.986 495.006C151.499 495.006 152.275 495.329 153.111 496.74C156.803 503.03 153.946 516.254 152.085 518.433C151.074 518.893 147.293 518.08 144.348 516.776C143.985 516.616 143.598 516.528 143.205 516.515C143.231 516.936 143.358 517.342 143.573 517.699C143.788 518.055 144.084 518.35 144.435 518.556C146.288 519.592 148.332 520.199 150.429 520.335C151.625 520.395 152.797 519.966 153.697 519.139C156.452 516.484 158.884 502.907 155.338 495.774Z" fill="white"/>
<path d="M151.043 525.26C147.857 525.094 144.727 524.314 141.811 522.958C141.405 522.801 141.033 522.559 140.719 522.246C140.405 521.934 140.154 521.557 139.983 521.14C139.813 520.723 139.725 520.274 139.725 519.82C139.725 519.366 139.813 518.917 139.985 518.501C140.156 518.084 140.406 517.708 140.721 517.395C141.035 517.083 141.407 516.841 141.814 516.684C142.221 516.527 142.654 516.458 143.086 516.482C143.519 516.506 143.943 516.621 144.332 516.822C147.263 518.126 151.058 518.939 152.069 518.479C153.93 516.3 156.788 503.137 153.095 496.786C152.26 495.375 151.483 495.114 150.97 495.052C148.875 494.746 145.768 497.001 144.669 498.121C144.363 498.423 144.003 498.659 143.61 498.816C143.217 498.972 142.798 499.046 142.378 499.034C141.957 499.021 141.543 498.921 141.159 498.741C140.776 498.561 140.429 498.303 140.141 497.983C139.852 497.662 139.627 497.286 139.477 496.874C139.327 496.462 139.257 496.024 139.269 495.584C139.281 495.144 139.376 494.71 139.548 494.308C139.721 493.907 139.967 493.544 140.273 493.242C140.844 492.659 146.134 487.673 151.776 488.471C153.175 488.685 154.509 489.234 155.673 490.074C156.837 490.915 157.8 492.025 158.488 493.319C163.924 502.6 160.202 520.258 156.026 523.756C154.574 524.831 152.819 525.361 151.043 525.26V525.26Z" stroke="#263238" stroke-width="0.538494" stroke-linecap="round" stroke-linejoin="round"/>
<path d="M145.446 485.678H110.203V534.648H145.446V485.678Z" fill="white"/>
<path d="M124.637 485.678H110.203V534.648H124.637V485.678Z" fill="#2B65B1"/>
<path opacity="0.5" d="M124.637 485.678H110.203V534.648H124.637V485.678Z" fill="white"/>
<path d="M145.446 485.678H110.203V534.648H145.446V485.678Z" stroke="#263238" stroke-width="0.538494" stroke-linecap="round" stroke-linejoin="round"/>
<path d="M339.112 533.973H188.556L183.647 447.325C183.511 446.485 183.551 445.624 183.764 444.801C183.977 443.979 184.358 443.215 184.881 442.561C185.403 441.908 186.054 441.381 186.79 441.017C187.526 440.653 188.329 440.46 189.142 440.452H338.467C339.286 440.451 340.095 440.637 340.838 440.998C341.581 441.358 342.239 441.884 342.768 442.538C343.297 443.193 343.683 443.96 343.9 444.787C344.116 445.613 344.157 446.48 344.021 447.325L339.112 533.973Z" fill="#263238" stroke="#263238" stroke-width="0.538494" stroke-linecap="round" stroke-linejoin="round"/>
<path d="M195.971 442.523H337.382C338.181 442.514 338.972 442.688 339.7 443.033C340.427 443.378 341.074 443.886 341.595 444.52C342.116 445.154 342.497 445.9 342.714 446.705C342.93 447.51 342.976 448.355 342.848 449.181" stroke="white" stroke-width="0.538494" stroke-linecap="round" stroke-linejoin="round"/>
<path d="M184.746 447.816C184.864 446.366 185.5 445.016 186.526 444.035C187.553 443.054 188.895 442.514 190.285 442.523" stroke="white" stroke-width="0.538494" stroke-linecap="round" stroke-linejoin="round"/>
<path d="M339.741 525.536H187.926V533.973H339.741V525.536Z" fill="white" stroke="#263238" stroke-width="0.538494" stroke-linecap="round" stroke-linejoin="round"/>
<path d="M263.291 494.3C269.232 494.3 274.047 491.278 274.047 487.55C274.047 483.822 269.232 480.8 263.291 480.8C257.351 480.8 252.535 483.822 252.535 487.55C252.535 491.278 257.351 494.3 263.291 494.3Z" fill="white" stroke="#263238" stroke-width="0.538494" stroke-linecap="round" stroke-linejoin="round"/>
<path d="M568.727 532.977H3.28711V547.351H568.727V532.977Z" fill="#263238"/>
<path d="M422.114 0H150.091C140.922 0 133.488 7.78211 133.488 17.3818V180.783C133.488 190.383 140.922 198.165 150.091 198.165H422.114C431.283 198.165 438.717 190.383 438.717 180.783V17.3818C438.717 7.78211 431.283 0 422.114 0Z" fill="#2B65B1"/>
<path d="M293.281 113.879C317.956 109.728 334.745 85.4209 330.779 59.5882C326.814 33.7556 303.596 16.1797 278.921 20.3313C254.245 24.4829 237.457 48.7899 241.422 74.6225C245.388 100.455 268.606 118.031 293.281 113.879Z" fill="#263238"/>
<path d="M285.759 75.8631L270.68 96.1291C270.167 96.9727 269.462 97.6696 268.628 98.157C267.794 98.6444 266.857 98.907 265.902 98.9212C264.592 98.9399 263.328 98.4161 262.385 97.4638C261.906 97.0035 261.527 96.4405 261.274 95.8131C261.021 95.1856 260.9 94.5085 260.92 93.8279C260.967 92.3035 261.481 90.8353 262.385 89.6396L279.575 67.3793L263.455 45.1035C262.706 44.0581 262.295 42.7897 262.283 41.483C262.279 40.7036 262.429 39.9319 262.724 39.2163C263.02 38.5008 263.453 37.857 263.997 37.3254C264.509 36.7666 265.123 36.3221 265.803 36.0188C266.483 35.7156 267.215 35.5599 267.954 35.5612C268.901 35.5772 269.828 35.8412 270.652 36.3289C271.477 36.8166 272.171 37.5126 272.673 38.3533L287.239 58.4352L301.893 38.6908C302.417 37.7697 303.149 36.998 304.026 36.4441C304.903 35.8901 305.896 35.5711 306.919 35.5152C307.554 35.5135 308.182 35.6489 308.764 35.9128C309.347 36.1768 309.871 36.5637 310.304 37.0493C310.766 37.5045 311.134 38.0536 311.386 38.663C311.638 39.2723 311.768 39.9291 311.769 40.5932C311.754 41.7814 311.362 42.9307 310.656 43.8609L293.408 66.965L310.07 89.9772C310.857 91.0058 311.295 92.2796 311.315 93.5977C311.32 94.36 311.166 95.1142 310.865 95.8082C310.564 96.5022 310.123 97.1194 309.571 97.6172C308.496 98.6996 307.062 99.3044 305.571 99.3047C304.619 99.2924 303.686 99.0303 302.857 98.5425C302.027 98.0547 301.328 97.3567 300.823 96.5126L285.759 75.8631Z" fill="white"/>
<path d="M372.32 163.846H199.827C196.329 163.846 192.975 162.392 190.502 159.802C188.028 157.213 186.639 153.701 186.639 150.039C186.639 146.377 188.028 142.865 190.502 140.276C192.975 137.687 196.329 136.232 199.827 136.232H372.32C375.818 136.232 379.172 137.687 381.645 140.276C384.119 142.865 385.508 146.377 385.508 150.039C385.508 153.701 384.119 157.213 381.645 159.802C379.172 162.392 375.818 163.846 372.32 163.846Z" fill="white"/>
<path d="M223.464 154.488C223.349 154.488 223.235 154.464 223.129 154.416C223.023 154.369 222.928 154.299 222.849 154.212C222.762 154.122 222.694 154.014 222.648 153.895C222.603 153.777 222.581 153.649 222.585 153.522C222.585 153.305 222.64 153.093 222.746 152.908L224.065 150.76H221.368C221.244 150.767 221.119 150.746 221.003 150.698C220.887 150.65 220.782 150.577 220.694 150.484C220.544 150.3 220.461 150.066 220.461 149.824C220.461 149.582 220.544 149.348 220.694 149.165C220.782 149.071 220.887 148.998 221.003 148.95C221.119 148.903 221.244 148.882 221.368 148.888L224.021 148.965L222.849 146.971C222.731 146.766 222.665 146.534 222.658 146.296C222.655 146.168 222.676 146.041 222.722 145.922C222.767 145.803 222.835 145.695 222.922 145.605C223.004 145.518 223.102 145.448 223.21 145.401C223.318 145.353 223.435 145.329 223.552 145.329C223.716 145.327 223.877 145.375 224.015 145.468C224.153 145.56 224.262 145.694 224.329 145.851L225.618 148.259L226.849 145.958C226.927 145.779 227.05 145.626 227.205 145.515C227.36 145.404 227.541 145.34 227.728 145.329C227.843 145.329 227.957 145.354 228.063 145.401C228.169 145.449 228.264 145.518 228.344 145.605C228.43 145.69 228.498 145.792 228.543 145.906C228.588 146.019 228.61 146.142 228.608 146.265C228.606 146.483 228.545 146.696 228.432 146.879L227.142 149.042L229.824 148.965C229.949 148.957 230.073 148.978 230.19 149.026C230.306 149.073 230.411 149.147 230.498 149.241C230.649 149.425 230.731 149.659 230.731 149.901C230.731 150.143 230.649 150.377 230.498 150.561C230.411 150.655 230.306 150.728 230.19 150.776C230.073 150.824 229.949 150.844 229.824 150.837H227.113L228.314 152.8C228.45 153.038 228.526 153.307 228.534 153.583C228.538 153.707 228.519 153.831 228.476 153.947C228.433 154.063 228.368 154.169 228.285 154.258C228.208 154.344 228.115 154.413 228.012 154.46C227.908 154.508 227.797 154.533 227.684 154.534C227.503 154.529 227.327 154.471 227.176 154.365C227.025 154.259 226.907 154.11 226.834 153.936L225.618 151.681L224.402 153.936C224.314 154.113 224.178 154.26 224.012 154.358C223.845 154.456 223.655 154.502 223.464 154.488Z" fill="black"/>
<path d="M236.917 154.488C236.802 154.488 236.688 154.464 236.582 154.416C236.476 154.369 236.381 154.299 236.302 154.212C236.215 154.122 236.147 154.014 236.101 153.895C236.056 153.777 236.034 153.649 236.038 153.522C236.038 153.306 236.093 153.093 236.199 152.908L237.518 150.76H234.822C234.697 150.767 234.572 150.746 234.456 150.698C234.34 150.65 234.235 150.577 234.148 150.484C233.997 150.3 233.914 150.066 233.914 149.824C233.914 149.582 233.997 149.348 234.148 149.165C234.235 149.071 234.34 148.998 234.456 148.951C234.572 148.903 234.697 148.882 234.822 148.888L237.474 148.965L236.228 146.894C236.111 146.69 236.045 146.457 236.038 146.219C236.034 146.091 236.056 145.964 236.101 145.845C236.147 145.727 236.215 145.619 236.302 145.529C236.384 145.441 236.482 145.371 236.59 145.324C236.698 145.277 236.814 145.252 236.932 145.253C237.096 145.25 237.257 145.298 237.395 145.391C237.533 145.484 237.642 145.617 237.708 145.774L238.998 148.183L240.229 145.882C240.306 145.702 240.429 145.549 240.584 145.438C240.74 145.327 240.921 145.263 241.108 145.253C241.223 145.253 241.337 145.277 241.443 145.324C241.549 145.372 241.644 145.441 241.724 145.529C241.81 145.613 241.877 145.715 241.923 145.829C241.968 145.943 241.99 146.065 241.987 146.188C241.985 146.406 241.924 146.619 241.812 146.802L240.522 148.965L243.204 148.888C243.328 148.881 243.453 148.901 243.57 148.949C243.686 148.997 243.791 149.07 243.878 149.165C244.028 149.348 244.111 149.582 244.111 149.824C244.111 150.066 244.028 150.3 243.878 150.484C243.791 150.578 243.686 150.652 243.57 150.699C243.453 150.747 243.328 150.768 243.204 150.76H240.493L241.694 152.724C241.83 152.961 241.906 153.23 241.914 153.506C241.918 153.631 241.898 153.754 241.856 153.87C241.813 153.986 241.748 154.092 241.665 154.181C241.588 154.267 241.495 154.336 241.392 154.384C241.288 154.431 241.177 154.456 241.064 154.457C240.882 154.455 240.705 154.397 240.554 154.29C240.403 154.184 240.285 154.034 240.214 153.859L238.998 151.604L237.782 153.859C237.71 154.039 237.59 154.194 237.437 154.305C237.284 154.417 237.103 154.48 236.917 154.488Z" fill="black"/>
<path d="M250.368 154.488C250.253 154.488 250.139 154.464 250.033 154.416C249.928 154.369 249.832 154.299 249.753 154.212C249.666 154.122 249.598 154.014 249.553 153.895C249.507 153.777 249.486 153.649 249.489 153.522C249.489 153.306 249.545 153.093 249.65 152.908L250.969 150.76H248.273C248.148 150.767 248.024 150.746 247.907 150.698C247.791 150.65 247.686 150.577 247.599 150.484C247.448 150.3 247.365 150.066 247.365 149.824C247.365 149.582 247.448 149.348 247.599 149.165C247.686 149.071 247.791 148.998 247.907 148.951C248.024 148.903 248.148 148.882 248.273 148.888L250.925 148.965L249.68 146.894C249.562 146.69 249.496 146.457 249.489 146.219C249.486 146.091 249.507 145.964 249.553 145.845C249.598 145.727 249.666 145.619 249.753 145.529C249.835 145.441 249.933 145.371 250.041 145.324C250.149 145.277 250.266 145.252 250.383 145.253C250.547 145.25 250.708 145.298 250.846 145.391C250.984 145.484 251.093 145.617 251.16 145.774L252.449 148.183L253.68 145.882C253.758 145.702 253.881 145.549 254.036 145.438C254.191 145.327 254.372 145.263 254.559 145.253C254.674 145.253 254.788 145.277 254.894 145.324C255 145.372 255.095 145.441 255.175 145.529C255.261 145.613 255.329 145.715 255.374 145.829C255.42 145.943 255.442 146.065 255.439 146.188C255.437 146.406 255.376 146.619 255.263 146.802L253.973 148.965L256.655 148.888C256.78 148.881 256.904 148.901 257.021 148.949C257.137 148.997 257.242 149.07 257.329 149.165C257.48 149.348 257.562 149.582 257.562 149.824C257.562 150.066 257.48 150.3 257.329 150.484C257.242 150.578 257.137 150.652 257.021 150.699C256.904 150.747 256.78 150.768 256.655 150.76H253.944L255.145 152.724C255.281 152.961 255.357 153.23 255.365 153.506C255.37 153.631 255.35 153.754 255.307 153.87C255.264 153.986 255.199 154.092 255.116 154.181C255.039 154.267 254.946 154.336 254.843 154.384C254.74 154.431 254.628 154.456 254.515 154.457C254.334 154.455 254.156 154.397 254.005 154.29C253.855 154.184 253.736 154.034 253.665 153.859L252.449 151.604L251.233 153.859C251.161 154.039 251.041 154.194 250.888 154.305C250.735 154.417 250.555 154.48 250.368 154.488Z" fill="black"/>
<path d="M263.88 154.488C263.765 154.488 263.651 154.464 263.545 154.416C263.439 154.369 263.344 154.299 263.265 154.212C263.178 154.122 263.11 154.014 263.064 153.895C263.019 153.777 262.997 153.649 263.001 153.522C263.001 153.306 263.056 153.093 263.162 152.908L264.481 150.76H261.784C261.66 150.767 261.535 150.746 261.419 150.698C261.303 150.65 261.198 150.577 261.11 150.484C260.96 150.3 260.877 150.066 260.877 149.824C260.877 149.582 260.96 149.348 261.11 149.165C261.198 149.071 261.303 148.998 261.419 148.951C261.535 148.903 261.66 148.882 261.784 148.888L264.437 148.965L263.191 146.894C263.074 146.69 263.008 146.457 263.001 146.219C262.997 146.091 263.019 145.964 263.064 145.845C263.11 145.727 263.178 145.619 263.265 145.529C263.347 145.441 263.445 145.371 263.553 145.324C263.661 145.277 263.777 145.252 263.895 145.253C264.059 145.25 264.22 145.298 264.358 145.391C264.496 145.484 264.605 145.617 264.671 145.774L265.961 148.183L267.192 145.882C267.269 145.702 267.392 145.549 267.547 145.438C267.702 145.327 267.884 145.263 268.071 145.253C268.186 145.253 268.3 145.277 268.406 145.324C268.512 145.372 268.607 145.441 268.687 145.529C268.772 145.613 268.84 145.715 268.886 145.829C268.931 145.943 268.953 146.065 268.95 146.188C268.948 146.406 268.887 146.619 268.774 146.802L267.485 148.965L270.167 148.888C270.291 148.881 270.416 148.901 270.533 148.949C270.649 148.997 270.754 149.07 270.841 149.165C270.991 149.348 271.074 149.582 271.074 149.824C271.074 150.066 270.991 150.3 270.841 150.484C270.754 150.578 270.649 150.652 270.533 150.699C270.416 150.747 270.291 150.768 270.167 150.76H267.456L268.657 152.724C268.793 152.961 268.868 153.23 268.877 153.506C268.881 153.631 268.861 153.754 268.818 153.87C268.776 153.986 268.711 154.092 268.628 154.181C268.551 154.267 268.458 154.336 268.354 154.384C268.251 154.431 268.14 154.456 268.027 154.457C267.846 154.453 267.669 154.394 267.519 154.288C267.368 154.182 267.25 154.033 267.177 153.859L265.961 151.604L264.745 153.859C264.672 154.039 264.553 154.194 264.4 154.305C264.247 154.417 264.066 154.48 263.88 154.488Z" fill="black"/>
<path d="M277.273 154.488C277.157 154.488 277.044 154.464 276.938 154.416C276.832 154.369 276.736 154.299 276.657 154.212C276.57 154.122 276.502 154.014 276.457 153.895C276.412 153.777 276.39 153.649 276.393 153.522C276.4 153.307 276.455 153.096 276.555 152.908L277.873 150.76H275.177C275.052 150.767 274.928 150.746 274.812 150.698C274.695 150.65 274.59 150.577 274.503 150.484C274.352 150.3 274.27 150.066 274.27 149.824C274.27 149.582 274.352 149.348 274.503 149.165C274.59 149.071 274.695 148.998 274.812 148.951C274.928 148.903 275.052 148.882 275.177 148.888L277.829 148.965L276.584 146.894C276.466 146.69 276.401 146.457 276.393 146.219C276.39 146.091 276.412 145.964 276.457 145.845C276.502 145.727 276.57 145.619 276.657 145.529C276.739 145.441 276.837 145.371 276.946 145.324C277.054 145.277 277.17 145.252 277.287 145.253C277.451 145.25 277.612 145.298 277.751 145.391C277.889 145.484 277.998 145.617 278.064 145.774L279.353 148.183L280.584 145.882C280.662 145.702 280.785 145.549 280.94 145.438C281.095 145.327 281.276 145.263 281.464 145.253C281.579 145.251 281.693 145.274 281.799 145.322C281.906 145.37 282.001 145.44 282.079 145.529C282.165 145.613 282.233 145.715 282.278 145.829C282.324 145.943 282.346 146.065 282.343 146.188C282.341 146.406 282.28 146.619 282.167 146.802L280.877 148.965L283.559 148.888C283.684 148.881 283.809 148.901 283.925 148.949C284.042 148.997 284.147 149.07 284.233 149.165C284.384 149.348 284.467 149.582 284.467 149.824C284.467 150.066 284.384 150.3 284.233 150.484C284.147 150.578 284.042 150.652 283.925 150.699C283.809 150.747 283.684 150.768 283.559 150.76H280.848L282.05 152.724C282.185 152.961 282.261 153.23 282.27 153.506C282.274 153.631 282.254 153.754 282.211 153.87C282.168 153.986 282.103 154.092 282.02 154.181C281.943 154.267 281.85 154.336 281.747 154.384C281.644 154.431 281.532 154.456 281.42 154.457C281.238 154.453 281.062 154.394 280.911 154.288C280.761 154.182 280.642 154.033 280.57 153.859L279.353 151.604L278.137 153.859C278.065 154.039 277.945 154.194 277.792 154.305C277.639 154.417 277.459 154.48 277.273 154.488Z" fill="black"/>
<path d="M290.726 154.488C290.611 154.488 290.497 154.464 290.391 154.416C290.285 154.369 290.19 154.299 290.11 154.212C290.024 154.122 289.955 154.014 289.91 153.895C289.865 153.777 289.843 153.649 289.846 153.522C289.853 153.307 289.908 153.096 290.008 152.908L291.327 150.76H288.645C288.518 150.768 288.391 150.747 288.272 150.7C288.153 150.652 288.046 150.579 287.956 150.484C287.805 150.3 287.723 150.066 287.723 149.824C287.723 149.582 287.805 149.348 287.956 149.165C288.046 149.07 288.153 148.996 288.272 148.949C288.391 148.901 288.518 148.881 288.645 148.888L291.283 148.965L290.037 146.894C289.919 146.69 289.854 146.457 289.846 146.219C289.843 146.091 289.865 145.964 289.91 145.845C289.955 145.727 290.024 145.619 290.11 145.529C290.192 145.441 290.29 145.371 290.399 145.324C290.507 145.277 290.623 145.252 290.74 145.253C290.904 145.25 291.066 145.298 291.204 145.391C291.342 145.484 291.451 145.617 291.517 145.774L292.807 148.183L294.038 145.882C294.115 145.702 294.238 145.549 294.393 145.438C294.548 145.327 294.729 145.263 294.917 145.253C295.032 145.251 295.147 145.274 295.253 145.322C295.359 145.37 295.454 145.44 295.532 145.529C295.618 145.613 295.686 145.715 295.731 145.829C295.777 145.943 295.799 146.065 295.796 146.188C295.794 146.406 295.733 146.619 295.62 146.802L294.331 148.965L297.012 148.888C297.137 148.881 297.262 148.901 297.378 148.949C297.495 148.997 297.6 149.07 297.686 149.165C297.837 149.348 297.92 149.582 297.92 149.824C297.92 150.066 297.837 150.3 297.686 150.484C297.6 150.578 297.495 150.652 297.378 150.699C297.262 150.747 297.137 150.768 297.012 150.76H294.301L295.503 152.724C295.638 152.961 295.714 153.23 295.723 153.506C295.727 153.631 295.707 153.754 295.664 153.87C295.621 153.986 295.557 154.092 295.474 154.181C295.396 154.267 295.303 154.336 295.2 154.384C295.097 154.431 294.986 154.456 294.873 154.457C294.691 154.453 294.515 154.394 294.364 154.288C294.214 154.182 294.095 154.033 294.023 153.859L292.807 151.604L291.59 153.859C291.518 154.039 291.398 154.194 291.245 154.305C291.092 154.417 290.912 154.48 290.726 154.488Z" fill="black"/>
<path d="M304.179 154.488C304.064 154.488 303.95 154.464 303.844 154.416C303.738 154.369 303.643 154.299 303.563 154.212C303.477 154.122 303.409 154.014 303.363 153.895C303.318 153.777 303.296 153.649 303.3 153.522C303.299 153.306 303.355 153.093 303.461 152.908L304.78 150.76H302.083C301.959 150.767 301.834 150.746 301.718 150.698C301.602 150.65 301.496 150.577 301.409 150.484C301.259 150.3 301.176 150.066 301.176 149.824C301.176 149.582 301.259 149.348 301.409 149.165C301.496 149.071 301.602 148.998 301.718 148.951C301.834 148.903 301.959 148.882 302.083 148.888L304.736 148.965L303.446 146.971C303.329 146.766 303.263 146.534 303.256 146.296C303.252 146.168 303.274 146.041 303.319 145.922C303.365 145.803 303.433 145.695 303.519 145.605C303.601 145.518 303.7 145.448 303.808 145.401C303.916 145.353 304.032 145.329 304.15 145.329C304.314 145.327 304.475 145.375 304.613 145.468C304.751 145.56 304.86 145.694 304.926 145.851L306.216 148.259L307.447 145.958C307.524 145.779 307.647 145.626 307.802 145.515C307.957 145.404 308.138 145.34 308.326 145.329C308.441 145.327 308.556 145.351 308.662 145.399C308.768 145.446 308.863 145.517 308.941 145.605C309.027 145.69 309.095 145.792 309.141 145.906C309.186 146.019 309.208 146.142 309.205 146.265C309.203 146.483 309.142 146.696 309.029 146.879L307.74 149.042L310.421 148.965C310.546 148.957 310.671 148.978 310.787 149.026C310.904 149.073 311.009 149.147 311.096 149.241C311.246 149.425 311.329 149.659 311.329 149.901C311.329 150.143 311.246 150.377 311.096 150.561C311.009 150.655 310.904 150.728 310.787 150.776C310.671 150.824 310.546 150.844 310.421 150.837H307.71L308.912 152.8C309.048 153.038 309.123 153.307 309.132 153.583C309.136 153.707 309.116 153.831 309.073 153.947C309.031 154.063 308.966 154.169 308.883 154.258C308.806 154.344 308.713 154.413 308.609 154.46C308.506 154.508 308.395 154.533 308.282 154.534C308.101 154.529 307.924 154.471 307.774 154.365C307.623 154.259 307.505 154.11 307.432 153.936L306.216 151.681L304.999 153.936C304.92 154.095 304.803 154.229 304.659 154.326C304.515 154.423 304.35 154.479 304.179 154.488Z" fill="black"/>
<path d="M317.63 154.488C317.515 154.488 317.401 154.464 317.296 154.416C317.19 154.369 317.094 154.3 317.015 154.212C316.928 154.122 316.86 154.014 316.815 153.896C316.769 153.777 316.748 153.65 316.751 153.522C316.758 153.307 316.813 153.097 316.912 152.908L318.231 150.76H315.55C315.425 150.77 315.299 150.751 315.182 150.703C315.066 150.655 314.961 150.58 314.875 150.484C314.716 150.305 314.627 150.07 314.627 149.825C314.627 149.58 314.716 149.344 314.875 149.165C314.961 149.069 315.066 148.994 315.182 148.946C315.299 148.899 315.425 148.879 315.55 148.889L318.187 148.966L316.942 146.894C316.824 146.69 316.759 146.458 316.751 146.219C316.747 146.094 316.767 145.969 316.811 145.852C316.854 145.735 316.919 145.628 317.002 145.538C317.086 145.448 317.186 145.376 317.296 145.327C317.406 145.278 317.525 145.253 317.645 145.253C317.809 145.25 317.97 145.298 318.108 145.391C318.247 145.484 318.356 145.617 318.422 145.774L319.711 148.183L320.942 145.882C321.02 145.703 321.143 145.549 321.298 145.439C321.453 145.328 321.634 145.263 321.821 145.253C321.937 145.249 322.052 145.272 322.158 145.319C322.265 145.367 322.36 145.439 322.437 145.529C322.523 145.613 322.591 145.716 322.636 145.829C322.682 145.943 322.704 146.065 322.701 146.189C322.699 146.407 322.638 146.619 322.525 146.802L321.235 148.966L323.917 148.889C324.042 148.881 324.167 148.902 324.283 148.949C324.399 148.997 324.504 149.071 324.591 149.165C324.742 149.349 324.824 149.583 324.824 149.825C324.824 150.067 324.742 150.301 324.591 150.484C324.504 150.579 324.399 150.652 324.283 150.7C324.167 150.747 324.042 150.768 323.917 150.76H321.206L322.408 152.724C322.543 152.961 322.619 153.23 322.627 153.507C322.631 153.627 322.612 153.748 322.572 153.861C322.531 153.974 322.47 154.078 322.391 154.167C322.312 154.255 322.217 154.326 322.112 154.376C322.007 154.426 321.893 154.454 321.777 154.458C321.596 154.453 321.42 154.394 321.269 154.288C321.119 154.182 321 154.034 320.928 153.859L319.711 151.604L318.495 153.859C318.423 154.039 318.303 154.194 318.15 154.305C317.997 154.417 317.817 154.48 317.63 154.488Z" fill="black"/>
<path d="M331.084 154.488C330.968 154.488 330.855 154.464 330.749 154.416C330.643 154.369 330.547 154.3 330.468 154.212C330.381 154.122 330.313 154.014 330.268 153.896C330.222 153.777 330.201 153.65 330.204 153.522C330.211 153.307 330.266 153.097 330.365 152.908L331.684 150.76H328.988C328.865 150.768 328.743 150.747 328.629 150.699C328.515 150.652 328.412 150.578 328.329 150.484C328.169 150.305 328.08 150.07 328.08 149.825C328.08 149.58 328.169 149.344 328.329 149.165C328.412 149.071 328.515 148.998 328.629 148.95C328.743 148.902 328.865 148.881 328.988 148.889L331.64 148.966L330.395 146.894C330.277 146.69 330.212 146.458 330.204 146.219C330.2 146.094 330.221 145.969 330.264 145.852C330.307 145.735 330.372 145.628 330.455 145.538C330.539 145.448 330.639 145.376 330.749 145.327C330.86 145.278 330.978 145.253 331.098 145.253C331.262 145.25 331.423 145.298 331.562 145.391C331.7 145.484 331.809 145.617 331.875 145.774L333.164 148.183L334.395 145.882C334.473 145.703 334.596 145.549 334.751 145.439C334.906 145.328 335.087 145.263 335.275 145.253C335.39 145.249 335.505 145.272 335.612 145.319C335.718 145.367 335.813 145.439 335.89 145.529C335.976 145.613 336.044 145.716 336.089 145.829C336.135 145.943 336.157 146.065 336.154 146.189C336.152 146.407 336.091 146.619 335.978 146.802L334.688 148.966L337.37 148.889C337.495 148.881 337.62 148.902 337.736 148.949C337.852 148.997 337.958 149.071 338.044 149.165C338.195 149.349 338.278 149.583 338.278 149.825C338.278 150.067 338.195 150.301 338.044 150.484C337.958 150.579 337.852 150.652 337.736 150.7C337.62 150.747 337.495 150.768 337.37 150.76H334.659L335.861 152.724C335.996 152.961 336.072 153.23 336.081 153.507C336.084 153.627 336.066 153.748 336.025 153.861C335.984 153.974 335.923 154.078 335.844 154.167C335.765 154.255 335.67 154.326 335.565 154.376C335.46 154.426 335.346 154.454 335.231 154.458C335.049 154.453 334.873 154.394 334.722 154.288C334.572 154.182 334.453 154.034 334.381 153.859L333.164 151.604L331.948 153.859C331.876 154.039 331.756 154.194 331.603 154.305C331.45 154.417 331.27 154.48 331.084 154.488Z" fill="black"/>
<path d="M344.476 154.488C344.361 154.488 344.247 154.464 344.141 154.416C344.035 154.369 343.94 154.3 343.861 154.212C343.774 154.122 343.706 154.014 343.66 153.896C343.615 153.777 343.593 153.65 343.597 153.522C343.604 153.307 343.659 153.097 343.758 152.908L345.077 150.76H342.381C342.258 150.768 342.135 150.747 342.021 150.699C341.907 150.652 341.805 150.578 341.721 150.484C341.561 150.305 341.473 150.07 341.473 149.825C341.473 149.58 341.561 149.344 341.721 149.165C341.805 149.071 341.907 148.998 342.021 148.95C342.135 148.902 342.258 148.881 342.381 148.889L345.033 148.966L343.787 146.894C343.67 146.69 343.604 146.458 343.597 146.219C343.593 146.092 343.615 145.964 343.66 145.846C343.706 145.727 343.774 145.619 343.861 145.529C343.943 145.441 344.041 145.372 344.149 145.324C344.257 145.277 344.373 145.253 344.491 145.253C344.655 145.25 344.816 145.298 344.954 145.391C345.092 145.484 345.201 145.617 345.267 145.774L346.557 148.183L347.788 145.882C347.865 145.703 347.988 145.549 348.143 145.439C348.298 145.328 348.48 145.263 348.667 145.253C348.783 145.249 348.898 145.272 349.004 145.319C349.11 145.367 349.206 145.439 349.283 145.529C349.368 145.613 349.436 145.716 349.482 145.829C349.527 145.943 349.549 146.065 349.546 146.189C349.544 146.407 349.483 146.619 349.371 146.802L348.081 148.966L350.763 148.889C350.887 148.881 351.012 148.902 351.129 148.949C351.245 148.997 351.35 149.071 351.437 149.165C351.587 149.349 351.67 149.583 351.67 149.825C351.67 150.067 351.587 150.301 351.437 150.484C351.35 150.579 351.245 150.652 351.129 150.7C351.012 150.747 350.887 150.768 350.763 150.76H348.052L349.253 152.724C349.389 152.961 349.465 153.23 349.473 153.507C349.477 153.631 349.457 153.755 349.415 153.871C349.372 153.987 349.307 154.093 349.224 154.182C349.147 154.268 349.054 154.337 348.951 154.384C348.847 154.431 348.736 154.457 348.623 154.458C348.442 154.453 348.265 154.394 348.115 154.288C347.964 154.182 347.846 154.034 347.773 153.859L346.557 151.604L345.341 153.859C345.268 154.039 345.149 154.194 344.996 154.305C344.843 154.417 344.662 154.48 344.476 154.488Z" fill="black"/>
<path d="M390.578 188.423H408.5" stroke="white" stroke-width="1.61548" stroke-linecap="round" stroke-linejoin="round"/>
<path d="M142.002 50.2742V174.892C142.002 178.502 143.371 181.963 145.809 184.515C148.247 187.067 151.553 188.5 155 188.5H373.565" stroke="white" stroke-width="1.61548" stroke-linecap="round" stroke-linejoin="round"/>
<path d="M142.002 17.229V35.9148" stroke="white" stroke-width="1.61548" stroke-linecap="round" stroke-linejoin="round"/>
</svg>
