<svg width="18" height="18" viewBox="0 0 18 18" fill="none" xmlns="http://www.w3.org/2000/svg">
<path d="M7.30749 4.21992C7.94956 2.61924 8.2706 1.81889 8.79218 1.70797C8.92932 1.6788 9.07107 1.6788 9.20821 1.70797C9.72979 1.81889 10.0508 2.61924 10.6929 4.21992C11.058 5.1302 11.2406 5.58535 11.5822 5.89491C11.678 5.98174 11.782 6.05907 11.8928 6.12582C12.2876 6.3638 12.7805 6.40794 13.7663 6.49623C15.4351 6.64568 16.2695 6.7204 16.5243 7.19615C16.577 7.29468 16.6129 7.40136 16.6304 7.51175C16.7149 8.04478 16.1015 8.60284 14.8747 9.71896L14.534 10.0289C13.9605 10.5507 13.6737 10.8116 13.5078 11.1372C13.4083 11.3325 13.3416 11.5429 13.3104 11.7598C13.2582 12.1215 13.3422 12.5 13.5102 13.257L13.5702 13.5275C13.8714 14.885 14.022 15.5638 13.834 15.8974C13.6651 16.1971 13.3541 16.389 13.0105 16.4054C12.6279 16.4236 12.089 15.9844 11.011 15.106C10.3008 14.5273 9.94567 14.238 9.55146 14.1249C9.19121 14.0216 8.80918 14.0216 8.44894 14.1249C8.05473 14.238 7.69962 14.5273 6.98941 15.106C5.91144 15.9844 5.37245 16.4236 4.98993 16.4054C4.64633 16.389 4.33528 16.1971 4.16642 15.8974C3.97842 15.5638 4.12902 14.885 4.43022 13.5275L4.49023 13.257C4.65818 12.5 4.74216 12.1215 4.69004 11.7598C4.65878 11.5429 4.59207 11.3325 4.49257 11.1372C4.32669 10.8116 4.03992 10.5507 3.46637 10.0289L3.1257 9.71896C1.89891 8.60284 1.28552 8.04478 1.36999 7.51175C1.38749 7.40136 1.42337 7.29468 1.47614 7.19615C1.73094 6.7204 2.56532 6.64568 4.23408 6.49623C5.21986 6.40794 5.71276 6.3638 6.1076 6.12582C6.21834 6.05907 6.32236 5.98174 6.41818 5.89491C6.75979 5.58535 6.94236 5.1302 7.30749 4.21992Z" fill="#FFA500" stroke="#FFA500" stroke-width="2"/>
</svg>
