<svg width="33" height="32" viewBox="0 0 33 32" fill="none" xmlns="http://www.w3.org/2000/svg">
<path d="M16.4993 29.3333C23.8631 29.3333 29.8327 23.3638 29.8327 16C29.8327 8.63616 23.8631 2.66663 16.4993 2.66663C9.13555 2.66663 3.16602 8.63616 3.16602 16C3.16602 23.3638 9.13555 29.3333 16.4993 29.3333Z" stroke="#1B1C1E" stroke-width="1.5" stroke-linecap="round" stroke-linejoin="round"/>
<g opacity="0.4">
<path d="M11.1655 4H12.4988C9.89883 11.7867 9.89883 20.2133 12.4988 28H11.1655" stroke="#1B1C1E" stroke-width="1.5" stroke-linecap="round" stroke-linejoin="round"/>
<path d="M20.5 4C23.1 11.7867 23.1 20.2133 20.5 28" stroke="#1B1C1E" stroke-width="1.5" stroke-linecap="round" stroke-linejoin="round"/>
<path d="M4.5 21.3333V20C12.2867 22.6 20.7133 22.6 28.5 20V21.3333" stroke="#1B1C1E" stroke-width="1.5" stroke-linecap="round" stroke-linejoin="round"/>
<path d="M4.5 12.0002C12.2867 9.40017 20.7133 9.40017 28.5 12.0002" stroke="#1B1C1E" stroke-width="1.5" stroke-linecap="round" stroke-linejoin="round"/>
</g>
</svg>
