<svg width="55" height="56" viewBox="0 0 55 56" fill="none" xmlns="http://www.w3.org/2000/svg">
<rect y="0.5" width="55" height="55" rx="10" fill="#2B65B1"/>
<path d="M32.7375 15.5H22.2625C17.7125 15.5 15 18.2125 15 22.7625V33.225C15 37.7875 17.7125 40.5 22.2625 40.5H32.725C37.275 40.5 39.9875 37.7875 39.9875 33.2375V22.7625C40 18.2125 37.2875 15.5 32.7375 15.5ZM27.5 32.85C24.825 32.85 22.65 30.675 22.65 28C22.65 25.325 24.825 23.15 27.5 23.15C30.175 23.15 32.35 25.325 32.35 28C32.35 30.675 30.175 32.85 27.5 32.85ZM34.9 21.6C34.8375 21.75 34.75 21.8875 34.6375 22.0125C34.5125 22.125 34.375 22.2125 34.225 22.275C34.075 22.3375 33.9125 22.375 33.75 22.375C33.4125 22.375 33.1 22.25 32.8625 22.0125C32.75 21.8875 32.6625 21.75 32.6 21.6C32.5375 21.45 32.5 21.2875 32.5 21.125C32.5 20.9625 32.5375 20.8 32.6 20.65C32.6625 20.4875 32.75 20.3625 32.8625 20.2375C33.15 19.95 33.5875 19.8125 33.9875 19.9C34.075 19.9125 34.15 19.9375 34.225 19.975C34.3 20 34.375 20.0375 34.45 20.0875C34.5125 20.125 34.575 20.1875 34.6375 20.2375C34.75 20.3625 34.8375 20.4875 34.9 20.65C34.9625 20.8 35 20.9625 35 21.125C35 21.2875 34.9625 21.45 34.9 21.6Z" fill="white"/>
</svg>
