<svg width="55" height="56" viewBox="0 0 55 56" fill="none" xmlns="http://www.w3.org/2000/svg">
<rect y="0.5" width="55" height="55" rx="10" fill="#2B65B1"/>
<path fill-rule="evenodd" clip-rule="evenodd" d="M27.832 35.3396C29.4298 34.5354 36.25 30.7236 36.25 24.25C36.25 19.4175 32.3325 15.5 27.5 15.5C22.6675 15.5 18.75 19.4175 18.75 24.25C18.75 30.7236 25.5702 34.5354 27.168 35.3396C27.38 35.4463 27.62 35.4463 27.832 35.3396ZM27.5 28C29.5711 28 31.25 26.3211 31.25 24.25C31.25 22.1789 29.5711 20.5 27.5 20.5C25.4289 20.5 23.75 22.1789 23.75 24.25C23.75 26.3211 25.4289 28 27.5 28Z" fill="white"/>
<path d="M27.832 35.3396L27.6073 34.8929H27.6073L27.832 35.3396ZM27.168 35.3396L27.3927 34.8929H27.3927L27.168 35.3396ZM35.75 24.25C35.75 27.2997 34.1447 29.7502 32.2906 31.5633C30.4379 33.3751 28.3843 34.5018 27.6073 34.8929L28.0568 35.7862C28.8776 35.3731 31.0329 34.1919 32.9898 32.2783C34.9452 30.366 36.75 27.6739 36.75 24.25H35.75ZM27.5 16C32.0563 16 35.75 19.6937 35.75 24.25H36.75C36.75 19.1414 32.6086 15 27.5 15V16ZM19.25 24.25C19.25 19.6937 22.9437 16 27.5 16V15C22.3914 15 18.25 19.1414 18.25 24.25H19.25ZM27.3927 34.8929C26.6157 34.5018 24.5621 33.3751 22.7094 31.5633C20.8553 29.7502 19.25 27.2997 19.25 24.25H18.25C18.25 27.6739 20.0548 30.366 22.0102 32.2783C23.9671 34.1919 26.1224 35.3731 26.9432 35.7862L27.3927 34.8929ZM27.6073 34.8929C27.5366 34.9285 27.4634 34.9285 27.3927 34.8929L26.9432 35.7862C27.2966 35.9641 27.7034 35.9641 28.0568 35.7862L27.6073 34.8929ZM30.75 24.25C30.75 26.0449 29.2949 27.5 27.5 27.5V28.5C29.8472 28.5 31.75 26.5972 31.75 24.25H30.75ZM27.5 21C29.2949 21 30.75 22.4551 30.75 24.25H31.75C31.75 21.9028 29.8472 20 27.5 20V21ZM24.25 24.25C24.25 22.4551 25.7051 21 27.5 21V20C25.1528 20 23.25 21.9028 23.25 24.25H24.25ZM27.5 27.5C25.7051 27.5 24.25 26.0449 24.25 24.25H23.25C23.25 26.5972 25.1528 28.5 27.5 28.5V27.5Z" fill="white"/>
<path d="M37.2428 34.875C38.2302 35.4451 38.75 36.0917 38.75 36.75C38.75 37.4083 38.2302 38.0549 37.2428 38.625C36.2554 39.1951 34.8352 39.6685 33.125 39.9976C31.4148 40.3267 29.4748 40.5 27.5 40.5C25.5252 40.5 23.5852 40.3267 21.875 39.9976C20.1648 39.6685 18.7446 39.1951 17.7572 38.625C16.7698 38.0549 16.25 37.4083 16.25 36.75C16.25 36.0917 16.7698 35.4451 17.7572 34.875" stroke="white" stroke-linecap="round"/>
</svg>
