<svg width="457" height="293" viewBox="0 0 457 293" fill="none" xmlns="http://www.w3.org/2000/svg">
<g clip-path="url(#clip0_32_135)">
<path d="M427.177 258.885H311.696C307.495 258.88 303.467 257.21 300.496 254.241C297.525 251.271 295.854 247.246 295.85 243.046V60.9808C295.854 56.7816 297.525 52.7556 300.496 49.7863C303.467 46.8169 307.495 45.1467 311.696 45.142H427.177C431.378 45.1467 435.406 46.8169 438.377 49.7863C441.348 52.7556 443.019 56.7816 443.024 60.9808V243.046C443.019 247.246 441.348 251.271 438.377 254.241C435.406 257.21 431.378 258.88 427.177 258.885V258.885Z" fill="#E6E6E6"/>
<path d="M429.092 54.5931H311.479C310.164 54.5948 308.903 55.1177 307.973 56.0472C307.043 56.9767 306.52 58.2369 306.518 59.5514V243.991C306.52 245.305 307.043 246.565 307.973 247.495C308.903 248.424 310.164 248.947 311.479 248.949H429.092C430.407 248.947 431.668 248.424 432.598 247.495C433.528 246.565 434.051 245.305 434.053 243.991V59.5514C434.051 58.2369 433.528 56.9767 432.598 56.0472C431.668 55.1177 430.407 54.5948 429.092 54.5931V54.5931Z" fill="white"/>
<path d="M314.519 45.142C314.52 44.8207 314.648 44.5128 314.875 44.2856C315.102 44.0585 315.41 43.9307 315.732 43.9303H323.975C324.297 43.9303 324.605 44.058 324.833 44.2852C325.06 44.5124 325.188 44.8206 325.188 45.142C325.188 45.4634 325.06 45.7716 324.833 45.9988C324.605 46.226 324.297 46.3537 323.975 46.3537H315.732C315.41 46.3533 315.102 46.2255 314.875 45.9984C314.648 45.7712 314.52 45.4632 314.519 45.142Z" fill="#E6E6E6"/>
<path d="M328.097 45.142C328.098 44.8207 328.225 44.5128 328.453 44.2856C328.68 44.0585 328.988 43.9307 329.309 43.9303H337.553C337.875 43.9303 338.183 44.058 338.41 44.2852C338.638 44.5124 338.765 44.8206 338.765 45.142C338.765 45.4634 338.638 45.7716 338.41 45.9988C338.183 46.226 337.875 46.3537 337.553 46.3537H329.309C328.988 46.3533 328.68 46.2255 328.453 45.9984C328.225 45.7712 328.098 45.4632 328.097 45.142Z" fill="#E6E6E6"/>
<path d="M409.564 45.142C409.564 44.8207 409.692 44.5128 409.919 44.2856C410.147 44.0585 410.455 43.9307 410.776 43.9303H419.02C419.341 43.9303 419.65 44.058 419.877 44.2852C420.105 44.5124 420.232 44.8206 420.232 45.142C420.232 45.4634 420.105 45.7716 419.877 45.9988C419.65 46.226 419.341 46.3537 419.02 46.3537H410.776C410.455 46.3533 410.147 46.2255 409.919 45.9984C409.692 45.7712 409.564 45.4632 409.564 45.142V45.142Z" fill="#E6E6E6"/>
<path d="M386.584 245.149C386.584 246.424 386.559 247.694 386.501 248.949H311.479C310.164 248.947 308.903 248.424 307.973 247.495C307.043 246.565 306.52 245.305 306.518 243.991V151.156C328.859 154.763 349.186 166.203 363.856 183.426C378.527 200.649 386.584 222.53 386.584 245.149Z" fill="#F2F2F2"/>
<path d="M384.036 101.991H356.057C354.783 101.991 353.751 103.022 353.751 104.295V107.17C353.751 108.443 354.783 109.474 356.057 109.474H384.036C385.309 109.474 386.341 108.443 386.341 107.17V104.295C386.341 103.022 385.309 101.991 384.036 101.991Z" fill="#536DFE"/>
<path d="M401.819 116.958H338.274C337 116.958 335.968 117.99 335.968 119.262V122.138C335.968 123.41 337 124.442 338.274 124.442H401.819C403.092 124.442 404.124 123.41 404.124 122.138V119.262C404.124 117.99 403.092 116.958 401.819 116.958Z" fill="#E6E6E6"/>
<path d="M401.819 131.925H338.274C337 131.925 335.968 132.957 335.968 134.23V137.105C335.968 138.377 337 139.409 338.274 139.409H401.819C403.092 139.409 404.124 138.377 404.124 137.105V134.23C404.124 132.957 403.092 131.925 401.819 131.925Z" fill="#E6E6E6"/>
<path d="M390.938 236.344C390.573 236.361 390.213 236.265 389.904 236.07C389.596 235.875 389.355 235.59 389.215 235.254C389.074 234.918 389.04 234.546 389.118 234.19C389.195 233.834 389.381 233.51 389.648 233.262L389.77 232.778C389.754 232.739 389.738 232.701 389.722 232.662C389.355 231.795 388.74 231.057 387.954 230.538C387.168 230.02 386.247 229.745 385.305 229.749C384.364 229.752 383.444 230.034 382.662 230.558C381.881 231.082 381.271 231.825 380.91 232.695C379.469 236.164 377.635 239.639 377.183 243.307C376.984 244.928 377.068 246.572 377.431 248.165C374.046 240.785 372.288 232.764 372.277 224.645C372.276 222.608 372.389 220.572 372.616 218.548C372.804 216.888 373.063 215.24 373.396 213.604C375.21 204.727 379.105 196.406 384.762 189.326C387.499 187.833 389.713 185.537 391.105 182.748C391.609 181.745 391.966 180.674 392.163 179.57C391.854 179.61 391.54 179.636 391.232 179.656C391.135 179.661 391.034 179.666 390.938 179.671L390.902 179.673C390.562 179.688 390.226 179.605 389.933 179.433C389.639 179.262 389.402 179.009 389.249 178.706C389.096 178.403 389.034 178.062 389.071 177.724C389.107 177.386 389.24 177.066 389.454 176.803C389.588 176.639 389.721 176.475 389.855 176.311C390.057 176.058 390.265 175.81 390.467 175.557C390.491 175.533 390.513 175.508 390.533 175.481C390.766 175.193 390.999 174.909 391.232 174.621C390.807 173.961 390.235 173.409 389.561 173.007C387.227 171.641 384.007 172.587 382.321 174.697C380.63 176.807 380.311 179.767 380.899 182.403C381.476 184.647 382.432 186.775 383.724 188.698C383.597 188.86 383.465 189.017 383.339 189.179C381.025 192.152 379.009 195.345 377.318 198.712C377.729 194.94 377.239 191.125 375.887 187.58C374.516 184.276 371.948 181.493 369.686 178.637C366.969 175.206 361.398 176.703 360.92 181.053C360.915 181.095 360.911 181.137 360.906 181.179C361.242 181.368 361.571 181.569 361.893 181.782C362.297 182.052 362.61 182.438 362.791 182.889C362.973 183.339 363.013 183.834 362.908 184.309C362.803 184.783 362.557 185.215 362.202 185.547C361.847 185.879 361.4 186.097 360.92 186.171L360.871 186.178C360.991 187.388 361.202 188.588 361.504 189.766C362.378 193.055 363.922 196.128 366.04 198.792C368.158 201.457 370.803 203.655 373.811 205.25C374.008 205.351 374.201 205.452 374.398 205.548C372.7 210.359 371.635 215.37 371.229 220.455C370.999 223.456 371.013 226.47 371.27 229.468L371.254 229.361C370.606 226.028 368.827 223.02 366.217 220.845C362.34 217.662 356.864 216.49 352.682 213.932C352.237 213.647 351.72 213.494 351.192 213.493C350.664 213.492 350.146 213.642 349.701 213.925C349.255 214.208 348.899 214.612 348.676 215.091C348.452 215.569 348.371 216.101 348.44 216.625C348.446 216.662 348.451 216.699 348.457 216.736C349.081 216.99 349.688 217.282 350.275 217.612C350.611 217.801 350.939 218.002 351.261 218.215C351.665 218.485 351.979 218.87 352.16 219.321C352.341 219.772 352.382 220.267 352.276 220.742C352.171 221.216 351.925 221.648 351.57 221.98C351.216 222.312 350.769 222.529 350.288 222.604L350.239 222.611C350.204 222.616 350.173 222.621 350.138 222.626C351.203 225.168 352.698 227.508 354.558 229.543C356.855 232.007 359.631 233.976 362.716 235.329C365.801 236.682 369.131 237.391 372.5 237.412H372.505C373.419 241.384 374.744 245.251 376.459 248.949H390.584C390.634 248.792 390.68 248.63 390.725 248.473C389.418 248.556 388.105 248.477 386.817 248.241C387.865 246.955 388.913 245.66 389.961 244.375C389.984 244.351 390.006 244.325 390.027 244.299C390.558 243.641 391.095 242.988 391.627 242.33L391.627 242.33C391.655 240.313 391.424 238.302 390.938 236.344L390.938 236.344ZM374.763 204.541L374.77 204.531L374.763 204.552V204.541ZM371.634 232.731L371.513 232.458C371.518 232.261 371.518 232.063 371.513 231.861C371.513 231.805 371.502 231.75 371.502 231.694C371.548 232.043 371.588 232.392 371.639 232.741L371.634 232.731Z" fill="#CCCCCC"/>
<path d="M423.213 70.8766H317.358C317.129 70.8716 316.911 70.7771 316.751 70.6134C316.59 70.4498 316.501 70.2299 316.501 70.001C316.501 69.772 316.59 69.5522 316.751 69.3885C316.911 69.2249 317.129 69.1304 317.358 69.1254H423.213C423.442 69.1304 423.66 69.2249 423.82 69.3885C423.98 69.5522 424.07 69.772 424.07 70.001C424.07 70.2299 423.98 70.4498 423.82 70.6134C423.66 70.7771 423.442 70.8716 423.213 70.8766V70.8766Z" fill="#CACACA"/>
<path d="M323.006 66.5934C324.428 66.5934 325.58 65.4155 325.58 63.9625C325.58 62.5094 324.428 61.3315 323.006 61.3315C321.583 61.3315 320.431 62.5094 320.431 63.9625C320.431 65.4155 321.583 66.5934 323.006 66.5934Z" fill="#3F3D56"/>
<path d="M331.9 66.5934C333.322 66.5934 334.475 65.4155 334.475 63.9625C334.475 62.5094 333.322 61.3315 331.9 61.3315C330.478 61.3315 329.325 62.5094 329.325 63.9625C329.325 65.4155 330.478 66.5934 331.9 66.5934Z" fill="#3F3D56"/>
<path d="M340.795 66.5934C342.217 66.5934 343.37 65.4155 343.37 63.9625C343.37 62.5094 342.217 61.3315 340.795 61.3315C339.373 61.3315 338.22 62.5094 338.22 63.9625C338.22 65.4155 339.373 66.5934 340.795 66.5934Z" fill="#3F3D56"/>
<path d="M419.075 62.348H413.313C413.199 62.3503 413.09 62.3972 413.01 62.4788C412.93 62.5603 412.885 62.6699 412.885 62.7841C412.885 62.8983 412.93 63.0079 413.01 63.0895C413.09 63.171 413.199 63.2179 413.313 63.2202H419.075C419.19 63.2179 419.298 63.171 419.378 63.0895C419.458 63.0079 419.503 62.8983 419.503 62.7841C419.503 62.6699 419.458 62.5603 419.378 62.4788C419.298 62.3972 419.19 62.3503 419.075 62.348V62.348Z" fill="#3F3D56"/>
<path d="M419.075 63.985H413.313C413.199 63.9872 413.09 64.0342 413.01 64.1157C412.93 64.1972 412.885 64.3069 412.885 64.4211C412.885 64.5352 412.93 64.6449 413.01 64.7264C413.09 64.808 413.199 64.8549 413.313 64.8571H419.075C419.19 64.8549 419.298 64.808 419.378 64.7264C419.458 64.6449 419.503 64.5352 419.503 64.4211C419.503 64.3069 419.458 64.1972 419.378 64.1157C419.298 64.0342 419.19 63.9872 419.075 63.985V63.985Z" fill="#3F3D56"/>
<path d="M419.075 65.6198H413.313C413.199 65.622 413.09 65.6689 413.01 65.7505C412.93 65.832 412.885 65.9416 412.885 66.0558C412.885 66.17 412.93 66.2797 413.01 66.3612C413.09 66.4427 413.199 66.4897 413.313 66.4919H419.075C419.19 66.4897 419.298 66.4427 419.378 66.3612C419.458 66.2797 419.503 66.17 419.503 66.0558C419.503 65.9416 419.458 65.832 419.378 65.7505C419.298 65.6689 419.19 65.622 419.075 65.6198Z" fill="#3F3D56"/>
<path d="M247.326 151.225H185.954C185.086 151.226 184.254 151.572 183.64 152.186C183.027 152.801 182.683 153.633 182.684 154.501V251.402H250.604V154.501C250.604 154.071 250.52 153.645 250.355 153.247C250.19 152.85 249.949 152.488 249.644 152.184C249.34 151.88 248.979 151.638 248.581 151.474C248.183 151.309 247.757 151.225 247.326 151.225ZM216.846 206.283C214.927 206.274 213.089 205.508 211.732 204.151C210.375 202.795 209.608 200.958 209.599 199.039V187.863C209.601 185.943 210.365 184.102 211.724 182.745C213.083 181.388 214.925 180.626 216.846 180.626C218.767 180.626 220.61 181.388 221.969 182.745C223.328 184.102 224.092 185.943 224.093 187.863V199.039C224.085 200.958 223.318 202.795 221.961 204.151C220.604 205.508 218.766 206.274 216.846 206.283V206.283Z" fill="#E6E6E6"/>
<path d="M182.474 248.303V257.652C182.475 258.136 182.668 258.6 183.01 258.943C183.353 259.285 183.818 259.478 184.302 259.479H248.986C249.47 259.477 249.934 259.284 250.276 258.941C250.619 258.599 250.812 258.136 250.815 257.652V248.303L182.474 248.303Z" fill="#CCCCCC"/>
<path d="M348.953 0H86.6108C84.3568 0.00358394 82.1963 0.900087 80.6025 2.49305C79.0087 4.08601 78.1118 6.2455 78.1082 8.49829V185.438C78.1103 187.692 79.0068 189.852 80.6009 191.445C82.195 193.038 84.3564 193.934 86.6108 193.937H348.953C351.207 193.934 353.368 193.038 354.962 191.445C356.557 189.852 357.453 187.692 357.455 185.438V8.49829C357.452 6.2455 356.555 4.08601 354.961 2.49305C353.367 0.900087 351.207 0.00358254 348.953 0Z" fill="#E6E6E6"/>
<path d="M346.763 6.13818H88.8025C87.5957 6.1408 86.4392 6.62178 85.5868 7.47559C84.7343 8.32939 84.2555 9.48631 84.2554 10.6925V183.247C84.2574 184.452 84.7372 185.606 85.5895 186.458C86.4418 187.31 87.5972 187.79 88.8025 187.792H346.763C347.968 187.79 349.123 187.31 349.976 186.458C350.828 185.606 351.308 184.452 351.31 183.247V10.6925C351.31 9.48631 350.831 8.32939 349.979 7.47559C349.126 6.62178 347.97 6.1408 346.763 6.13818Z" fill="white"/>
<path d="M351.31 10.6925V183.247C351.308 184.452 350.828 185.606 349.976 186.458C349.124 187.31 347.968 187.79 346.763 187.792H255.8C245.738 178.464 237.482 167.362 231.448 155.042C231.051 154.248 230.673 153.445 230.314 152.633C224.816 140.708 221.486 127.9 220.482 114.809C220.416 114.006 220.359 113.203 220.321 112.39C220.198 110.311 220.141 108.204 220.141 106.088C220.123 92.0113 222.783 78.0597 227.978 64.976C228.29 64.1634 228.621 63.3602 228.962 62.5571C239.418 38.0023 258.312 17.9921 282.233 6.13818H346.763C347.97 6.1408 349.126 6.62178 349.979 7.47559C350.831 8.32939 351.31 9.48631 351.31 10.6925Z" fill="#536DFE"/>
<path d="M333.796 29.9123H92.4233C92.1722 29.9069 91.9333 29.8035 91.7577 29.6242C91.582 29.4448 91.4836 29.2039 91.4836 28.9529C91.4836 28.702 91.582 28.461 91.7577 28.2816C91.9333 28.1023 92.1722 27.9989 92.4233 27.9935H333.796C334.047 27.9989 334.286 28.1023 334.461 28.2816C334.637 28.461 334.735 28.702 334.735 28.9529C334.735 29.2039 334.637 29.4448 334.461 29.6242C334.286 29.8035 334.047 29.9069 333.796 29.9123V29.9123Z" fill="#CACACA"/>
<path d="M108.854 23.0951C111.961 23.0951 114.479 20.5218 114.479 17.3474C114.479 14.173 111.961 11.5996 108.854 11.5996C105.747 11.5996 103.229 14.173 103.229 17.3474C103.229 20.5218 105.747 23.0951 108.854 23.0951Z" fill="#3F3D56"/>
<path d="M128.287 23.0951C131.393 23.0951 133.912 20.5218 133.912 17.3474C133.912 14.173 131.393 11.5996 128.287 11.5996C125.18 11.5996 122.661 14.173 122.661 17.3474C122.661 20.5218 125.18 23.0951 128.287 23.0951Z" fill="#3F3D56"/>
<path d="M147.72 23.0951C150.826 23.0951 153.345 20.5218 153.345 17.3474C153.345 14.173 150.826 11.5996 147.72 11.5996C144.613 11.5996 142.094 14.173 142.094 17.3474C142.094 20.5218 144.613 23.0951 147.72 23.0951Z" fill="#3F3D56"/>
<path d="M322.095 13.0243H308.291C308.018 13.0297 307.757 13.1421 307.566 13.3375C307.374 13.5328 307.267 13.7954 307.267 14.069C307.267 14.3425 307.374 14.6052 307.566 14.8005C307.757 14.9958 308.018 15.1083 308.291 15.1137H322.095C322.369 15.1083 322.63 14.9958 322.821 14.8005C323.013 14.6052 323.12 14.3425 323.12 14.069C323.12 13.7954 323.013 13.5328 322.821 13.3375C322.63 13.1421 322.369 13.0297 322.095 13.0243V13.0243Z" fill="#3F3D56"/>
<path d="M322.095 16.9457H308.291C308.018 16.9511 307.757 17.0635 307.566 17.2589C307.374 17.4542 307.267 17.7168 307.267 17.9904C307.267 18.2639 307.374 18.5265 307.566 18.7219C307.757 18.9172 308.018 19.0296 308.291 19.0351H322.095C322.369 19.0296 322.63 18.9172 322.821 18.7219C323.013 18.5265 323.12 18.2639 323.12 17.9904C323.12 17.7168 323.013 17.4542 322.821 17.2589C322.63 17.0635 322.369 16.9511 322.095 16.9457V16.9457Z" fill="#3F3D56"/>
<path d="M322.095 20.8619H308.291C308.018 20.8673 307.757 20.9798 307.566 21.1751C307.374 21.3705 307.267 21.6331 307.267 21.9066C307.267 22.1802 307.374 22.4428 307.566 22.6381C307.757 22.8335 308.018 22.9459 308.291 22.9513H322.095C322.369 22.9459 322.63 22.8335 322.821 22.6381C323.013 22.4428 323.12 22.1802 323.12 21.9066C323.12 21.6331 323.013 21.3705 322.821 21.1751C322.63 20.9798 322.369 20.8673 322.095 20.8619V20.8619Z" fill="#3F3D56"/>
<path d="M166.328 85.9607H132.575C131.301 85.9607 130.269 86.9923 130.269 88.2649V91.8562C130.269 93.1287 131.301 94.1604 132.575 94.1604H166.328C167.602 94.1604 168.634 93.1287 168.634 91.8562V88.2649C168.634 86.9923 167.602 85.9607 166.328 85.9607Z" fill="#536DFE"/>
<path d="M185.813 102.36H113.091C111.818 102.36 110.785 103.392 110.785 104.664V108.255C110.785 109.528 111.818 110.56 113.091 110.56H185.813C187.086 110.56 188.118 109.528 188.118 108.255V104.664C188.118 103.392 187.086 102.36 185.813 102.36Z" fill="#E6E6E6"/>
<path d="M185.813 118.759H113.091C111.818 118.759 110.785 119.791 110.785 121.064V124.655C110.785 125.927 111.818 126.959 113.091 126.959H185.813C187.086 126.959 188.118 125.927 188.118 124.655V121.064C188.118 119.791 187.086 118.759 185.813 118.759Z" fill="#E6E6E6"/>
<path d="M117.097 177.899C117.103 181.276 116.501 184.627 115.32 187.792H88.8025C87.5972 187.79 86.4418 187.31 85.5895 186.458C84.7372 185.606 84.2574 184.452 84.2554 183.247V149.912C85.737 149.672 87.2355 149.552 88.7364 149.552C92.4608 149.552 96.1489 150.285 99.5899 151.71C103.031 153.134 106.157 155.222 108.791 157.854C111.425 160.487 113.514 163.612 114.939 167.051C116.364 170.49 117.097 174.176 117.097 177.899V177.899Z" fill="#536DFE"/>
<path opacity="0.2" d="M351.546 64.976V62.5571H310.981V34.5225H308.57V62.5571H262.078V34.5225H259.667V62.5571H228.962C228.621 63.3602 228.29 64.1634 227.978 64.976H259.667V112.39H220.321C220.359 113.203 220.416 114.006 220.482 114.809H259.667V152.633H230.314C230.673 153.445 231.051 154.249 231.448 155.042H259.667V186.837H262.078V155.042H308.57V186.837H310.981V155.042H351.546V152.633H310.981V152.633C310.981 147.666 311.96 142.747 313.862 138.158C315.763 133.569 318.551 129.4 322.065 125.887C325.579 122.375 329.751 119.589 334.342 117.688C338.933 115.787 343.854 114.809 348.824 114.809H351.546V112.39H310.981V64.976H351.546ZM308.57 152.633H262.078V114.809H308.57V152.633ZM308.57 112.39H262.078V111.445C262.078 99.1208 266.976 87.3012 275.695 78.5865C284.414 69.8718 296.24 64.976 308.57 64.976H308.57V112.39Z" fill="black"/>
<path d="M318.885 169.89C318.368 169.914 317.855 169.778 317.418 169.501C316.98 169.224 316.638 168.819 316.438 168.342C316.239 167.864 316.191 167.337 316.301 166.831C316.411 166.325 316.674 165.865 317.054 165.514C317.118 165.26 317.164 165.079 317.227 164.826C317.205 164.771 317.182 164.716 317.159 164.661C314.833 159.118 306.951 159.156 304.645 164.707C302.598 169.634 299.992 174.57 299.35 179.779C299.068 182.082 299.187 184.416 299.703 186.678C294.895 176.197 292.399 164.805 292.383 153.275C292.382 150.382 292.543 147.491 292.865 144.616C293.131 142.258 293.5 139.918 293.972 137.594C296.549 124.987 302.081 113.17 310.114 103.114C314.002 100.993 317.146 97.7328 319.123 93.7713C319.839 92.3473 320.345 90.8271 320.626 89.2582C320.187 89.3157 319.741 89.3516 319.303 89.3803C319.166 89.3875 319.022 89.3947 318.886 89.4019L318.834 89.4042C318.352 89.4258 317.874 89.3077 317.458 89.0641C317.041 88.8205 316.704 88.4618 316.487 88.0311C316.27 87.6005 316.182 87.1163 316.233 86.6368C316.285 86.1573 316.474 85.703 316.779 85.3285C316.968 85.0956 317.157 84.8628 317.347 84.6301C317.635 84.2707 317.929 83.9186 318.217 83.5593C318.25 83.5252 318.281 83.4891 318.311 83.4514C318.641 83.0418 318.972 82.6394 319.303 82.2298C318.699 81.2932 317.887 80.5086 316.93 79.9373C313.615 77.997 309.042 79.3408 306.648 82.3376C304.247 85.3343 303.794 89.5385 304.628 93.2826C305.34 96.4878 306.893 99.427 308.64 102.223C308.46 102.452 308.273 102.675 308.093 102.905C304.807 107.128 301.944 111.663 299.543 116.445C300.127 111.088 299.43 105.669 297.51 100.634C295.563 95.942 291.916 91.99 288.704 87.9334C284.845 83.0608 276.933 85.1874 276.253 91.3641C276.247 91.4239 276.24 91.4837 276.234 91.5434C276.711 91.8125 277.178 92.098 277.635 92.4001C278.209 92.7835 278.654 93.3312 278.911 93.9715C279.169 94.6119 279.226 95.315 279.077 95.9888C278.928 96.6625 278.578 97.2754 278.074 97.7472C277.571 98.219 276.936 98.5277 276.254 98.6329L276.184 98.6437C276.354 100.362 276.654 102.066 277.083 103.739C278.324 108.41 280.517 112.774 283.525 116.558C286.532 120.343 290.29 123.465 294.562 125.73C294.842 125.873 295.115 126.017 295.396 126.154C292.984 132.986 291.471 140.103 290.895 147.325C290.569 151.586 290.588 155.866 290.952 160.124L290.931 159.973C290.01 155.238 287.483 150.966 283.776 147.878C278.271 143.358 270.493 141.693 264.553 138.06C261.694 136.311 258.03 138.571 258.529 141.884C258.537 141.937 258.545 141.99 258.554 142.043C259.439 142.403 260.301 142.818 261.135 143.286C261.612 143.555 262.079 143.841 262.536 144.143C263.11 144.526 263.555 145.074 263.812 145.714C264.07 146.355 264.127 147.058 263.978 147.731C263.829 148.405 263.479 149.018 262.975 149.49C262.471 149.962 261.837 150.27 261.154 150.376L261.085 150.386C261.034 150.393 260.991 150.401 260.941 150.408C262.454 154.018 264.577 157.341 267.218 160.232C270.48 163.73 274.423 166.526 278.805 168.448C283.186 170.37 287.915 171.376 292.699 171.407H292.707C294.005 177.048 295.887 182.539 298.322 187.792H318.382C318.454 187.569 318.519 187.339 318.584 187.116C316.727 187.233 314.863 187.122 313.033 186.786C314.521 184.96 316.01 183.121 317.498 181.295C317.531 181.261 317.562 181.225 317.591 181.187C318.346 180.253 319.109 179.326 319.864 178.392L319.864 178.391C319.904 175.527 319.575 172.67 318.886 169.89L318.885 169.89ZM295.913 124.723L295.924 124.709L295.913 124.738V124.723ZM291.47 164.759L291.297 164.371C291.305 164.091 291.305 163.811 291.297 163.523C291.297 163.444 291.283 163.365 291.283 163.286C291.348 163.782 291.405 164.278 291.477 164.774L291.47 164.759Z" fill="#2F2E41"/>
<path d="M140.255 122.997V96.0495C140.255 91.9131 138.611 87.9461 135.684 85.0213C132.758 82.0964 128.789 80.4532 124.65 80.4532H67.5306C63.3921 80.4532 59.4232 82.0964 56.4968 85.0213C53.5705 87.9461 51.9265 91.9131 51.9265 96.0495V243.883C51.9265 248.02 53.5705 251.986 56.4968 254.911C59.4232 257.836 63.3921 259.479 67.5306 259.479H124.65C126.7 259.479 128.729 259.076 130.622 258.292C132.515 257.508 134.235 256.36 135.684 254.911C137.133 253.463 138.283 251.744 139.067 249.852C139.851 247.959 140.255 245.931 140.255 243.883V142.178C140.516 142.178 140.766 142.074 140.95 141.89C141.135 141.705 141.239 141.455 141.239 141.194V123.98C141.239 123.719 141.135 123.469 140.95 123.285C140.766 123.1 140.516 122.997 140.255 122.997V122.997Z" fill="#E6E6E6"/>
<path d="M136.934 96.1566V243.777C136.934 246.843 135.724 249.786 133.566 251.965C131.408 254.145 128.477 255.385 125.409 255.417C125.367 255.422 125.324 255.424 125.282 255.423H67.8839C64.7938 255.422 61.8303 254.195 59.6452 252.011C57.4601 249.827 56.2325 246.865 56.2322 243.777V96.1566C56.2325 93.068 57.4601 90.106 59.6452 87.922C61.8303 85.7381 64.7938 84.511 67.8839 84.5107H74.8494C74.507 85.3512 74.3765 86.2629 74.4694 87.1657C74.5623 88.0684 74.8757 88.9345 75.3822 89.6877C75.8886 90.4409 76.5725 91.0582 77.3736 91.4852C78.1748 91.9122 79.0687 92.1359 79.9766 92.1366H112.7C113.607 92.1341 114.5 91.9091 115.3 91.4815C116.1 91.0538 116.783 90.4365 117.288 89.6837C117.794 88.9309 118.107 88.0656 118.2 87.1637C118.293 86.2618 118.163 85.3509 117.822 84.5107H125.282C128.372 84.511 131.335 85.7381 133.52 87.922C135.706 90.106 136.933 93.068 136.934 96.1566Z" fill="white"/>
<path d="M125.553 250.866C125.553 252.396 125.505 253.913 125.409 255.417C125.367 255.422 125.324 255.423 125.282 255.423H67.8839C64.7938 255.422 61.8303 254.195 59.6452 252.011C57.4601 249.827 56.2325 246.865 56.2322 243.777V177.991C74.9334 178.933 92.5571 187.023 105.459 200.586C118.361 214.15 125.555 232.151 125.553 250.866V250.866Z" fill="#F2F2F2"/>
<path d="M52.2421 138.072C51.8899 138.071 51.5523 137.931 51.3033 137.683C51.0543 137.434 50.9142 137.096 50.9138 136.744V127.716C50.9138 127.364 51.0538 127.027 51.3029 126.778C51.552 126.529 51.8898 126.389 52.2421 126.389C52.5944 126.389 52.9322 126.529 53.1813 126.778C53.4304 127.027 53.5704 127.364 53.5704 127.716V136.744C53.57 137.096 53.4299 137.434 53.1809 137.683C52.9319 137.931 52.5943 138.071 52.2421 138.072Z" fill="#E6E6E6"/>
<path d="M103.63 130.863H89.5353C88.2621 130.863 87.23 131.895 87.23 133.168V136.759C87.23 138.031 88.2621 139.063 89.5353 139.063H103.63C104.904 139.063 105.936 138.031 105.936 136.759V133.168C105.936 131.895 104.904 130.863 103.63 130.863Z" fill="#536DFE"/>
<path d="M123.115 147.263H70.0515C68.7782 147.263 67.7461 148.294 67.7461 149.567V153.158C67.7461 154.431 68.7782 155.462 70.0515 155.462H123.115C124.388 155.462 125.42 154.431 125.42 153.158V149.567C125.42 148.294 124.388 147.263 123.115 147.263Z" fill="#E6E6E6"/>
<path d="M123.115 163.662H70.0515C68.7782 163.662 67.7461 164.694 67.7461 165.966V169.557C67.7461 170.83 68.7782 171.862 70.0515 171.862H123.115C124.388 171.862 125.42 170.83 125.42 169.557V165.966C125.42 164.694 124.388 163.662 123.115 163.662Z" fill="#E6E6E6"/>
<path d="M110.347 247.022C110.104 247.033 109.864 246.969 109.658 246.839C109.453 246.709 109.292 246.519 109.199 246.295C109.105 246.071 109.082 245.824 109.134 245.586C109.186 245.349 109.309 245.133 109.488 244.968L109.569 244.645C109.558 244.619 109.547 244.594 109.537 244.568C109.292 243.99 108.882 243.498 108.358 243.153C107.835 242.807 107.22 242.624 106.593 242.626C105.966 242.629 105.353 242.816 104.832 243.166C104.311 243.515 103.904 244.01 103.664 244.59C102.704 246.902 101.481 249.218 101.18 251.662C101.047 252.743 101.103 253.838 101.345 254.9C99.0891 249.981 97.9177 244.636 97.9102 239.225C97.9097 237.867 97.9852 236.511 98.1363 235.161C98.2611 234.055 98.4343 232.957 98.6559 231.867C99.865 225.95 102.461 220.405 106.231 215.686C108.055 214.691 109.531 213.161 110.458 211.302C110.794 210.634 111.032 209.92 111.164 209.184C110.958 209.211 110.749 209.228 110.543 209.241C110.479 209.245 110.411 209.248 110.347 209.251L110.323 209.253C110.097 209.263 109.872 209.207 109.677 209.093C109.482 208.979 109.323 208.81 109.221 208.608C109.119 208.406 109.078 208.179 109.102 207.954C109.127 207.729 109.216 207.516 109.358 207.34C109.447 207.231 109.536 207.121 109.625 207.012C109.76 206.844 109.898 206.678 110.033 206.51C110.049 206.494 110.063 206.477 110.077 206.459C110.232 206.267 110.388 206.078 110.543 205.886C110.259 205.446 109.878 205.078 109.429 204.81C107.874 203.9 105.728 204.53 104.604 205.936C103.477 207.343 103.265 209.316 103.656 211.072C104.041 212.568 104.678 213.986 105.539 215.268C105.455 215.376 105.367 215.48 105.283 215.588C103.741 217.57 102.397 219.698 101.27 221.942C101.544 219.428 101.217 216.885 100.316 214.522C99.4027 212.32 97.6909 210.466 96.1835 208.562C95.7848 208.051 95.2434 207.669 94.6277 207.465C94.012 207.261 93.3496 207.245 92.7243 207.417C92.099 207.589 91.5389 207.943 91.1147 208.433C90.6905 208.924 90.4213 209.529 90.3411 210.172C90.338 210.2 90.335 210.228 90.332 210.256C90.5559 210.383 90.7751 210.517 90.9895 210.658C91.2589 210.838 91.4677 211.095 91.5884 211.396C91.7091 211.696 91.7362 212.026 91.6662 212.342C91.5961 212.659 91.4321 212.946 91.1957 213.168C90.9592 213.389 90.6614 213.534 90.3412 213.583L90.3084 213.588C90.3882 214.395 90.5292 215.194 90.7302 215.979C91.3126 218.171 92.3418 220.219 93.7533 221.995C95.1647 223.771 96.928 225.236 98.9325 226.299C99.0641 226.366 99.1923 226.434 99.3239 226.498C98.192 229.704 97.482 233.044 97.2118 236.433C97.0588 238.432 97.0678 240.441 97.2388 242.439L97.2286 242.368C96.7967 240.146 95.6109 238.142 93.8714 236.692C91.2879 234.571 87.6378 233.79 84.8506 232.085C84.5544 231.895 84.2099 231.793 83.8579 231.793C83.5059 231.792 83.161 231.892 82.8639 232.08C82.5667 232.269 82.3298 232.538 82.1809 232.857C82.0321 233.176 81.9776 233.531 82.0238 233.88L82.0352 233.954C82.4507 234.123 82.8552 234.318 83.2465 234.537C83.4704 234.664 83.6895 234.798 83.904 234.939C84.1734 235.119 84.3821 235.376 84.5029 235.677C84.6236 235.977 84.6507 236.307 84.5806 236.624C84.5105 236.94 84.3465 237.227 84.1101 237.449C83.8737 237.67 83.5759 237.815 83.2556 237.864L83.2228 237.869C83.1992 237.873 83.179 237.876 83.1554 237.88C83.8653 239.574 84.8617 241.133 86.1009 242.49C87.6318 244.131 89.482 245.443 91.5382 246.345C93.5944 247.247 95.8133 247.719 98.0586 247.734H98.062C98.6715 250.381 99.5547 252.958 100.697 255.423H110.111C110.145 255.318 110.175 255.21 110.205 255.106C109.334 255.16 108.459 255.108 107.601 254.95C108.299 254.094 108.997 253.23 109.696 252.374C109.711 252.358 109.726 252.341 109.74 252.323C110.094 251.885 110.452 251.45 110.806 251.012L110.806 251.011C110.825 249.667 110.671 248.326 110.347 247.022L110.347 247.022ZM99.5669 225.827L99.5718 225.82L99.5669 225.833V225.827ZM97.4817 244.614L97.4007 244.432C97.4041 244.3 97.4041 244.169 97.4007 244.034C97.4007 243.997 97.394 243.96 97.394 243.923C97.4243 244.155 97.4513 244.388 97.4851 244.621L97.4817 244.614Z" fill="#CCCCCC"/>
<path d="M51.9765 120.547C51.6243 120.547 51.2867 120.407 51.0377 120.158C50.7887 119.909 50.6486 119.572 50.6482 119.22V110.192C50.6482 109.84 50.7881 109.502 51.0372 109.253C51.2863 109.004 51.6242 108.864 51.9765 108.864C52.3288 108.864 52.6666 109.004 52.9157 109.253C53.1648 109.502 53.3048 109.84 53.3048 110.192V119.22C53.3044 119.572 53.1643 119.909 52.9153 120.158C52.6662 120.407 52.3286 120.547 51.9765 120.547V120.547Z" fill="#E6E6E6"/>
<path d="M87.3088 86.0293C87.3093 85.6773 87.4493 85.3399 87.6983 85.091C87.9474 84.8421 88.285 84.7021 88.6371 84.7017H97.6695C98.0217 84.7017 98.3596 84.8415 98.6087 85.0905C98.8578 85.3395 98.9978 85.6772 98.9978 86.0293C98.9978 86.3814 98.8578 86.7191 98.6087 86.968C98.3596 87.217 98.0217 87.3569 97.6695 87.3569H88.6371C88.285 87.3565 87.9474 87.2165 87.6983 86.9676C87.4493 86.7187 87.3093 86.3813 87.3088 86.0293Z" fill="white"/>
<path d="M52.2421 153.472C51.8899 153.472 51.5523 153.332 51.3033 153.083C51.0543 152.834 50.9142 152.496 50.9138 152.144V143.117C50.9138 142.765 51.0538 142.427 51.3029 142.178C51.552 141.929 51.8898 141.789 52.2421 141.789C52.5944 141.789 52.9322 141.929 53.1813 142.178C53.4304 142.427 53.5704 142.765 53.5704 143.117V152.144C53.57 152.496 53.4299 152.834 53.1809 153.083C52.9319 153.332 52.5943 153.472 52.2421 153.472V153.472Z" fill="#E6E6E6"/>
<path d="M102.717 87.3569C103.451 87.3569 104.045 86.7625 104.045 86.0293C104.045 85.2961 103.451 84.7017 102.717 84.7017C101.983 84.7017 101.389 85.2961 101.389 86.0293C101.389 86.7625 101.983 87.3569 102.717 87.3569Z" fill="white"/>
<path d="M456.367 259.476L0.632507 259.639C0.465041 259.638 0.304604 259.572 0.186359 259.453C0.0681139 259.335 0.00170898 259.174 0.00170898 259.007C0.00170898 258.839 0.0681139 258.679 0.186359 258.56C0.304604 258.442 0.465041 258.375 0.632507 258.374L456.367 258.211C456.535 258.211 456.696 258.278 456.815 258.396C456.933 258.515 457 258.676 457 258.843C457 259.011 456.933 259.172 456.815 259.291C456.696 259.409 456.535 259.476 456.367 259.476Z" fill="#CACACA"/>
<path d="M194.872 120.073L192.475 120.586C192.459 119.584 192.334 118.587 192.102 117.611C191.884 118.806 191.425 119.943 190.752 120.954L177.004 123.888L163.804 109.965C163.784 103.004 167.652 97.7139 174.586 97.7139C175.004 97.7139 175.438 97.734 175.876 97.7743C179.622 97.1475 183.466 97.9982 186.598 100.147C189.73 102.296 191.905 105.576 192.666 109.296C197.581 114.133 195.798 116.977 194.872 120.073Z" fill="#2F2E41"/>
<path d="M201.631 282.894H206.618L208.991 263.668L201.63 263.668L201.631 282.894Z" fill="#FFB6B6"/>
<path d="M200.394 280.435L208.278 279.965V283.341L215.773 288.514C216.143 288.77 216.422 289.137 216.569 289.562C216.715 289.987 216.722 290.448 216.588 290.877C216.454 291.307 216.187 291.682 215.824 291.948C215.462 292.215 215.024 292.358 214.574 292.358H205.188L203.571 289.019L202.939 292.358H199.4L200.394 280.435Z" fill="#2F2E41"/>
<path d="M143.206 277.468L147.543 279.928L159.099 264.377L152.697 260.746L143.206 277.468Z" fill="#FFB6B6"/>
<path d="M143.344 274.72L150.433 278.199L148.766 281.135L152.73 289.332C152.926 289.737 152.987 290.194 152.905 290.636C152.823 291.078 152.601 291.482 152.273 291.789C151.944 292.097 151.526 292.291 151.08 292.344C150.633 292.397 150.181 292.306 149.79 292.084L141.627 287.455L141.868 283.752L139.67 286.345L136.592 284.6L143.344 274.72Z" fill="#2F2E41"/>
<path d="M220.065 123.441C219.426 123.534 218.815 123.765 218.275 124.119C217.735 124.473 217.279 124.941 216.94 125.49C216.601 126.039 216.386 126.655 216.311 127.296C216.235 127.937 216.302 128.587 216.505 129.2L208.874 135.801L211.757 141.415L222.403 131.941C223.409 131.531 224.231 130.767 224.712 129.792C225.193 128.818 225.299 127.701 225.011 126.653C224.723 125.606 224.06 124.7 223.149 124.108C222.237 123.516 221.14 123.279 220.065 123.441H220.065Z" fill="#FFB6B6"/>
<path d="M212.38 146.143C209.835 149.997 204.129 153.718 195.662 157.018C195.195 157.205 194.694 157.293 194.191 157.277C193.689 157.26 193.195 157.139 192.741 156.922C189.545 155.469 187.498 150.065 187.305 149.541L181.117 141.197C181.007 141.076 178.113 137.793 178.444 134.566C178.518 133.889 178.739 133.237 179.089 132.654C179.44 132.071 179.913 131.57 180.475 131.187C185.16 127.716 195.659 139.771 197.022 141.374L203.874 137.201L208.867 134.975L212.897 130.073L218.572 135.872L213.468 143.988C213.196 144.749 212.831 145.473 212.38 146.143V146.143Z" fill="#2F2E41"/>
<path d="M194.582 160.928C194.582 160.928 209.245 184.273 206.589 186.928C203.932 189.583 199.798 190.281 199.798 190.281L190.649 178.431L194.582 160.928Z" fill="#2F2E41"/>
<path d="M181.617 129.044L188.528 133.717C191.74 135.889 194.156 139.048 195.41 142.717C196.663 146.385 196.685 150.361 195.473 154.043L193.528 159.954L181.617 129.044Z" fill="#2F2E41"/>
<path d="M169.397 192.77L168.473 195.986L165.32 234.774L149.569 264.115L157.086 269.481L178.566 241.572L187.061 213.861L200.403 275.207L210.427 274.491L203.465 189.436L190.255 165.495L169.397 192.77Z" fill="#2F2E41"/>
<path d="M180.442 130.219L190.061 138.076C192.172 139.8 193.692 142.14 194.409 144.769V144.769C194.735 145.963 194.89 147.197 194.869 148.434L194.582 165.495L203.401 189.052C203.401 189.052 179.492 198.08 176.304 190.114C173.116 182.149 180.442 130.219 180.442 130.219Z" fill="#536DFE"/>
<path d="M183.319 194.249C171.375 194.249 168.464 194.339 168.275 194.301L168.086 194.263V187.083L170.991 174.183C170.652 170.178 169.856 164.898 169.928 160.376C170.189 144.033 169.385 128.068 169.385 128.068L175.707 122.236L178.578 124.104L183.906 129.428C190.098 144.66 195.011 158.999 195.042 159.92L195.431 175.776L193.838 182.149C186.627 187.236 193.215 194.249 183.319 194.249Z" fill="#2F2E41"/>
<path opacity="0.2" d="M172.064 142.306L170.612 151.365L180.442 155.417L172.064 142.306Z" fill="black"/>
<path d="M181.966 120.537C187.282 120.537 191.59 116.23 191.59 110.918C191.59 105.605 187.282 101.299 181.966 101.299C176.651 101.299 172.342 105.605 172.342 110.918C172.342 116.23 176.651 120.537 181.966 120.537Z" fill="#FFB6B6"/>
<path opacity="0.2" d="M165.84 159.724C168.402 162.689 171.876 164.718 175.717 165.494C179.558 166.27 183.549 165.749 187.061 164.011L189.155 162.975L165.84 159.724Z" fill="black"/>
<path d="M199.33 157.51C198.901 157.028 198.371 156.646 197.778 156.391C197.185 156.135 196.543 156.013 195.898 156.033C195.252 156.052 194.619 156.213 194.042 156.503C193.466 156.794 192.96 157.207 192.561 157.714L182.843 154.988L179.745 160.486L193.522 164.144C194.419 164.758 195.51 165.022 196.588 164.886C197.667 164.75 198.658 164.223 199.374 163.405C200.09 162.588 200.481 161.536 200.473 160.449C200.464 159.363 200.058 158.317 199.33 157.51H199.33Z" fill="#FFB6B6"/>
<path d="M176.141 163.612C171.521 163.612 165.27 160.905 157.85 155.661C157.436 155.374 157.087 155.005 156.823 154.577C156.56 154.148 156.388 153.67 156.32 153.172C155.772 149.706 159.155 145.02 159.486 144.571L163.042 134.811C163.083 134.652 164.229 130.43 167.106 128.927C167.711 128.617 168.377 128.441 169.057 128.412C169.737 128.383 170.416 128.502 171.046 128.76C176.525 130.754 172.247 146.154 171.659 148.174L178.919 151.589L183.529 154.527L189.843 155.187L188.129 163.116L178.54 163.332C177.755 163.524 176.95 163.618 176.141 163.612V163.612Z" fill="#2F2E41"/>
<path d="M193.507 104.59C192.737 105.591 190.083 106.477 186.93 107.192C186.935 107.127 186.935 107.061 186.935 106.996C186.919 105.994 186.794 104.996 186.562 104.021C186.344 105.215 185.885 106.352 185.213 107.363C185.162 107.439 185.112 107.514 185.057 107.59C182.352 108.123 179.492 108.536 177.251 108.813C178.792 114.36 184.699 118.91 184.059 122.283L166.751 125.816C166.857 124.415 166.745 123.005 166.418 121.638C166.087 123.442 165.212 125.102 163.91 126.395L162.44 126.697L162.002 124.538C158.204 115.422 163.497 106.09 172.169 101.263C173.715 98.9459 176.116 97.3352 178.847 96.7827L181.008 96.3397C182.37 96.0611 183.775 96.0534 185.14 96.3172C186.506 96.581 187.806 97.1111 188.967 97.8771C190.128 98.6432 191.126 99.6303 191.905 100.782C192.684 101.934 193.228 103.228 193.507 104.59Z" fill="#2F2E41"/>
<path d="M234.855 278.978L235.111 273.226C237.779 271.8 240.755 271.047 243.781 271.032C239.617 274.435 240.137 280.994 237.314 285.569C236.423 286.99 235.223 288.191 233.804 289.085C232.385 289.979 230.782 290.542 229.116 290.733L225.631 292.866C225.153 290.202 225.259 287.465 225.94 284.846C226.622 282.226 227.864 279.786 229.58 277.692C230.554 276.527 231.672 275.489 232.906 274.603C233.74 276.803 234.855 278.978 234.855 278.978Z" fill="#F2F2F2"/>
<path d="M243.303 293H121.96C121.793 292.999 121.632 292.933 121.514 292.814C121.396 292.696 121.33 292.535 121.33 292.368C121.33 292.2 121.396 292.04 121.514 291.921C121.632 291.803 121.793 291.736 121.96 291.735H243.303C243.386 291.735 243.469 291.751 243.546 291.783C243.623 291.815 243.693 291.861 243.752 291.92C243.81 291.979 243.857 292.048 243.889 292.125C243.921 292.202 243.937 292.284 243.937 292.368C243.937 292.451 243.921 292.533 243.889 292.61C243.857 292.687 243.81 292.757 243.752 292.815C243.693 292.874 243.623 292.921 243.546 292.952C243.469 292.984 243.386 293 243.303 293Z" fill="#CACACA"/>
</g>
<defs>
<clipPath id="clip0_32_135">
<rect width="457" height="293" fill="white"/>
</clipPath>
</defs>
</svg>