<svg width="25" height="24" viewBox="0 0 25 24" fill="none" xmlns="http://www.w3.org/2000/svg">
<path d="M12.5 6.5C12.5 6.26077 12.5 6.14115 12.5807 6.06687C12.6615 5.99259 12.7741 6.002 12.9994 6.02082C13.8784 6.09424 14.7326 6.36078 15.5 6.80385C16.4121 7.33046 17.1695 8.08788 17.6962 9C18.2228 9.91212 18.5 10.9468 18.5 12C18.5 13.0532 18.2228 14.0879 17.6962 15C17.1695 15.9121 16.4121 16.6695 15.5 17.1962C14.5879 17.7228 13.5532 18 12.5 18C11.4468 18 10.4121 17.7228 9.5 17.1962C8.73258 16.7531 8.07467 16.1466 7.57159 15.4221C7.44265 15.2364 7.37817 15.1435 7.40213 15.0365C7.42608 14.9294 7.52968 14.8696 7.73686 14.75L12.25 12.1443C12.372 12.0739 12.433 12.0387 12.4665 11.9807C12.5 11.9226 12.5 11.8522 12.5 11.7113L12.5 6.5Z" fill="#FFA500"/>
<circle cx="12.5" cy="12" r="9" stroke="#FFA500" stroke-width="2"/>
</svg>
