<svg width="20" height="21" viewBox="0 0 20 21" fill="none" xmlns="http://www.w3.org/2000/svg">
<path d="M19.4274 1.57671C18.9274 1.06571 18.1874 0.876712 17.4974 1.07671L1.40742 5.72571C0.67942 5.92771 0.16342 6.50471 0.0244202 7.23671C-0.11758 7.98271 0.37842 8.93071 1.02642 9.32671L6.05742 12.3987C6.57342 12.7147 7.23942 12.6357 7.66642 12.2077L13.4274 6.44671C13.7174 6.14571 14.1974 6.14571 14.4874 6.44671C14.7774 6.73571 14.7774 7.20671 14.4874 7.50671L8.71642 13.2677C8.28842 13.6957 8.20842 14.3597 8.52342 14.8767L11.5974 19.9267C11.9574 20.5257 12.5774 20.8667 13.2574 20.8667C13.3374 20.8667 13.4274 20.8667 13.5074 20.8557C14.2874 20.7567 14.9074 20.2257 15.1374 19.4757L19.9074 3.50671C20.1174 2.82671 19.9274 2.08671 19.4274 1.57671Z" fill="white"/>
</svg>
