<svg width="585" height="436" viewBox="0 0 585 436" fill="none" xmlns="http://www.w3.org/2000/svg">
<path d="M585 383.058H0V383.351H585V383.058Z" fill="#E6E6E6"/>
<path d="M146.039 400.76H107.289V401.053H146.039V400.76Z" fill="#E6E6E6"/>
<path d="M95.0265 400.76H72.5742V401.053H95.0265V400.76Z" fill="#E6E6E6"/>
<path d="M246.343 405.066H223.891V405.358H246.343V405.066Z" fill="#E6E6E6"/>
<path d="M363.413 411.594H312.881V411.887H363.413V411.594Z" fill="#E6E6E6"/>
<path d="M302.469 411.594H295.062V411.887H302.469V411.594Z" fill="#E6E6E6"/>
<path d="M530.42 405.066H420.814V405.358H530.42V405.066Z" fill="#E6E6E6"/>
<path d="M277.289 330.876H51.3741C49.6043 330.873 47.908 330.168 46.6577 328.915C45.4073 327.663 44.7051 325.965 44.7051 324.195V6.6222C44.7205 4.86255 45.4295 3.18004 46.6782 1.94012C47.9269 0.700196 49.6144 0.00301437 51.3741 0H277.289C279.061 0 280.76 0.703858 282.013 1.95673C283.266 3.20961 283.97 4.90887 283.97 6.6807V324.195C283.97 325.967 283.266 327.666 282.013 328.919C280.76 330.172 279.061 330.876 277.289 330.876ZM51.3741 0.234001C49.6819 0.2371 48.06 0.911506 46.8645 2.10919C45.669 3.30687 44.9976 4.92997 44.9976 6.6222V324.195C44.9976 325.888 45.669 327.511 46.8645 328.708C48.06 329.906 49.6819 330.58 51.3741 330.583H277.289C278.983 330.58 280.606 329.906 281.803 328.709C283 327.512 283.674 325.889 283.678 324.195V6.6222C283.674 4.92889 283 3.30583 281.803 2.10848C280.606 0.911126 278.983 0.237094 277.289 0.234001H51.3741Z" fill="#E6E6E6"/>
<path d="M530.373 330.876H304.446C302.675 330.873 300.978 330.168 299.726 328.916C298.474 327.664 297.769 325.966 297.766 324.195V6.6222C297.784 4.86148 298.496 3.17898 299.746 1.93938C300.997 0.699787 302.686 0.0029815 304.446 0H530.373C532.131 0.00608926 533.815 0.704632 535.062 1.94422C536.308 3.18381 537.015 4.86457 537.031 6.6222V324.195C537.031 325.963 536.33 327.659 535.082 328.911C533.834 330.163 532.141 330.87 530.373 330.876ZM304.446 0.234001C302.753 0.237094 301.13 0.911126 299.933 2.10848C298.735 3.30583 298.061 4.92889 298.058 6.6222V324.195C298.061 325.889 298.735 327.512 299.933 328.709C301.13 329.906 302.753 330.58 304.446 330.583H530.373C532.067 330.58 533.69 329.906 534.887 328.709C536.084 327.512 536.758 325.889 536.761 324.195V6.6222C536.758 4.92889 536.084 3.30583 534.887 2.10848C533.69 0.911126 532.067 0.237094 530.373 0.234001H304.446Z" fill="#E6E6E6"/>
<path d="M312.857 283.117H287.129V385.176H312.857V283.117Z" fill="#E0E0E0"/>
<path d="M307.968 385.176H312.859V371.276H302.844L307.968 385.176Z" fill="#FAFAFA"/>
<path d="M200.117 283.117H174.389V385.176H200.117V283.117Z" fill="#E0E0E0"/>
<path d="M312.857 283.117H195.857V376.647H312.857V283.117Z" fill="#FAFAFA"/>
<path d="M308.611 287.715V312.46H200.07V287.715H308.575H308.611ZM309.032 287.258H199.648V312.905H309.067V287.258H309.032Z" fill="#E0E0E0"/>
<path d="M200.736 385.176H195.857V371.276H205.861L200.736 385.176Z" fill="#FAFAFA"/>
<path d="M251.773 300.082C251.773 300.593 251.925 301.093 252.209 301.518C252.493 301.943 252.897 302.275 253.37 302.47C253.842 302.666 254.362 302.717 254.864 302.618C255.365 302.518 255.826 302.272 256.188 301.91C256.549 301.548 256.795 301.088 256.895 300.586C256.995 300.084 256.944 299.565 256.748 299.092C256.552 298.62 256.221 298.216 255.796 297.932C255.37 297.648 254.871 297.496 254.359 297.496C253.673 297.496 253.016 297.768 252.531 298.253C252.046 298.738 251.773 299.396 251.773 300.082Z" fill="#E6E6E6"/>
<path d="M308.611 317.502V342.248H200.07V317.502H308.575H308.611ZM309.032 317.058H199.648V342.704H309.067V317.07L309.032 317.058Z" fill="#E0E0E0"/>
<path d="M251.773 329.94C251.773 330.451 251.925 330.951 252.209 331.376C252.493 331.801 252.897 332.133 253.37 332.329C253.842 332.524 254.362 332.575 254.864 332.476C255.365 332.376 255.826 332.13 256.188 331.768C256.549 331.406 256.795 330.946 256.895 330.444C256.995 329.943 256.944 329.423 256.748 328.95C256.552 328.478 256.221 328.074 255.796 327.79C255.37 327.506 254.871 327.354 254.359 327.354C253.673 327.354 253.016 327.626 252.531 328.111C252.046 328.596 251.773 329.254 251.773 329.94Z" fill="#E6E6E6"/>
<path d="M308.611 347.303V372.06H200.07V347.303H308.575H308.611ZM309.032 346.846H199.648V372.505H309.067V346.846H309.032Z" fill="#E0E0E0"/>
<path d="M251.773 359.681C251.776 360.192 251.929 360.691 252.215 361.115C252.5 361.538 252.905 361.868 253.378 362.062C253.85 362.256 254.37 362.305 254.871 362.204C255.372 362.103 255.831 361.856 256.192 361.494C256.552 361.132 256.797 360.671 256.896 360.17C256.995 359.669 256.943 359.149 256.747 358.677C256.551 358.206 256.219 357.803 255.794 357.519C255.37 357.235 254.87 357.084 254.359 357.084C254.019 357.084 253.681 357.151 253.367 357.282C253.052 357.413 252.767 357.604 252.527 357.845C252.286 358.087 252.096 358.373 251.967 358.688C251.838 359.003 251.772 359.341 251.773 359.681Z" fill="#E6E6E6"/>
<path d="M184.404 223.844H158.676V385.187H184.404V223.844Z" fill="#E0E0E0"/>
<path d="M179.513 385.176H184.404V371.276H174.4L179.513 385.176Z" fill="#FAFAFA"/>
<path d="M88.2537 223.844H62.5254V385.187H88.2537V223.844Z" fill="#E0E0E0"/>
<path d="M184.404 223.844H83.9824V376.658H184.404V223.844Z" fill="#FAFAFA"/>
<path d="M180.075 228.15V262.747H88.3116V228.15H180.075ZM180.613 227.624H87.75V263.25H180.59V227.635L180.613 227.624Z" fill="#E0E0E0"/>
<path d="M180.074 266.971V358.734H136.362V266.971H180.074ZM180.612 266.433H135.836V359.272H180.612V266.433Z" fill="#E0E0E0"/>
<path d="M132.023 266.971V358.734H88.3116V266.971H132.023ZM132.549 266.433H87.75V359.272H132.526V266.433H132.549Z" fill="#E0E0E0"/>
<path d="M88.873 385.176H83.9824V371.276H93.9976L88.873 385.176Z" fill="#FAFAFA"/>
<path d="M131.602 245.466C131.599 245.981 131.75 246.484 132.034 246.913C132.318 247.341 132.722 247.676 133.197 247.874C133.671 248.073 134.194 248.126 134.699 248.027C135.203 247.928 135.667 247.682 136.031 247.319C136.396 246.956 136.644 246.493 136.746 245.989C136.847 245.485 136.796 244.962 136.6 244.487C136.404 244.011 136.071 243.605 135.643 243.319C135.216 243.033 134.713 242.881 134.199 242.881C133.512 242.881 132.853 243.153 132.366 243.637C131.88 244.122 131.605 244.779 131.602 245.466Z" fill="#E6E6E6"/>
<path d="M140.867 310.67C140.867 311.184 141.02 311.687 141.306 312.114C141.592 312.541 141.998 312.874 142.473 313.07C142.949 313.267 143.471 313.317 143.976 313.216C144.48 313.115 144.943 312.867 145.305 312.502C145.668 312.138 145.915 311.674 146.014 311.169C146.112 310.665 146.059 310.142 145.861 309.668C145.663 309.193 145.328 308.788 144.899 308.504C144.47 308.22 143.967 308.07 143.453 308.072C143.112 308.072 142.775 308.14 142.461 308.27C142.146 308.401 141.861 308.592 141.62 308.834C141.38 309.075 141.19 309.362 141.061 309.677C140.931 309.992 140.866 310.329 140.867 310.67Z" fill="#E6E6E6"/>
<path d="M122.348 310.67C122.35 311.181 122.504 311.679 122.789 312.103C123.075 312.527 123.479 312.856 123.952 313.05C124.425 313.244 124.944 313.294 125.445 313.193C125.946 313.091 126.405 312.844 126.766 312.482C127.126 312.12 127.371 311.659 127.47 311.158C127.569 310.657 127.517 310.138 127.321 309.666C127.125 309.194 126.794 308.791 126.369 308.507C125.944 308.224 125.444 308.072 124.933 308.072C124.593 308.072 124.256 308.14 123.941 308.27C123.627 308.401 123.341 308.592 123.101 308.834C122.861 309.075 122.67 309.362 122.541 309.677C122.412 309.992 122.346 310.329 122.348 310.67Z" fill="#E6E6E6"/>
<path d="M119.422 178.858H108.576C109.575 184.119 110.205 189.444 110.459 194.793C110.459 200.643 102.199 223.844 113.969 223.844C125.74 223.844 117.479 200.702 117.479 194.793C117.753 189.443 118.402 184.118 119.422 178.858Z" fill="#E0E0E0"/>
<path d="M78.1562 202.585V209.605C78.1686 213.369 79.669 216.974 82.3301 219.635C84.9911 222.296 88.5968 223.797 92.36 223.809H99.38C103.143 223.797 106.749 222.296 109.41 219.635C112.071 216.974 113.572 213.369 113.584 209.605V202.585H78.1562Z" fill="#F5F5F5"/>
<path d="M228.934 268.234C228.934 276.424 238.095 283.117 249.292 283.117H259.4C270.597 283.117 279.758 276.424 279.758 268.234H228.934Z" fill="#E0E0E0"/>
<path d="M496.794 256.23C490.663 261.238 482.192 270.399 474.447 283.292C469.275 291.88 466.163 300.842 464.794 312.753C464.794 299.298 464.876 284.848 464.923 271.206C466.479 267.696 470.036 259.6 472.587 253.212C481.092 231.882 484.287 226.629 491.927 208.237C502.141 183.667 512.601 154.581 509.605 156.909C503.498 161.647 480.098 205.464 477.571 211.735C470.682 228.471 466.424 246.172 464.946 264.21C464.946 251.34 465.04 239.64 465.087 230.56C465.251 200.948 465.754 191.389 465.999 188.44C466.947 186.943 468.059 185.199 468.714 184.263C474.213 176.307 476.331 169.545 481.502 157.681C488.85 140.892 495.168 111.068 493.319 112.566C485.62 118.837 479.56 132.292 471.58 149.456C463.601 166.62 465.882 176.483 464.303 191.131C463.975 194.01 463.718 204.867 463.531 219.902C461.472 203.873 457.587 193.319 450.509 183.725C441.804 171.92 433.38 163.952 427.202 159.787C421.025 155.622 437.873 184.614 445.922 197.227C453.094 208.506 459.705 218.439 463.472 228.232C463.273 248.625 463.18 274.435 463.18 298.432C461.331 287.504 458.313 275.722 454.288 266.608C449.444 255.657 442.003 238.856 436.071 233.158C434.655 231.789 442.272 264.467 447.162 273.148C452.053 281.83 455.645 290.031 458.722 294.957C459.436 296.127 461.823 300.538 463.18 303.089C463.18 332.421 463.344 358.301 463.601 367.111H464.865C464.783 364.841 464.759 349.912 464.794 330.162C467.848 319.445 474.821 307.207 480.578 296.045C486.849 283.959 502.925 251.258 496.794 256.23Z" fill="#E0E0E0"/>
<path d="M482.554 385.176H445.886L443.113 349.233H485.327L482.554 385.176Z" fill="#F0F0F0"/>
<path d="M488.054 353.422H440.377L439.02 341.289H489.423L488.054 353.422Z" fill="#F5F5F5"/>
<path d="M145.383 23.9846H79.8047V95.9981H145.383V23.9846Z" fill="#E0E0E0"/>
<path d="M152.485 23.9846H84.7422V95.9981H152.485V23.9846Z" fill="#F5F5F5"/>
<path d="M146.811 90.3239V29.6594L90.4166 29.6594V90.3239H146.811Z" fill="white"/>
<path d="M133.135 75.6057V44.355H104.084V75.6057H133.135Z" fill="#F5F5F5"/>
<path d="M479.758 32.3738H418.836V99.2744H479.758V32.3738Z" fill="#E0E0E0"/>
<path d="M486.358 32.3738H423.436V99.2744H486.358V32.3738Z" fill="#F5F5F5"/>
<path d="M481.092 93.9976V37.6504H428.711V93.9976H481.092Z" fill="white"/>
<path d="M454.896 82.1691C463.923 82.1691 471.241 74.8512 471.241 65.8242C471.241 56.7971 463.923 49.4792 454.896 49.4792C445.869 49.4792 438.551 56.7971 438.551 65.8242C438.551 74.8512 445.869 82.1691 454.896 82.1691Z" fill="#F5F5F5"/>
<path d="M213.514 66.9241H164.865V120.346H213.514V66.9241Z" fill="#E0E0E0"/>
<path d="M218.779 66.9241H168.527V120.346H218.779V66.9241Z" fill="#F5F5F5"/>
<path d="M214.566 116.134V71.1362H172.739V116.134H214.566Z" fill="white"/>
<path d="M193.657 82.251L182.215 102.071H205.1L193.657 82.251Z" fill="#F5F5F5"/>
<path d="M292.5 435.895C417.786 435.895 519.351 429.965 519.351 422.651C519.351 415.336 417.786 409.406 292.5 409.406C167.213 409.406 65.6484 415.336 65.6484 422.651C65.6484 429.965 167.213 435.895 292.5 435.895Z" fill="#F5F5F5"/>
<path d="M408.622 126.863L397.015 122.183C397.015 122.183 381.7 150.111 377.313 151.527C371.346 153.446 358.99 158.781 351.666 159.717C350.672 160.887 349.045 164.525 349.197 165.848C359.037 169.135 380.659 164.771 385.292 161.331C395.834 153.527 408.622 126.863 408.622 126.863Z" fill="#E58A7B"/>
<path d="M412.191 120.51C414.355 128.501 402.632 144.577 402.632 144.577L387.27 135.966C387.27 135.966 390.148 129.355 393.658 122.627C399.285 111.758 409.722 111.395 412.191 120.51Z" fill="#2B65B1"/>
<path opacity="0.2" d="M412.191 120.51C414.355 128.501 402.632 144.577 402.632 144.577L387.27 135.966C387.27 135.966 390.148 129.355 393.658 122.627C399.285 111.758 409.722 111.395 412.191 120.51Z" fill="black"/>
<path opacity="0.2" d="M393.365 139.405L399.414 142.798L400.479 124.23C396.957 126.933 394.477 135.076 393.365 139.405Z" fill="black"/>
<path d="M402.082 114.496C402.082 114.496 390.125 141.102 397.098 190.64H444.214C444.962 183.409 442.482 148.122 451.456 114.051C446.287 113.041 441.058 112.373 435.801 112.051C429.134 111.664 422.45 111.664 415.783 112.051C411.161 112.52 406.581 113.337 402.082 114.496Z" fill="#FFA500"/>
<path opacity="0.2" d="M402.082 114.496C402.082 114.496 390.125 141.102 397.098 190.64H444.214C444.962 183.409 442.482 148.122 451.456 114.051C446.287 113.041 441.058 112.373 435.801 112.051C429.134 111.664 422.45 111.664 415.783 112.051C411.161 112.52 406.581 113.337 402.082 114.496Z" fill="black"/>
<g style="mix-blend-mode:multiply">
<path d="M391.155 423.704C391.084 424.967 408.95 425.985 431.052 425.985C453.153 425.985 471.147 424.967 471.218 423.704C471.288 422.44 453.434 421.434 431.321 421.434C409.208 421.434 391.236 422.452 391.155 423.704Z" fill="#E8ECF1"/>
</g>
<path d="M422.603 390.502L414.246 393.737L421.444 412.333L429.801 409.098L422.603 390.502Z" fill="#E58A7B"/>
<path d="M459.867 414.707H451.057L447.828 394.313H456.638L459.867 414.707Z" fill="#E58A7B"/>
<path d="M450.45 413.688H460.348C460.52 413.689 460.686 413.75 460.816 413.862C460.947 413.973 461.034 414.127 461.062 414.297L462.337 422.124C462.364 422.321 462.348 422.52 462.291 422.71C462.234 422.9 462.136 423.075 462.005 423.224C461.874 423.373 461.713 423.491 461.532 423.572C461.351 423.653 461.154 423.694 460.956 423.692C457.505 423.634 455.843 423.423 451.491 423.423C448.812 423.423 443.301 423.704 439.58 423.704C435.86 423.704 435.614 420.053 437.147 419.714C444.026 418.228 446.694 416.204 448.987 414.238C449.392 413.883 449.911 413.688 450.45 413.688Z" fill="#263238"/>
<path d="M421.199 410.67L430.559 407.932C430.726 407.885 430.904 407.896 431.064 407.965C431.223 408.033 431.355 408.153 431.437 408.306L434.947 415.326C435.028 415.505 435.07 415.698 435.069 415.894C435.068 416.09 435.024 416.283 434.94 416.461C434.857 416.638 434.735 416.794 434.585 416.92C434.434 417.045 434.258 417.136 434.069 417.187C430.664 418.123 428.383 418.696 424.124 419.936C421.187 420.79 418.192 422.183 415.291 423.107C413.278 423.75 408.551 423.774 406.106 423.774C402.491 423.774 401.683 419.96 403.24 419.784C407.159 419.351 407.686 419.55 409.85 418.462C413.392 416.914 416.602 414.697 419.304 411.933C419.813 411.353 420.467 410.917 421.199 410.67Z" fill="#263238"/>
<path d="M353.14 159.67L343.453 155.61L339.463 166.35C343.434 166.955 347.473 166.955 351.444 166.35L353.14 159.67Z" fill="#E58A7B"/>
<path d="M336.246 155.329L335.988 162.466L339.463 166.327L343.453 155.587L336.246 155.329Z" fill="#E58A7B"/>
<path d="M423.75 392.082L415.367 395.318L419.08 404.934L427.462 401.698L423.75 392.082Z" fill="#CF6F64"/>
<path d="M456.638 394.313H447.828L449.501 404.832H458.311L456.638 394.313Z" fill="#CF6F64"/>
<path opacity="0.2" d="M395.6 177.243C395.775 179.361 395.974 181.526 396.231 183.749L431.261 172.376C436.732 170.755 441.486 167.317 444.74 162.63C444.88 159.506 445.056 156.218 445.325 152.79C445.442 151.129 445.582 149.421 445.734 147.689C445.886 145.958 446.097 144.039 446.319 142.19L395.6 177.243Z" fill="black"/>
<path d="M407.043 138.867L405.873 138.727C406.563 132.877 410.927 128.267 415.526 128.384V129.554C411.501 129.472 407.663 133.626 407.043 138.867Z" fill="white"/>
<path d="M413.279 149.666H413.08V148.496C417.105 148.648 420.884 144.448 421.504 139.218L422.674 139.359C422.054 145.08 417.83 149.666 413.279 149.666Z" fill="white"/>
<path d="M435.145 89.5049C433.495 95.9516 431.553 107.757 435.8 112.051C435.8 112.051 432.828 118.591 420.859 118.591C409.92 118.591 415.781 112.051 415.781 112.051C423.059 110.343 423.188 105.031 422.228 99.9998L435.145 89.5049Z" fill="#E58A7B"/>
<path d="M429.88 93.7874L422.24 100C422.477 101.156 422.614 102.33 422.65 103.51C424.884 105.733 429.366 100.105 429.822 97.2272C430.054 96.094 430.074 94.9277 429.88 93.7874Z" fill="#CF6F64"/>
<path d="M409.102 89.423C409.634 90.3445 410.35 91.1463 411.205 91.7784C412.061 92.4106 413.038 92.8594 414.075 93.0969C416.883 93.717 418.287 91.1312 417.514 88.5338C416.824 86.1938 414.519 83.0465 411.664 83.5847C411.053 83.7107 410.48 83.9814 409.995 84.3741C409.51 84.7667 409.125 85.27 408.874 85.8417C408.623 86.4135 408.513 87.037 408.553 87.6601C408.592 88.2832 408.781 88.8877 409.102 89.423Z" fill="#CF6F64"/>
<path d="M413.747 68.7958C409.371 70.7965 407.826 88.1827 413.325 90.7568C418.824 93.3307 422.03 64.9933 413.747 68.7958Z" fill="#263238"/>
<path d="M436.48 79.8054C435.427 88.5336 435.31 93.6699 430.63 98.1393C429.18 99.6225 427.348 100.676 425.337 101.184C423.325 101.691 421.213 101.633 419.233 101.016C417.252 100.398 415.481 99.2459 414.115 97.6853C412.748 96.1247 411.839 94.2168 411.489 92.1723C410.073 84.3333 412.027 71.3814 420.779 67.9065C422.617 67.0955 424.64 66.791 426.636 67.0247C428.632 67.2583 430.529 68.0217 432.131 69.2355C433.733 70.4493 434.98 72.0695 435.745 73.928C436.51 75.7866 436.764 77.8158 436.48 79.8054Z" fill="#E58A7B"/>
<path d="M422.1 73.3123C428.582 71.6626 433.344 70.5394 431.636 75.9331C429.378 83.1403 426.663 90.1135 430.302 90.4294C432.525 90.6283 442.353 86.4631 441.101 82.2394C440.013 78.5656 444.611 77.5594 445.43 75.6991C448.461 68.9599 439.791 69.8491 441.335 65.7541C442.88 61.6591 434.315 55.0603 429.635 58.348C422.019 63.6598 408.95 63.5779 415.818 54.838C420.743 48.6019 411.957 49.8772 411.957 49.8772C411.957 49.8772 417.268 53.0245 408.33 57.8917C398.876 63.0865 407.546 77.0446 422.1 73.3123Z" fill="#263238"/>
<path d="M439.92 89.423C438.641 91.2746 436.718 92.5841 434.527 93.0969C431.637 93.717 430.525 91.1312 431.613 88.5338C432.585 86.1938 435.252 83.0465 438.013 83.5847C440.775 84.1229 441.406 87.1298 439.92 89.423Z" fill="#E58A7B"/>
<path d="M397.097 190.64C397.097 190.64 389.187 261.425 388.567 288.288C387.936 316.228 415.372 403.404 415.372 403.404L429.412 397.554C429.412 397.554 413.032 317.901 415.372 290.464C417.852 260.547 428.102 190.687 428.102 190.687L397.097 190.64Z" fill="#2B65B1"/>
<path opacity="0.2" d="M416.752 210.073C410.446 223.154 414.693 249.023 418.11 264.35C419.408 253.527 420.953 241.78 422.415 230.911C422.275 214.203 420.976 201.298 416.752 210.073Z" fill="black"/>
<path d="M428.793 392.921C428.863 392.921 430.454 397.39 430.454 397.39L414.262 404.2L411.711 399.45L428.793 392.921Z" fill="#2B65B1"/>
<path d="M413.816 190.64C413.816 190.64 419.865 257.962 423.867 283.175C428.266 310.799 445.512 402.796 445.512 402.796H461.646C461.646 402.796 451.982 313.034 450.157 285.679C448.168 256.008 444.213 190.64 444.213 190.64H413.816Z" fill="#2B65B1"/>
<path d="M461.892 398.596C461.962 398.596 462.43 403.1 462.43 403.1H444.693L443.43 397.929L461.892 398.596Z" fill="#2B65B1"/>
<path opacity="0.2" d="M455.715 393.26C455.679 393.261 455.643 393.248 455.615 393.224C455.587 393.201 455.569 393.168 455.563 393.132C455.469 392.313 446.753 311.232 445.115 286.662C443.337 260.009 439.756 200.889 439.721 200.292C439.72 200.273 439.722 200.253 439.728 200.235C439.735 200.217 439.745 200.2 439.758 200.185C439.771 200.171 439.787 200.16 439.805 200.152C439.823 200.144 439.842 200.14 439.862 200.14C439.9 200.14 439.937 200.154 439.965 200.18C439.993 200.207 440.011 200.242 440.014 200.281C440.014 200.877 443.629 259.951 445.407 286.65C447.045 311.22 455.762 392.242 455.844 393.12C455.847 393.139 455.846 393.159 455.842 393.178C455.837 393.197 455.828 393.215 455.816 393.23C455.804 393.246 455.788 393.259 455.771 393.268C455.754 393.277 455.735 393.282 455.715 393.284V393.26Z" fill="black"/>
<path d="M423.093 82.2394C423.093 82.9531 422.649 83.5264 422.181 83.5264C421.713 83.5264 421.374 82.9531 421.42 82.2394C421.467 81.5257 421.865 80.9524 422.333 80.9524C422.801 80.9524 423.14 81.5374 423.093 82.2394Z" fill="#263238"/>
<path d="M415.068 82.2394C415.068 82.9531 414.612 83.5264 414.155 83.5264C413.699 83.5264 413.348 82.9531 413.383 82.2394C413.418 81.5257 413.84 80.9524 414.308 80.9524C414.776 80.9524 415.115 81.5374 415.068 82.2394Z" fill="#263238"/>
<path d="M417.596 82.6018C416.619 84.7812 415.36 86.8227 413.852 88.6741C415.022 89.8441 417.209 89.3059 417.209 89.3059L417.596 82.6018Z" fill="#DF5753"/>
<path d="M417.807 92.2892C417.78 92.2893 417.753 92.2838 417.728 92.273C417.703 92.2623 417.68 92.2466 417.662 92.2269C417.643 92.2071 417.629 92.1838 417.619 92.1583C417.61 92.1328 417.606 92.1057 417.608 92.0786C417.611 92.0217 417.636 91.9681 417.677 91.9289C417.718 91.8897 417.773 91.8679 417.83 91.868C418.725 91.8742 419.61 91.6798 420.42 91.2992C421.23 90.9186 421.944 90.3613 422.51 89.6684C422.551 89.633 422.603 89.6135 422.656 89.6135C422.71 89.6135 422.762 89.633 422.803 89.6684C422.84 89.7077 422.862 89.7601 422.862 89.8147C422.862 89.8692 422.84 89.9216 422.803 89.9609C422.196 90.6973 421.433 91.2887 420.569 91.6916C419.704 92.0945 418.76 92.2987 417.807 92.2892Z" fill="#263238"/>
<path d="M424.521 80.0864C424.465 80.1151 424.403 80.1301 424.34 80.1301C424.277 80.1301 424.215 80.1151 424.159 80.0864C423.721 79.8034 423.223 79.6274 422.705 79.5725C422.186 79.5176 421.662 79.5854 421.175 79.7705C421.128 79.7942 421.076 79.8082 421.023 79.8116C420.97 79.815 420.917 79.8078 420.866 79.7904C420.816 79.7729 420.77 79.7456 420.731 79.71C420.691 79.6745 420.659 79.6314 420.637 79.5833C420.593 79.4791 420.592 79.3622 420.634 79.2573C420.675 79.1524 420.756 79.0678 420.859 79.0217C421.471 78.7718 422.134 78.6733 422.792 78.7344C423.45 78.7955 424.083 79.0144 424.638 79.3727C424.683 79.4031 424.721 79.4422 424.751 79.4877C424.781 79.5331 424.801 79.584 424.811 79.6373C424.821 79.6906 424.82 79.7454 424.808 79.7984C424.797 79.8514 424.775 79.9015 424.744 79.946C424.684 80.013 424.607 80.0618 424.521 80.0864Z" fill="#263238"/>
<path d="M411.968 77.7464C411.906 77.7313 411.849 77.6989 411.805 77.6528C411.766 77.6147 411.735 77.5692 411.714 77.519C411.692 77.4687 411.682 77.4148 411.682 77.3603C411.682 77.3059 411.692 77.2519 411.714 77.2017C411.735 77.1515 411.766 77.106 411.805 77.0678C412.253 76.5649 412.811 76.1723 413.437 75.9206C414.062 75.669 414.736 75.5651 415.408 75.617C415.462 75.6253 415.514 75.6446 415.56 75.6736C415.606 75.7027 415.645 75.7409 415.676 75.7858C415.707 75.8308 415.728 75.8816 415.738 75.9351C415.748 75.9886 415.748 76.0436 415.736 76.0967C415.711 76.2051 415.647 76.3005 415.556 76.3652C415.466 76.4298 415.355 76.4591 415.244 76.4477C414.713 76.4142 414.18 76.5022 413.688 76.7049C413.195 76.9076 412.755 77.2198 412.401 77.6177C412.348 77.6769 412.279 77.7203 412.203 77.743C412.127 77.7657 412.045 77.7669 411.968 77.7464Z" fill="#263238"/>
<path d="M455.984 125.565L443.816 122.324C443.816 122.324 431.882 151.702 427.659 153.61C421.926 156.23 407.406 165.31 401.228 169.603C400.889 171.066 401.158 174.939 401.93 176.003C412.46 174.085 432.619 166.327 436.831 162.385C446.437 153.387 455.984 125.565 455.984 125.565Z" fill="#E58A7B"/>
<path d="M447.489 415.233C446.895 415.28 446.303 415.118 445.816 414.777C445.665 414.64 445.552 414.467 445.489 414.275C445.425 414.082 445.413 413.876 445.453 413.677C445.46 413.552 445.501 413.432 445.571 413.329C445.641 413.226 445.738 413.144 445.851 413.092C446.833 412.589 449.583 414.332 449.899 414.531C449.934 414.552 449.96 414.584 449.975 414.622C449.99 414.66 449.992 414.702 449.981 414.741C449.971 414.782 449.95 414.82 449.922 414.851C449.893 414.881 449.857 414.904 449.817 414.917C449.054 415.104 448.274 415.21 447.489 415.233ZM446.319 413.408C446.23 413.388 446.138 413.388 446.05 413.408C446.005 413.43 445.967 413.466 445.943 413.509C445.918 413.553 445.906 413.603 445.909 413.653C445.878 413.789 445.883 413.931 445.924 414.065C445.965 414.198 446.041 414.319 446.143 414.414C446.599 414.823 447.746 414.87 449.255 414.578C448.357 413.986 447.345 413.587 446.284 413.408H446.319Z" fill="#2B65B1"/>
<path d="M449.759 414.917C449.729 414.927 449.696 414.927 449.666 414.917C448.788 414.426 447.138 412.495 447.384 411.512C447.421 411.357 447.509 411.218 447.634 411.118C447.759 411.018 447.914 410.964 448.074 410.963C448.231 410.942 448.391 410.955 448.543 411.001C448.694 411.048 448.834 411.126 448.952 411.232C449.923 412.062 449.981 414.613 449.981 414.742C449.987 414.78 449.98 414.819 449.961 414.853C449.942 414.887 449.912 414.914 449.876 414.929C449.837 414.937 449.796 414.933 449.759 414.917ZM448.191 411.349H448.109C447.84 411.349 447.805 411.501 447.794 411.559C447.653 412.133 448.694 413.595 449.56 414.285C449.556 413.297 449.25 412.334 448.683 411.524C448.547 411.406 448.371 411.343 448.191 411.349Z" fill="#2B65B1"/>
<path d="M416.425 413.77C415.709 414.02 414.93 414.02 414.214 413.77C414.051 413.682 413.913 413.555 413.813 413.399C413.713 413.244 413.653 413.066 413.64 412.881C413.626 412.765 413.64 412.648 413.683 412.539C413.726 412.431 413.796 412.335 413.886 412.261C414.822 411.419 418.648 412.261 419.081 412.425C419.122 412.435 419.158 412.46 419.184 412.494C419.209 412.528 419.223 412.569 419.221 412.612C419.223 412.656 419.212 412.699 419.189 412.737C419.166 412.774 419.132 412.804 419.093 412.823C418.231 413.212 417.339 413.528 416.425 413.77ZM414.518 412.378C414.384 412.405 414.259 412.465 414.155 412.553C414.118 412.581 414.089 412.619 414.073 412.663C414.056 412.706 414.052 412.754 414.062 412.799C414.069 412.922 414.107 413.041 414.173 413.145C414.238 413.249 414.329 413.336 414.436 413.396C415.056 413.723 416.495 413.466 418.355 412.682C417.102 412.366 415.805 412.263 414.518 412.378Z" fill="#2B65B1"/>
<path d="M419.059 412.823H418.965C417.795 412.612 415.455 411.267 415.385 410.26C415.385 410.026 415.49 409.699 416.052 409.512C416.241 409.444 416.443 409.415 416.644 409.427C416.845 409.44 417.041 409.492 417.222 409.582C418.485 410.202 419.152 412.448 419.187 412.554C419.195 412.589 419.194 412.626 419.184 412.661C419.174 412.696 419.155 412.727 419.129 412.753C419.111 412.781 419.087 412.805 419.059 412.823ZM416.286 409.863H416.169C415.806 409.991 415.806 410.143 415.806 410.19C415.806 410.799 417.502 411.91 418.684 412.285C418.412 411.345 417.836 410.522 417.046 409.945C416.811 409.825 416.541 409.796 416.286 409.863Z" fill="#2B65B1"/>
<path d="M402.222 168.913L390.019 174.529L388.604 178.039L393.108 181.069C393.108 181.069 401.532 180.157 403.93 174.739L402.222 168.913Z" fill="#E58A7B"/>
<path d="M402.737 176.202C402.464 173.857 401.69 171.599 400.467 169.58L402.397 168.129C403.849 170.455 404.776 173.071 405.112 175.792L402.737 176.202Z" fill="#263238"/>
<path d="M404.819 170.574C405.077 170.98 405.203 171.455 405.182 171.936C405.16 172.416 404.991 172.878 404.697 173.259C404.403 173.639 403.999 173.921 403.54 174.064C403.081 174.207 402.589 174.205 402.131 174.059C401.673 173.912 401.272 173.628 400.981 173.245C400.69 172.863 400.524 172.399 400.506 171.919C400.487 171.438 400.617 170.964 400.878 170.56C401.139 170.156 401.518 169.842 401.964 169.662C402.464 169.407 403.044 169.36 403.579 169.531C404.113 169.701 404.559 170.077 404.819 170.574Z" fill="#263238"/>
<path d="M381.77 179.068L383.396 180.706L394.347 176.026L390.018 174.529L381.77 179.068Z" fill="#E58A7B"/>
<path opacity="0.2" d="M428.793 392.921C428.863 392.921 430.454 397.39 430.454 397.39L414.262 404.2L411.711 399.45L428.793 392.921Z" fill="black"/>
<path opacity="0.2" d="M461.892 398.596C461.962 398.596 462.43 403.1 462.43 403.1H444.693L443.43 397.929L461.892 398.596Z" fill="black"/>
<path d="M459.154 122.195C462.372 132.573 449.794 146.765 449.794 146.765L432.42 139.674C434.479 133.676 436.854 127.791 439.534 122.043C444.869 110.541 455.902 111.723 459.154 122.195Z" fill="#2B65B1"/>
<path opacity="0.2" d="M459.154 122.195C462.372 132.573 449.794 146.765 449.794 146.765L432.42 139.674C434.479 133.676 436.854 127.791 439.534 122.043C444.869 110.541 455.902 111.723 459.154 122.195Z" fill="black"/>
<path d="M286.51 18.2166H279.033V19.4217H286.51V18.2166Z" fill="#2B65B1"/>
<path d="M383.29 65.9137L382.385 85.9939L383.589 86.0481L384.493 65.9679L383.29 65.9137Z" fill="#2B65B1"/>
<path d="M380.963 23.6223H242.903L230.057 311.115H368.117L380.963 23.6223Z" fill="#2B65B1"/>
<path opacity="0.56" d="M376.846 27.5769H238.786L225.939 315.069H363.999L376.846 27.5769Z" fill="#FAFAFA"/>
<path opacity="0.07" d="M372.727 31.5198H234.667L221.809 319.012H359.869L372.727 31.5198Z" fill="#2B65B1"/>
<path d="M357.015 156.908H239.172L238.189 178.904H356.032L357.015 156.908Z" fill="white"/>
<path d="M303.979 140.856H239.886L239.453 150.696H303.546L303.979 140.856Z" fill="#2B65B1"/>
<path d="M354.358 216.274H236.516L235.533 238.27H353.376L354.358 216.274Z" fill="white"/>
<path opacity="0.47" d="M332.748 267.977H253.504L252.322 294.337H331.566L332.748 267.977Z" fill="#2B65B1"/>
<path d="M327.448 298.432H248.204C248.169 298.441 248.133 298.441 248.099 298.432C248.087 298.398 248.087 298.361 248.099 298.326L249.269 271.955C249.268 271.937 249.272 271.919 249.279 271.902C249.287 271.886 249.297 271.871 249.31 271.859C249.323 271.847 249.339 271.838 249.356 271.832C249.373 271.826 249.391 271.824 249.409 271.826H328.653C328.668 271.819 328.684 271.815 328.7 271.815C328.716 271.815 328.732 271.819 328.747 271.826C328.755 271.84 328.759 271.856 328.759 271.873C328.759 271.889 328.755 271.905 328.747 271.92L327.6 298.35C327.586 298.377 327.564 298.4 327.537 298.414C327.51 298.429 327.479 298.435 327.448 298.432ZM248.344 298.151H327.308L328.478 272.06H249.514L248.344 298.151Z" fill="white"/>
<path d="M290.137 200.222H237.23L236.797 210.074H289.693L290.137 200.222Z" fill="#2B65B1"/>
<path d="M331.238 85.8543C330.936 92.2558 328.659 98.4068 324.721 103.463C321.806 107.282 318.055 110.382 313.755 112.526C309.455 114.67 304.722 115.8 299.917 115.83C296.035 115.859 292.188 115.094 288.612 113.58C285.037 112.067 281.809 109.837 279.128 107.029C276.447 104.221 274.369 100.893 273.023 97.2515C271.676 93.6099 271.09 89.7312 271.299 85.8543C271.711 77.8094 275.18 70.2256 280.998 64.6537C286.815 59.0819 294.542 55.943 302.597 55.8789C306.482 55.8427 310.334 56.6036 313.913 58.1146C317.493 59.6256 320.725 61.8546 323.409 64.6638C326.093 67.4731 328.173 70.803 329.52 74.4477C330.866 78.0925 331.451 81.9746 331.238 85.8543Z" fill="white"/>
<path d="M334.059 62.1502C333.983 63.8523 333.377 65.4883 332.327 66.8302C331.551 67.8445 330.552 68.668 329.409 69.2378C328.265 69.8075 327.006 70.1086 325.729 70.1179C324.491 70.1254 323.27 69.8297 322.173 69.2566C321.075 68.6835 320.135 67.8504 319.434 66.8302C318.506 65.4515 318.046 63.8104 318.124 62.1502C318.237 60.0142 319.16 58.0019 320.706 56.5235C322.252 55.0451 324.303 54.212 326.442 54.1942C327.474 54.1847 328.497 54.3867 329.448 54.7876C330.399 55.1885 331.257 55.7799 331.971 56.5253C332.685 57.2707 333.238 58.1543 333.597 59.1216C333.956 60.089 334.113 61.1197 334.059 62.1502Z" fill="#2B65B1"/>
<path d="M251.866 167.907C251.81 168.849 251.399 169.736 250.715 170.387C250.031 171.039 249.125 171.406 248.181 171.417C247.725 171.422 247.273 171.334 246.852 171.158C246.431 170.981 246.051 170.721 245.736 170.392C245.42 170.063 245.175 169.672 245.016 169.245C244.857 168.817 244.787 168.362 244.811 167.907C244.862 166.962 245.272 166.072 245.957 165.42C246.642 164.767 247.551 164.401 248.497 164.397C248.952 164.393 249.404 164.482 249.824 164.659C250.243 164.836 250.623 165.097 250.938 165.425C251.254 165.754 251.499 166.144 251.658 166.57C251.818 166.997 251.889 167.452 251.866 167.907Z" fill="#263238"/>
<path d="M267.638 167.907C267.584 168.851 267.174 169.739 266.489 170.39C265.805 171.042 264.898 171.409 263.952 171.417C263.497 171.421 263.046 171.331 262.627 171.154C262.208 170.977 261.829 170.716 261.515 170.387C261.2 170.059 260.956 169.669 260.798 169.242C260.64 168.816 260.571 168.361 260.594 167.907C260.645 166.964 261.053 166.076 261.736 165.424C262.419 164.772 263.324 164.404 264.268 164.397C264.724 164.391 265.177 164.479 265.597 164.656C266.018 164.832 266.398 165.093 266.713 165.422C267.029 165.751 267.274 166.141 267.433 166.568C267.592 166.996 267.662 167.451 267.638 167.907Z" fill="#263238"/>
<path d="M283.42 167.907C283.367 168.851 282.956 169.739 282.272 170.39C281.587 171.042 280.68 171.409 279.735 171.417C279.279 171.42 278.828 171.331 278.408 171.154C277.988 170.977 277.609 170.717 277.294 170.388C276.978 170.059 276.733 169.67 276.573 169.243C276.414 168.816 276.343 168.362 276.365 167.907C276.419 166.963 276.83 166.075 277.514 165.423C278.199 164.771 279.106 164.404 280.051 164.397C280.507 164.391 280.959 164.479 281.38 164.656C281.8 164.832 282.18 165.093 282.496 165.422C282.812 165.751 283.057 166.141 283.216 166.568C283.375 166.996 283.444 167.451 283.42 167.907Z" fill="#263238"/>
<path d="M249.21 227.273C249.153 228.215 248.742 229.102 248.058 229.753C247.374 230.405 246.468 230.772 245.524 230.783C245.068 230.786 244.617 230.697 244.197 230.52C243.777 230.343 243.398 230.082 243.083 229.754C242.767 229.425 242.522 229.036 242.363 228.609C242.203 228.182 242.132 227.728 242.154 227.273C242.208 226.329 242.619 225.441 243.303 224.789C243.988 224.137 244.895 223.77 245.84 223.763C246.295 223.759 246.747 223.848 247.167 224.025C247.587 224.202 247.966 224.463 248.281 224.791C248.597 225.12 248.842 225.509 249.001 225.936C249.161 226.363 249.232 226.818 249.21 227.273Z" fill="#263238"/>
<path d="M264.982 227.273C264.928 228.214 264.519 229.101 263.837 229.752C263.155 230.404 262.251 230.772 261.308 230.783C260.852 230.788 260.4 230.7 259.979 230.524C259.558 230.347 259.178 230.087 258.863 229.758C258.547 229.429 258.302 229.038 258.143 228.611C257.984 228.183 257.914 227.728 257.938 227.273C257.992 226.329 258.402 225.441 259.087 224.789C259.771 224.137 260.678 223.77 261.624 223.763C262.079 223.759 262.53 223.848 262.949 224.025C263.368 224.202 263.747 224.463 264.061 224.792C264.376 225.121 264.62 225.51 264.778 225.937C264.936 226.364 265.006 226.818 264.982 227.273Z" fill="#263238"/>
<path d="M280.801 227.272C280.747 228.216 280.337 229.104 279.652 229.756C278.968 230.408 278.061 230.775 277.115 230.782C276.66 230.784 276.209 230.694 275.79 230.517C275.371 230.339 274.993 230.078 274.678 229.75C274.363 229.422 274.117 229.033 273.957 228.607C273.797 228.181 273.725 227.727 273.746 227.272C273.802 226.33 274.213 225.443 274.897 224.792C275.581 224.14 276.487 223.773 277.431 223.762C277.887 223.757 278.339 223.845 278.76 224.021C279.181 224.198 279.561 224.458 279.876 224.787C280.192 225.116 280.437 225.507 280.596 225.934C280.755 226.362 280.825 226.817 280.801 227.272Z" fill="#263238"/>
<path d="M296.549 227.273C296.493 228.215 296.081 229.102 295.397 229.753C294.713 230.405 293.808 230.772 292.863 230.783C292.408 230.785 291.958 230.694 291.539 230.517C291.12 230.339 290.741 230.078 290.426 229.75C290.111 229.422 289.866 229.033 289.705 228.607C289.545 228.181 289.473 227.727 289.494 227.273C289.55 226.33 289.961 225.443 290.645 224.792C291.329 224.141 292.235 223.773 293.179 223.763C293.635 223.759 294.086 223.848 294.506 224.025C294.926 224.202 295.305 224.463 295.621 224.791C295.936 225.12 296.181 225.509 296.341 225.936C296.5 226.363 296.571 226.818 296.549 227.273Z" fill="#263238"/>
<path d="M312.39 227.273C312.334 228.215 311.922 229.102 311.238 229.753C310.554 230.405 309.649 230.772 308.704 230.783C308.248 230.788 307.796 230.7 307.375 230.524C306.955 230.347 306.575 230.087 306.259 229.758C305.943 229.429 305.698 229.038 305.539 228.611C305.38 228.183 305.311 227.728 305.335 227.273C305.388 226.329 305.799 225.441 306.483 224.789C307.168 224.137 308.075 223.77 309.02 223.763C309.476 223.759 309.927 223.848 310.347 224.025C310.767 224.202 311.146 224.463 311.462 224.791C311.777 225.12 312.022 225.509 312.182 225.936C312.341 226.363 312.412 226.818 312.39 227.273Z" fill="#263238"/>
<path d="M309.995 84.2934C314.892 79.5045 315.152 71.8285 310.575 67.1486C305.999 62.4686 298.319 62.5569 293.422 67.3458C288.525 72.1347 288.265 79.8107 292.841 84.4906C297.418 89.1706 305.098 89.0823 309.995 84.2934Z" fill="#2B65B1"/>
<path d="M324.721 103.463C321.806 107.282 318.055 110.383 313.755 112.526C309.455 114.67 304.722 115.8 299.917 115.83C295.258 115.87 290.661 114.762 286.532 112.606C282.402 110.449 278.866 107.309 276.236 103.463C281.923 97.8005 290.92 94.1033 300.888 94.1033C310.857 94.1033 319.538 97.8005 324.721 103.463Z" fill="#2B65B1"/>
<path opacity="0.1" d="M309.995 84.2934C314.892 79.5045 315.152 71.8285 310.575 67.1486C305.999 62.4686 298.319 62.5569 293.422 67.3458C288.525 72.1347 288.265 79.8107 292.841 84.4906C297.418 89.1706 305.098 89.0823 309.995 84.2934Z" fill="white"/>
<path opacity="0.1" d="M324.721 103.463C321.806 107.282 318.055 110.383 313.755 112.526C309.455 114.67 304.722 115.8 299.917 115.83C295.258 115.87 290.661 114.762 286.532 112.606C282.402 110.449 278.866 107.309 276.236 103.463C281.923 97.8005 290.92 94.1033 300.888 94.1033C310.857 94.1033 319.538 97.8005 324.721 103.463Z" fill="white"/>
<path d="M152.581 184.205C151.469 186.638 150.299 189.318 149.281 191.915C148.264 194.512 147.222 197.192 146.321 199.859C144.482 205.116 143.081 210.517 142.133 216.005L141.875 217.725C141.851 218.02 141.878 218.317 141.957 218.603C142.233 219.572 142.668 220.49 143.244 221.317C144.747 223.459 146.49 225.422 148.439 227.167C150.494 229.079 152.65 230.879 154.897 232.561C157.144 234.292 159.507 235.977 161.836 237.568L159.648 241.675C154.088 239.253 148.811 236.228 143.911 232.654C141.297 230.748 138.938 228.515 136.891 226.009C135.678 224.517 134.732 222.827 134.095 221.013C133.724 219.88 133.535 218.695 133.533 217.503C133.533 217.222 133.533 216.813 133.533 216.614V216.04L133.65 214.87C134.321 208.775 135.603 202.762 137.476 196.923C138.389 194.044 139.36 191.178 140.471 188.382C141.583 185.585 142.729 182.847 144.145 180.004L152.581 184.205Z" fill="#E58A7B"/>
<path d="M160.186 236.843L168.458 232.655L166.317 241.734C166.317 241.734 160.642 243.325 158.01 240.564L160.186 236.843Z" fill="#E58A7B"/>
<path d="M176.027 234.14L173.828 241.652L166.316 241.734L168.458 232.655L176.027 234.14Z" fill="#E58A7B"/>
<path d="M187.703 140.4C188.146 142.021 188.761 143.59 189.54 145.08C189.313 145.338 189.02 145.53 188.692 145.635C188.365 145.74 188.015 145.754 187.68 145.677L187.703 140.4Z" fill="#DF5753"/>
<path d="M187.458 140.47C187.942 140.47 188.335 139.868 188.335 139.125C188.335 138.381 187.942 137.779 187.458 137.779C186.973 137.779 186.58 138.381 186.58 139.125C186.58 139.868 186.973 140.47 187.458 140.47Z" fill="#263238"/>
<path d="M187.201 137.826L188.98 137.323C188.98 137.323 188.114 138.703 187.201 137.826Z" fill="#263238"/>
<path d="M164.853 148.988C165.917 154.429 166.982 164.409 163.168 168.047C163.168 168.047 164.666 173.57 174.786 173.57C185.913 173.57 180.098 168.047 180.098 168.047C174.026 166.597 174.178 162.092 175.242 157.857L164.853 148.988Z" fill="#E58A7B"/>
<path d="M161.893 136.586C162.454 145.677 162.501 149.538 167.088 154.206C174.002 161.226 185.047 158.558 187.212 149.526C189.165 141.336 187.925 127.857 179.022 124.242C177.067 123.437 174.94 123.144 172.84 123.39C170.741 123.637 168.739 124.414 167.024 125.65C165.309 126.886 163.938 128.539 163.04 130.452C162.142 132.366 161.747 134.477 161.893 136.586Z" fill="#E58A7B"/>
<path d="M162.795 126.36C158.232 128.021 152.148 126.781 154.535 140.856C157.062 155.762 153.178 160.664 153.178 160.664C153.178 160.664 170.482 164.35 188.149 160.442C188.149 160.442 182.755 151.012 184.265 144.062C186.195 135.287 184.674 132.046 184.674 132.046C184.674 132.046 169.207 124.02 162.795 126.36Z" fill="#263238"/>
<path d="M182.1 141.324C182.104 143.053 182.599 144.745 183.527 146.203C184.767 148.099 186.23 147.373 186.592 145.361C186.92 143.594 186.674 140.47 185.095 139.253C183.515 138.037 182.123 139.23 182.1 141.324Z" fill="#E58A7B"/>
<path d="M158.827 127.893C157.517 124.207 163.764 118.533 176.985 120.873C190.206 123.213 190.78 134.222 190.78 134.222L188.112 131.04L188.229 134.386L174.645 136.995L158.827 127.893Z" fill="#263238"/>
<path d="M159.951 168.667C159.873 168.133 160.007 167.589 160.324 167.152C160.641 166.715 161.116 166.419 161.648 166.327C165.766 165.649 175.126 164.268 179.83 164.923C183.34 165.415 184.252 167.45 184.404 169.123C184.428 169.416 184.389 169.711 184.29 169.988C184.19 170.264 184.032 170.516 183.827 170.727C183.622 170.937 183.375 171.102 183.101 171.209C182.827 171.315 182.533 171.362 182.24 171.346L161.905 170.434C161.426 170.41 160.97 170.221 160.614 169.899C160.258 169.577 160.024 169.142 159.951 168.667Z" fill="#2B65B1"/>
<path opacity="0.6" d="M159.951 168.667C159.873 168.133 160.007 167.589 160.324 167.152C160.641 166.715 161.116 166.419 161.648 166.327C165.766 165.649 175.126 164.268 179.83 164.923C183.34 165.415 184.252 167.45 184.404 169.123C184.428 169.416 184.389 169.711 184.29 169.988C184.19 170.264 184.032 170.516 183.827 170.727C183.622 170.937 183.375 171.102 183.101 171.209C182.827 171.315 182.533 171.362 182.24 171.346L161.905 170.434C161.426 170.41 160.97 170.221 160.614 169.899C160.258 169.577 160.024 169.142 159.951 168.667Z" fill="black"/>
<path d="M171.709 373.066L179.255 378.308L191.88 361.191L184.333 355.961L171.709 373.066Z" fill="#E58A7B"/>
<path d="M154.113 372.727L162.081 377.266L173.254 359.167L165.287 354.627L154.113 372.727Z" fill="#E58A7B"/>
<path d="M191.868 361.191L185.363 370.012L177.816 364.783L184.322 355.961L191.868 361.191Z" fill="#CF6F64"/>
<path d="M165.274 354.627L173.253 359.178L167.497 368.503L159.518 363.952L165.274 354.627Z" fill="#CF6F64"/>
<path d="M178.073 225.81C178.073 225.81 207.534 262.934 202 298.443C197.542 327.12 171.685 365.952 171.685 365.952L159.529 359.915C168.097 342.746 175.409 324.978 181.408 306.75C183.257 301.092 183.797 295.086 182.987 289.188C182.176 283.29 180.036 277.653 176.728 272.703C161.798 250.906 137.884 263.882 153.971 225.81H178.073Z" fill="#2B65B1"/>
<path opacity="0.6" d="M178.073 225.81C178.073 225.81 207.534 262.934 202 298.443C197.542 327.12 171.685 365.952 171.685 365.952L159.529 359.915C168.097 342.746 175.409 324.978 181.408 306.75C183.257 301.092 183.797 295.086 182.987 289.188C182.176 283.29 180.036 277.653 176.728 272.703C161.798 250.906 137.884 263.882 153.971 225.81H178.073Z" fill="black"/>
<path opacity="0.4" d="M192.524 249.655L188.242 245.396C188.242 245.735 196.537 296.946 198.866 311.337C200.24 307.133 201.292 302.831 202.013 298.467C204.751 281.046 199.03 263.25 192.524 249.655Z" fill="black"/>
<path d="M191.224 225.81C191.224 225.81 226.698 272.469 227.705 300.444C228.535 323.844 189.095 369.182 189.095 369.182L177.629 361.764C177.629 361.764 200.713 329.565 206.528 303.264C204.281 277.196 156.779 225.81 156.779 225.81H191.224Z" fill="#2B65B1"/>
<path opacity="0.6" d="M191.224 225.81C191.224 225.81 226.698 272.469 227.705 300.444C228.535 323.844 189.095 369.182 189.095 369.182L177.629 361.764C177.629 361.764 200.713 329.565 206.528 303.264C204.281 277.196 156.779 225.81 156.779 225.81H191.224Z" fill="black"/>
<path d="M147.338 170.13C143.547 171.031 139.908 184.813 139.908 184.813L154.732 194.711C154.732 194.711 159.67 183.807 157.938 179.033C156.148 174.061 152.1 168.995 147.338 170.13Z" fill="#2B65B1"/>
<path opacity="0.2" d="M150.241 179.01L149.211 191.026L154.722 194.723C156.243 191.298 157.37 187.71 158.08 184.029L150.241 179.01Z" fill="black"/>
<path d="M195.612 170.399C195.612 170.399 199.988 171.932 191.225 225.798H153.948C154.58 210.588 154.592 201.228 147.338 170.13C152.557 169.054 157.848 168.358 163.168 168.047C168.804 167.643 174.462 167.643 180.098 168.047C187.375 168.714 195.612 170.399 195.612 170.399Z" fill="#FFA500"/>
<path d="M199.404 179.01C200.246 181.35 201.135 183.865 202.071 186.287C203.007 188.709 203.897 191.201 204.844 193.658L207.711 201.006L208.436 202.843L208.811 203.755L208.986 204.212C208.986 204.294 208.986 204.294 208.986 204.282C208.772 203.98 208.492 203.732 208.167 203.556C207.704 203.284 207.182 203.128 206.646 203.1C206.2 203.086 205.757 203.17 205.347 203.346C204.809 203.592 204.809 203.697 204.821 203.685C204.918 203.607 205.005 203.517 205.078 203.416C205.726 202.566 206.286 201.652 206.751 200.69C207.301 199.614 207.828 198.467 208.354 197.309C209.384 194.969 210.332 192.547 211.279 190.101C212.227 187.656 213.128 185.187 214.005 182.695L216.673 175.231L221.177 176.401C220.288 181.736 219.142 186.931 217.761 192.219C217.094 194.852 216.31 197.461 215.421 200.093C214.976 201.415 214.485 202.726 213.923 204.071C213.338 205.532 212.617 206.934 211.771 208.26C211.459 208.706 211.115 209.128 210.741 209.523C210.144 210.169 209.418 210.683 208.612 211.033C207.896 211.34 207.12 211.484 206.342 211.454C205.47 211.421 204.62 211.168 203.873 210.717C202.992 210.167 202.26 209.407 201.744 208.506C201.568 208.201 201.416 207.897 201.311 207.675L201.089 207.23L200.644 206.318L199.755 204.504C198.585 202.071 197.415 199.614 196.397 197.145C195.379 194.676 194.303 192.172 193.296 189.657C192.29 187.141 191.389 184.626 190.535 181.911L199.404 179.01Z" fill="#E58A7B"/>
<path d="M195.612 170.398C200.093 171.463 205.136 184.708 205.136 184.708L191.81 196.045C191.81 196.045 183.187 181.607 184.93 176.845C186.743 171.884 189.762 169.006 195.612 170.398Z" fill="#2B65B1"/>
<path d="M218.791 171.042L223.471 167.135L226.724 172.201L224.325 176.424C224.325 176.424 220.511 179.934 217.141 178.144C216.607 176.942 216.478 175.598 216.776 174.317C217.074 173.035 217.781 171.886 218.791 171.042Z" fill="#E58A7B"/>
<path d="M231.918 167.146L231.567 168.422L224.161 169.662L223.436 167.135L231.918 167.146Z" fill="#E58A7B"/>
<path d="M190.008 369.778L176.646 361.144L179.045 356.979L194.056 366.21L190.008 369.778Z" fill="#2B65B1"/>
<path d="M167.31 376.658C166.138 376.515 165.011 376.115 164.011 375.488C163.969 375.474 163.933 375.447 163.908 375.411C163.883 375.375 163.869 375.333 163.869 375.289C163.869 375.245 163.883 375.203 163.908 375.167C163.933 375.131 163.969 375.105 164.011 375.09C164.373 374.973 167.521 374.002 168.433 374.751C168.536 374.836 168.614 374.947 168.659 375.073C168.704 375.198 168.715 375.333 168.691 375.465C168.674 375.675 168.604 375.878 168.488 376.054C168.371 376.23 168.211 376.374 168.024 376.471C167.805 376.59 167.56 376.655 167.31 376.658ZM164.677 375.371C166.14 376.12 167.31 376.389 167.872 376.108C167.994 376.04 168.097 375.942 168.17 375.824C168.244 375.705 168.286 375.569 168.293 375.429C168.293 375.242 168.293 375.16 168.187 375.114C167.696 374.716 165.941 375.02 164.654 375.371H164.677Z" fill="#263238"/>
<path d="M164.093 375.57C164.031 375.569 163.972 375.544 163.929 375.5C163.911 375.468 163.902 375.431 163.902 375.395C163.902 375.358 163.911 375.322 163.929 375.289C163.929 375.184 164.689 372.645 165.883 372.072C166.035 372.002 166.201 371.966 166.368 371.966C166.536 371.966 166.701 372.002 166.854 372.072C167.018 372.124 167.16 372.229 167.258 372.371C167.355 372.513 167.403 372.684 167.392 372.856C167.31 373.909 165.169 375.36 164.186 375.605L164.093 375.57ZM166.362 372.376C166.249 372.38 166.137 372.407 166.035 372.458C165.309 372.809 164.713 374.178 164.42 375.008C165.45 374.576 166.866 373.429 166.912 372.786C166.912 372.68 166.912 372.552 166.643 372.435C166.556 372.387 166.461 372.356 166.362 372.341V372.376Z" fill="#263238"/>
<path d="M184.006 381.712C182.683 381.712 180.847 380.016 179.84 378.975C179.815 378.939 179.801 378.896 179.801 378.852C179.801 378.808 179.815 378.765 179.84 378.729C179.863 378.691 179.896 378.66 179.935 378.64C179.975 378.619 180.018 378.61 180.063 378.612C180.531 378.612 184.591 379.22 185.164 380.367C185.225 380.47 185.257 380.587 185.257 380.706C185.257 380.826 185.225 380.943 185.164 381.045C185.078 381.224 184.948 381.378 184.786 381.492C184.625 381.607 184.436 381.679 184.24 381.701L184.006 381.712ZM180.613 379.138C182.087 380.566 183.385 381.361 184.123 381.268C184.252 381.251 184.375 381.203 184.481 381.127C184.587 381.052 184.673 380.951 184.731 380.835C184.757 380.795 184.771 380.748 184.771 380.7C184.771 380.653 184.757 380.606 184.731 380.566C184.427 379.934 182.262 379.396 180.613 379.138Z" fill="#263238"/>
<path d="M180.742 379.08C180.479 379.087 180.217 379.068 179.958 379.021C179.922 379.016 179.888 379.001 179.859 378.979C179.83 378.956 179.808 378.927 179.794 378.893C179.777 378.858 179.768 378.82 179.768 378.782C179.768 378.743 179.777 378.705 179.794 378.67C179.864 378.589 181.444 376.681 182.941 376.553C183.365 376.52 183.785 376.654 184.111 376.927C184.568 377.325 184.544 377.676 184.427 377.898C184.135 378.694 182.111 379.08 180.742 379.08ZM180.438 378.647C181.748 378.717 183.842 378.284 184.111 377.711C184.111 377.711 184.205 377.524 183.901 377.266C183.78 377.161 183.638 377.082 183.485 377.034C183.332 376.985 183.171 376.969 183.012 376.986C182.003 377.267 181.105 377.851 180.438 378.659V378.647Z" fill="#263238"/>
<path d="M164.409 374.306L154.487 371.498C154.316 371.447 154.132 371.46 153.97 371.535C153.808 371.611 153.68 371.744 153.61 371.908L150.263 379.431C150.185 379.624 150.148 379.831 150.155 380.039C150.162 380.247 150.214 380.451 150.305 380.638C150.397 380.824 150.527 380.99 150.687 381.122C150.848 381.255 151.034 381.353 151.235 381.408C154.745 382.321 156.429 382.578 160.793 383.83C163.484 384.579 167.322 385.971 171.031 387.024C174.74 388.077 175.98 384.462 174.541 383.69C168.036 380.25 167.521 377.84 165.743 375.266C165.424 374.8 164.952 374.46 164.409 374.306Z" fill="#2B65B1"/>
<path d="M180.11 377.606L171.64 371.756C171.496 371.651 171.319 371.603 171.142 371.62C170.965 371.638 170.801 371.719 170.68 371.85L165.064 377.887C164.927 378.043 164.825 378.226 164.765 378.425C164.704 378.623 164.687 378.832 164.713 379.038C164.74 379.244 164.81 379.442 164.919 379.619C165.028 379.795 165.173 379.947 165.345 380.063C168.328 382.064 169.873 382.871 173.605 385.457C175.945 387.048 180.473 390.581 183.632 392.781C186.791 394.98 189.143 391.962 188.02 390.768C182.989 385.398 181.889 382.029 181.058 378.975C180.914 378.421 180.578 377.936 180.11 377.606Z" fill="#2B65B1"/>
<path d="M173.243 366.725L157.975 359.131L159.554 354.99L175.864 362.992L173.243 366.725Z" fill="#2B65B1"/>
<path d="M153.387 223.61L152.1 226.98C151.971 227.237 152.276 227.507 152.709 227.507H191.412C191.751 227.507 192.032 227.343 192.056 227.132L192.383 223.786C192.383 223.564 192.114 223.365 191.751 223.365H153.995C153.882 223.354 153.767 223.371 153.661 223.414C153.556 223.456 153.461 223.524 153.387 223.61Z" fill="#2B65B1"/>
<path opacity="0.4" d="M153.387 223.61L152.1 226.98C151.971 227.237 152.276 227.507 152.709 227.507H191.412C191.751 227.507 192.032 227.343 192.056 227.132L192.383 223.786C192.383 223.564 192.114 223.365 191.751 223.365H153.995C153.882 223.354 153.767 223.371 153.661 223.414C153.556 223.456 153.461 223.524 153.387 223.61Z" fill="white"/>
<path d="M159.483 227.834H158.465C158.266 227.834 158.114 227.729 158.126 227.6L158.605 223.259C158.605 223.142 158.793 223.037 158.991 223.037H160.009C160.208 223.037 160.36 223.142 160.349 223.259L159.869 227.6C159.857 227.729 159.682 227.834 159.483 227.834Z" fill="#2B65B1"/>
<path d="M183.352 227.834H182.346C182.147 227.834 181.995 227.729 182.006 227.6L182.475 223.259C182.475 223.142 182.673 223.037 182.872 223.037H183.878C184.077 223.037 184.241 223.142 184.218 223.259L183.75 227.6C183.691 227.729 183.563 227.834 183.352 227.834Z" fill="#2B65B1"/>
<g style="mix-blend-mode:multiply">
<path d="M158.594 425.973C175.905 425.973 189.939 424.957 189.939 423.704C189.939 422.45 175.905 421.434 158.594 421.434C141.283 421.434 127.25 422.45 127.25 423.704C127.25 424.957 141.283 425.973 158.594 425.973Z" fill="#F5F5F5"/>
</g>
<path d="M177.689 420.498C172.143 418.883 165.989 416.812 162.268 414.648C162.163 414.578 162.046 414.543 161.94 414.484V389.376H173.161C174.013 389.326 174.813 388.952 175.398 388.331C175.983 387.71 176.309 386.889 176.309 386.036C176.309 385.182 175.983 384.361 175.398 383.74C174.813 383.12 174.013 382.746 173.161 382.695H161.999V268.246H155.26V382.695H144.11C143.654 382.668 143.198 382.735 142.77 382.89C142.341 383.046 141.949 383.288 141.617 383.601C141.285 383.913 141.02 384.291 140.84 384.71C140.659 385.128 140.566 385.58 140.566 386.036C140.566 386.492 140.659 386.943 140.84 387.362C141.02 387.78 141.285 388.158 141.617 388.471C141.949 388.784 142.341 389.025 142.77 389.181C143.198 389.337 143.654 389.403 144.11 389.376H155.26V414.449C155.154 414.449 155.049 414.543 154.944 414.613C151.165 416.812 145.057 418.883 139.512 420.463C139.137 420.576 138.815 420.82 138.605 421.15C138.394 421.48 138.309 421.874 138.364 422.262C138.419 422.649 138.611 423.004 138.905 423.262C139.2 423.52 139.577 423.664 139.968 423.669H177.232C177.606 423.643 177.96 423.49 178.235 423.235C178.51 422.98 178.689 422.639 178.742 422.268C178.796 421.897 178.72 421.519 178.528 421.197C178.337 420.874 178.04 420.628 177.689 420.498Z" fill="#E0E0E0"/>
<path d="M179.408 256.593H137.803C134.456 256.593 131.742 259.306 131.742 262.653V275.02C131.742 278.367 134.456 281.081 137.803 281.081H179.408C182.755 281.081 185.469 278.367 185.469 275.02V262.653C185.469 259.306 182.755 256.593 179.408 256.593Z" fill="#2B65B1"/>
<path d="M137.418 281.092V283.222C137.418 284.977 139.325 286.404 141.665 286.404H175.595C177.935 286.404 179.842 284.977 179.842 283.222V281.092H137.418Z" fill="#2B65B1"/>
<path opacity="0.3" d="M137.418 281.092V283.222C137.418 284.977 139.325 286.404 141.665 286.404H175.595C177.935 286.404 179.842 284.977 179.842 283.222V281.092H137.418Z" fill="white"/>
</svg>
