<svg width="24" height="24" viewBox="0 0 24 24" fill="none" xmlns="http://www.w3.org/2000/svg">
<path d="M11.9995 19.75H9.31945C8.15945 19.75 7.14945 19.05 6.74945 17.97C6.33945 16.89 6.63945 15.7 7.50945 14.93L15.4995 7.94C15.9795 7.52 15.9895 6.95 15.8495 6.56C15.6995 6.17 15.3195 5.75 14.6795 5.75H11.9995C11.5895 5.75 11.2495 5.41 11.2495 5C11.2495 4.59 11.5895 4.25 11.9995 4.25H14.6795C15.8395 4.25 16.8495 4.95 17.2495 6.03C17.6595 7.11 17.3595 8.3 16.4895 9.07L8.49945 16.06C8.01945 16.48 8.00945 17.05 8.14945 17.44C8.29945 17.83 8.67945 18.25 9.31945 18.25H11.9995C12.4095 18.25 12.7495 18.59 12.7495 19C12.7495 19.41 12.4095 19.75 11.9995 19.75Z" fill="#FFA500"/>
<path d="M19.998 15H16.998C15.898 15 14.998 15.9 14.998 17V20C14.998 21.1 15.898 22 16.998 22H19.998C21.098 22 21.998 21.1 21.998 20V17C21.998 15.9 21.098 15 19.998 15ZM18.508 19.5C17.958 19.5 17.508 19.05 17.508 18.5C17.508 17.95 17.948 17.5 18.508 17.5H18.518C19.068 17.5 19.518 17.95 19.518 18.5C19.518 19.05 19.068 19.5 18.508 19.5Z" fill="#FFA500"/>
<path d="M5.46875 2C3.53875 2 1.96875 3.57 1.96875 5.5C1.96875 7.43 3.53875 9 5.46875 9C7.39875 9 8.96875 7.43 8.96875 5.5C8.96875 3.57 7.40875 2 5.46875 2ZM5.50875 6.5C4.95875 6.5 4.50875 6.05 4.50875 5.5C4.50875 4.95 4.94875 4.5 5.50875 4.5H5.51875C6.06875 4.5 6.51875 4.95 6.51875 5.5C6.51875 6.05 6.06875 6.5 5.50875 6.5Z" fill="#FFA500"/>
</svg>
