<svg width="36" height="36" viewBox="0 0 36 36" fill="none" xmlns="http://www.w3.org/2000/svg">
<rect x="0.5" y="0.5" width="35" height="35" rx="17.5" fill="#505A5E"/>
<path opacity="0.4" d="M25.1045 24.1807H20.0429C19.5491 24.1807 19.1475 24.5887 19.1475 25.0903C19.1475 25.5929 19.5491 26 20.0429 26H25.1045C25.5984 26 26 25.5929 26 25.0903C26 24.5887 25.5984 24.1807 25.1045 24.1807Z" fill="white"/>
<path d="M16.4969 13.4702L21.2932 17.3458C21.4089 17.4385 21.4287 17.6086 21.3384 17.7271L15.6522 25.1363C15.2948 25.594 14.768 25.8529 14.2036 25.8625L11.0995 25.9007C10.934 25.9026 10.7891 25.7879 10.7515 25.6236L10.046 22.5563C9.92372 21.9926 10.046 21.4097 10.4034 20.9606L16.1178 13.516C16.21 13.3966 16.3803 13.3756 16.4969 13.4702Z" fill="white"/>
<path opacity="0.4" d="M23.4408 15.0359L22.5162 16.1902C22.423 16.3078 22.2556 16.3269 22.1399 16.2332C21.0158 15.3236 18.1375 12.9892 17.3389 12.3423C17.2222 12.2467 17.2062 12.0767 17.3003 11.9582L18.192 10.8507C19.001 9.80919 20.4119 9.71364 21.5501 10.6214L22.8576 11.6629C23.3938 12.0834 23.7512 12.6376 23.8735 13.2204C24.0146 13.8616 23.8641 14.4913 23.4408 15.0359Z" fill="white"/>
<rect x="0.5" y="0.5" width="35" height="35" rx="17.5" stroke="white"/>
</svg>
