<svg width="55" height="56" viewBox="0 0 55 56" fill="none" xmlns="http://www.w3.org/2000/svg">
<rect y="0.5" width="55" height="55" rx="10" fill="#2B65B1"/>
<path d="M35.2481 30.6098L38.6502 34.0119C39.1077 34.4694 39.1077 35.2112 38.6502 35.6686C36.1768 38.142 32.2611 38.4203 29.4628 36.3216L27.4388 34.8036C25.1989 33.1236 23.2091 31.1338 21.5291 28.8939L20.0111 26.8699C17.9124 24.0716 18.1907 20.1559 20.6641 17.6825C21.1215 17.2251 21.8633 17.2251 22.3208 17.6825L25.7229 21.0846C26.2246 21.5864 26.2246 22.3998 25.7229 22.9015L24.411 24.2134C24.2025 24.4219 24.1508 24.7404 24.2826 25.0041C25.8072 28.0532 28.2795 30.5255 31.3286 32.0501C31.5923 32.1819 31.9108 32.1302 32.1193 31.9217L33.4312 30.6098C33.9329 30.1081 34.7463 30.1081 35.2481 30.6098Z" fill="white"/>
<path fill-rule="evenodd" clip-rule="evenodd" d="M38.6501 35.6686C39.1075 35.2112 39.1075 34.4694 38.6501 34.0119L35.248 30.6098C34.7462 30.1081 33.9328 30.1081 33.4311 30.6098L32.4124 31.6285L37.429 36.6451C37.8635 36.3709 38.2735 36.0452 38.6501 35.6686ZM19.6875 18.9035L24.7041 23.9202L25.7228 22.9015C26.2245 22.3998 26.2245 21.5863 25.7228 21.0846L22.3206 17.6825C22.3206 17.6824 22.3205 17.6823 22.3204 17.6823C21.863 17.2251 21.1216 17.2251 20.6642 17.6823C20.6641 17.6824 20.664 17.6824 20.6639 17.6825C20.6637 17.6827 20.6635 17.683 20.6633 17.6832C20.287 18.0596 19.9615 18.4694 19.6875 18.9035Z" fill="white"/>
</svg>

