<svg width="499" height="308" viewBox="0 0 499 308" fill="none" xmlns="http://www.w3.org/2000/svg">
<g clip-path="url(#clip0_32_75)">
<path d="M120.862 277.625L121.417 265.22C127.201 262.145 133.653 260.521 140.211 260.489C131.185 267.827 132.313 281.973 126.193 291.841C124.261 294.905 121.66 297.496 118.583 299.424C115.507 301.352 112.033 302.567 108.421 302.978L100.867 307.577C99.8305 301.832 100.059 295.931 101.537 290.281C103.015 284.631 105.706 279.368 109.427 274.852C111.539 272.34 113.962 270.102 116.637 268.191C118.446 272.934 120.862 277.625 120.862 277.625Z" fill="#F2F2F2"/>
<path d="M443.169 20.213H91.5333C91.3857 20.2098 91.2453 20.1492 91.142 20.0443C91.0388 19.9394 90.981 19.7984 90.981 19.6516C90.981 19.5048 91.0388 19.3638 91.142 19.2588C91.2453 19.1539 91.3857 19.0933 91.5333 19.0901H443.169C443.317 19.0933 443.457 19.1539 443.561 19.2588C443.664 19.3638 443.722 19.5048 443.722 19.6516C443.722 19.7984 443.664 19.9394 443.561 20.0443C443.457 20.1492 443.317 20.2098 443.169 20.213Z" fill="#CACACA"/>
<path d="M103.965 12.3524C107.32 12.3524 110.041 9.58723 110.041 6.17621C110.041 2.76518 107.32 0 103.965 0C100.61 0 97.8894 2.76518 97.8894 6.17621C97.8894 9.58723 100.61 12.3524 103.965 12.3524Z" fill="#3F3D56"/>
<path d="M124.953 12.3524C128.309 12.3524 131.029 9.58723 131.029 6.17621C131.029 2.76518 128.309 0 124.953 0C121.598 0 118.878 2.76518 118.878 6.17621C118.878 9.58723 121.598 12.3524 124.953 12.3524Z" fill="#3F3D56"/>
<path d="M145.942 12.3524C149.297 12.3524 152.017 9.58723 152.017 6.17621C152.017 2.76518 149.297 0 145.942 0C142.586 0 139.866 2.76518 139.866 6.17621C139.866 9.58723 142.586 12.3524 145.942 12.3524Z" fill="#3F3D56"/>
<path d="M430.592 1.53088H415.683C415.387 1.53672 415.106 1.65755 414.899 1.86744C414.692 2.07732 414.576 2.35953 414.576 2.65345C414.576 2.94737 414.692 3.22957 414.899 3.43945C415.106 3.64934 415.387 3.77018 415.683 3.77601H430.592C430.887 3.77018 431.169 3.64934 431.376 3.43945C431.582 3.22957 431.698 2.94737 431.698 2.65345C431.698 2.35953 431.582 2.07732 431.376 1.86744C431.169 1.65755 430.887 1.53672 430.592 1.53088Z" fill="#3F3D56"/>
<path d="M430.592 5.74463H415.683C415.387 5.75046 415.106 5.8713 414.899 6.08118C414.692 6.29107 414.576 6.57327 414.576 6.86719C414.576 7.16111 414.692 7.44331 414.899 7.6532C415.106 7.86309 415.387 7.98392 415.683 7.98975H430.592C430.887 7.98392 431.169 7.86309 431.376 7.6532C431.582 7.44331 431.698 7.16111 431.698 6.86719C431.698 6.57327 431.582 6.29107 431.376 6.08118C431.169 5.8713 430.887 5.75046 430.592 5.74463Z" fill="#3F3D56"/>
<path d="M430.592 9.95276H415.683C415.387 9.95859 415.106 10.0794 414.899 10.2893C414.692 10.4992 414.576 10.7814 414.576 11.0753C414.576 11.3692 414.692 11.6514 414.899 11.8613C415.106 12.0712 415.387 12.1921 415.683 12.1979H430.592C430.887 12.1921 431.169 12.0712 431.376 11.8613C431.582 11.6514 431.698 11.3692 431.698 11.0753C431.698 10.7814 431.582 10.4992 431.376 10.2893C431.169 10.0794 430.887 9.95859 430.592 9.95276Z" fill="#3F3D56"/>
<path d="M365.199 64.2247H123.846C122.656 64.2248 121.516 64.6942 120.674 65.5299C119.833 66.3656 119.359 67.4992 119.358 68.6818V181.972C119.359 183.155 119.832 184.29 120.674 185.126C121.515 185.963 122.656 186.434 123.846 186.435H365.199C366.388 186.432 367.528 185.961 368.368 185.125C369.208 184.288 369.68 183.155 369.681 181.972V68.6818C369.68 67.5001 369.208 66.3671 368.367 65.5315C367.527 64.6959 366.388 64.2259 365.199 64.2247Z" fill="#F1F0FF"/>
<path d="M301.448 118.805C300.259 118.806 299.12 119.276 298.28 120.111C297.439 120.947 296.967 122.08 296.966 123.262V155.263C296.967 156.445 297.439 157.579 298.279 158.415C299.119 159.252 300.259 159.723 301.448 159.726H369.681V118.805H301.448Z" fill="#536DFE"/>
<path opacity="0.5" d="M484.413 159.723H301.45C300.261 159.722 299.121 159.252 298.28 158.415C297.439 157.579 296.966 156.445 296.964 155.263V123.263C296.966 122.08 297.439 120.946 298.28 120.11C299.121 119.274 300.261 118.804 301.45 118.802H484.413C485.602 118.804 486.743 119.274 487.583 120.11C488.424 120.946 488.897 122.08 488.899 123.263V155.263C488.897 156.445 488.424 157.579 487.583 158.415C486.743 159.252 485.602 159.722 484.413 159.723Z" fill="#536DFE"/>
<path d="M326.193 148.547C330.213 148.547 333.472 145.306 333.472 141.309C333.472 137.311 330.213 134.07 326.193 134.07C322.173 134.07 318.914 137.311 318.914 141.309C318.914 145.306 322.173 148.547 326.193 148.547Z" fill="white"/>
<path d="M478.744 139.205H347.218C346.643 139.205 346.092 138.978 345.686 138.574C345.279 138.17 345.051 137.622 345.051 137.05C345.051 136.478 345.279 135.93 345.686 135.526C346.092 135.122 346.643 134.895 347.218 134.895H478.744C479.319 134.895 479.87 135.122 480.277 135.526C480.683 135.93 480.912 136.478 480.912 137.05C480.912 137.622 480.683 138.17 480.277 138.574C479.87 138.978 479.319 139.205 478.744 139.205Z" fill="white"/>
<path d="M428.789 147.722H347.218C346.644 147.722 346.092 147.495 345.686 147.091C345.279 146.687 345.051 146.139 345.051 145.567C345.051 144.995 345.279 144.447 345.686 144.043C346.092 143.638 346.644 143.411 347.218 143.411H428.789C429.364 143.411 429.916 143.638 430.322 144.043C430.729 144.447 430.957 144.995 430.957 145.567C430.957 146.139 430.729 146.687 430.322 147.091C429.916 147.495 429.364 147.722 428.789 147.722Z" fill="white"/>
<path d="M84.1972 301.675L90.4967 301.674L93.4935 277.513H84.196L84.1972 301.675Z" fill="#FFB6B6"/>
<path d="M82.5903 299.629L84.3634 299.629L91.286 296.83L94.9963 299.629H94.9967C97.0935 299.629 99.1043 300.457 100.587 301.932C102.07 303.406 102.903 305.405 102.903 307.49V307.746L82.5907 307.747L82.5903 299.629Z" fill="#2F2E41"/>
<path d="M27.2773 293.53L32.9157 296.325L46.4367 276.029L38.1158 271.905L27.2773 293.53Z" fill="#FFB6B6"/>
<path d="M26.7569 290.987L28.3438 291.774L35.7953 292.339L37.8602 296.49L37.8607 296.49C39.7372 297.42 41.1653 299.054 41.8308 301.031C42.4964 303.008 42.3449 305.167 41.4097 307.033L41.2951 307.262L23.1157 298.252L26.7569 290.987Z" fill="#2F2E41"/>
<path d="M86.9881 191.94L46.9344 192.979L47.631 212.374C47.631 212.374 46.9344 217.569 48.3276 218.954C49.7207 220.34 50.4173 220.34 49.7207 222.764C49.0241 225.189 47.2233 248.353 47.2233 248.353C47.2233 248.353 30.7841 277.257 31.4807 277.95C32.1773 278.643 32.8738 277.95 32.1773 279.682C31.4807 281.414 30.7841 280.721 31.4807 281.414C32.0977 282.075 32.679 282.769 33.2221 283.492H44.5753C44.5753 283.492 45.2101 280.028 45.2101 279.682C45.2101 279.336 45.9067 277.258 45.9067 276.911C45.9067 276.565 65.7422 255.667 65.7422 255.667L69.9218 221.032L80.0223 254.974C80.0223 254.974 80.0223 284.76 80.7189 285.452C81.4155 286.145 81.4155 285.799 81.0672 287.184C80.7189 288.569 79.3257 288.223 80.3706 289.262C81.4154 290.301 81.7638 288.569 81.4155 290.301L81.0672 292.033L94.4483 292.181C94.4483 292.181 95.8415 289.262 95.1449 288.223C94.4483 287.184 94.4901 287.468 95.34 285.767C96.1898 284.067 96.5381 283.721 96.1898 283.374C95.8415 283.028 95.8415 281.186 95.8415 281.186C95.8415 281.186 90.8194 213.067 90.8194 212.028C90.7931 211.493 90.8922 210.96 91.1087 210.469V209.059L89.7745 204.062L86.9881 191.94Z" fill="#2F2E41"/>
<path d="M483.631 131.803C480.591 131.803 477.619 130.907 475.092 129.228C472.564 127.548 470.594 125.161 469.431 122.369C468.268 119.576 467.963 116.503 468.556 113.538C469.149 110.573 470.613 107.85 472.763 105.713C474.912 103.575 477.651 102.12 480.632 101.53C483.613 100.94 486.704 101.243 489.512 102.4C492.321 103.556 494.721 105.515 496.41 108.029C498.099 110.542 499 113.497 499 116.52C499 120.573 497.381 124.461 494.498 127.327C491.616 130.193 487.707 131.803 483.631 131.803Z" fill="#536DFE"/>
<path d="M489.695 115.012H485.147V110.489C485.147 110.089 484.987 109.706 484.703 109.423C484.418 109.141 484.033 108.982 483.631 108.982C483.229 108.982 482.843 109.141 482.559 109.423C482.274 109.706 482.114 110.089 482.114 110.489V115.012H477.566C477.367 115.012 477.169 115.051 476.985 115.126C476.801 115.202 476.633 115.313 476.492 115.453C476.351 115.593 476.239 115.759 476.163 115.942C476.086 116.125 476.047 116.322 476.047 116.52C476.047 116.718 476.086 116.914 476.163 117.097C476.239 117.281 476.351 117.447 476.492 117.587C476.633 117.727 476.801 117.838 476.985 117.913C477.169 117.989 477.367 118.028 477.566 118.027H482.114V122.55C482.114 122.95 482.274 123.334 482.559 123.616C482.843 123.899 483.229 124.058 483.631 124.058C484.033 124.058 484.418 123.899 484.703 123.616C484.987 123.334 485.147 122.95 485.147 122.55V118.027H489.695C490.097 118.027 490.483 117.869 490.767 117.586C491.051 117.303 491.211 116.92 491.211 116.52C491.211 116.12 491.051 115.737 490.767 115.454C490.483 115.171 490.097 115.012 489.695 115.012Z" fill="white"/>
<path d="M249.069 159.93H190.672C189.482 159.931 188.342 160.402 187.5 161.239C186.659 162.075 186.186 163.21 186.185 164.393V186.435H253.551V164.393C253.55 163.21 253.077 162.077 252.237 161.24C251.397 160.404 250.257 159.933 249.069 159.93Z" fill="#536DFE"/>
<path opacity="0.5" d="M249.067 221.865H190.67C189.481 221.863 188.341 221.393 187.5 220.557C186.659 219.721 186.186 218.587 186.185 217.404V164.391C186.186 163.208 186.659 162.074 187.5 161.238C188.341 160.402 189.481 159.931 190.67 159.93H249.067C250.256 159.931 251.396 160.402 252.237 161.238C253.078 162.074 253.551 163.208 253.552 164.391V217.404C253.551 218.587 253.078 219.721 252.237 220.557C251.396 221.393 250.256 221.863 249.067 221.865Z" fill="#536DFE"/>
<path d="M207.875 185.058C211.896 185.058 215.154 181.818 215.154 177.82C215.154 173.822 211.896 170.582 207.875 170.582C203.855 170.582 200.596 173.822 200.596 177.82C200.596 181.818 203.855 185.058 207.875 185.058Z" fill="white"/>
<path d="M236.972 196.06H202.764C202.189 196.06 201.638 195.833 201.231 195.429C200.825 195.025 200.596 194.476 200.596 193.905C200.596 193.333 200.825 192.785 201.231 192.381C201.638 191.976 202.189 191.749 202.764 191.749H236.972C237.547 191.749 238.098 191.976 238.505 192.381C238.911 192.785 239.14 193.333 239.14 193.905C239.14 194.476 238.911 195.025 238.505 195.429C238.098 195.833 237.547 196.06 236.972 196.06Z" fill="white"/>
<path d="M219.271 204.577H202.764C202.189 204.577 201.638 204.35 201.231 203.946C200.825 203.542 200.596 202.993 200.596 202.422C200.596 201.85 200.825 201.302 201.231 200.897C201.638 200.493 202.189 200.266 202.764 200.266H219.271C219.846 200.266 220.397 200.493 220.804 200.897C221.211 201.302 221.439 201.85 221.439 202.422C221.439 202.993 221.211 203.542 220.804 203.946C220.397 204.35 219.846 204.577 219.271 204.577Z" fill="white"/>
<path d="M189.453 237.424C186.413 237.424 183.441 236.527 180.914 234.848C178.386 233.169 176.416 230.782 175.253 227.989C174.09 225.196 173.786 222.123 174.379 219.159C174.972 216.194 176.435 213.471 178.585 211.333C180.734 209.196 183.473 207.74 186.454 207.15C189.436 206.561 192.526 206.863 195.334 208.02C198.143 209.177 200.543 211.136 202.232 213.649C203.921 216.162 204.822 219.117 204.822 222.14C204.822 226.194 203.203 230.081 200.321 232.947C197.438 235.813 193.529 237.424 189.453 237.424Z" fill="#536DFE"/>
<path d="M195.517 220.633H190.969V216.11C190.969 215.71 190.809 215.326 190.525 215.044C190.241 214.761 189.855 214.602 189.453 214.602C189.051 214.602 188.665 214.761 188.381 215.044C188.096 215.326 187.937 215.71 187.937 216.11V220.633H183.388C183.189 220.632 182.992 220.671 182.807 220.747C182.623 220.822 182.456 220.933 182.314 221.073C182.173 221.213 182.061 221.379 181.985 221.563C181.909 221.746 181.869 221.942 181.869 222.14C181.869 222.338 181.909 222.535 181.985 222.718C182.061 222.901 182.173 223.067 182.314 223.207C182.456 223.347 182.623 223.458 182.807 223.534C182.992 223.609 183.189 223.648 183.388 223.648H187.937V228.171C187.937 228.57 188.096 228.954 188.381 229.237C188.665 229.519 189.051 229.678 189.453 229.678C189.855 229.678 190.241 229.519 190.525 229.237C190.809 228.954 190.969 228.57 190.969 228.171V223.648H195.517C195.919 223.648 196.305 223.489 196.589 223.206C196.874 222.923 197.033 222.54 197.033 222.14C197.033 221.74 196.874 221.357 196.589 221.074C196.305 220.791 195.919 220.633 195.517 220.633Z" fill="white"/>
<path d="M182.338 126.228H123.942C122.753 126.227 121.613 125.757 120.772 124.92C119.931 124.084 119.458 122.95 119.456 121.768V68.7542C119.458 67.5716 119.931 66.4379 120.772 65.6017C121.613 64.7655 122.753 64.2951 123.942 64.2938H182.338C183.528 64.2951 184.668 64.7655 185.509 65.6017C186.35 66.4379 186.823 67.5716 186.824 68.7542V121.768C186.823 122.95 186.35 124.084 185.509 124.92C184.668 125.757 183.528 126.227 182.338 126.228Z" fill="#536DFE"/>
<path d="M141.148 93.8459C145.168 93.8459 148.427 90.6052 148.427 86.6076C148.427 82.6101 145.168 79.3694 141.148 79.3694C137.128 79.3694 133.869 82.6101 133.869 86.6076C133.869 90.6052 137.128 93.8459 141.148 93.8459Z" fill="#536DFE"/>
<path d="M170.244 102.636H136.036C135.461 102.636 134.91 102.409 134.504 102.004C134.097 101.6 133.869 101.052 133.869 100.48C133.869 99.9086 134.097 99.3604 134.504 98.9561C134.91 98.5519 135.461 98.3248 136.036 98.3248H170.244C170.819 98.3248 171.37 98.5519 171.777 98.9561C172.183 99.3604 172.412 99.9086 172.412 100.48C172.412 101.052 172.183 101.6 171.777 102.004C171.37 102.409 170.819 102.636 170.244 102.636Z" fill="#536DFE"/>
<path d="M152.543 111.153H136.036C135.461 111.153 134.91 110.926 134.504 110.521C134.097 110.117 133.869 109.569 133.869 108.997C133.869 108.426 134.097 107.877 134.504 107.473C134.91 107.069 135.461 106.842 136.036 106.842H152.543C153.118 106.842 153.67 107.069 154.076 107.473C154.483 107.877 154.711 108.426 154.711 108.997C154.711 109.569 154.483 110.117 154.076 110.521C153.67 110.926 153.118 111.153 152.543 111.153Z" fill="#536DFE"/>
<path opacity="0.5" d="M182.338 126.228H123.942C122.753 126.227 121.613 125.757 120.772 124.92C119.931 124.084 119.458 122.95 119.456 121.768V68.7542C119.458 67.5716 119.931 66.4379 120.772 65.6017C121.613 64.7655 122.753 64.2951 123.942 64.2938H182.338C183.528 64.2951 184.668 64.7655 185.509 65.6017C186.35 66.4379 186.823 67.5716 186.824 68.7542V121.768C186.823 122.95 186.35 124.084 185.509 124.92C184.668 125.757 183.528 126.227 182.338 126.228Z" fill="#536DFE"/>
<path d="M141.148 93.8459C145.168 93.8459 148.427 90.6052 148.427 86.6076C148.427 82.6101 145.168 79.3694 141.148 79.3694C137.128 79.3694 133.869 82.6101 133.869 86.6076C133.869 90.6052 137.128 93.8459 141.148 93.8459Z" fill="white"/>
<path d="M170.244 102.636H136.036C135.461 102.636 134.91 102.409 134.504 102.004C134.097 101.6 133.869 101.052 133.869 100.48C133.869 99.9086 134.097 99.3604 134.504 98.9561C134.91 98.5519 135.461 98.3248 136.036 98.3248H170.244C170.819 98.3248 171.37 98.5519 171.777 98.9561C172.183 99.3604 172.412 99.9086 172.412 100.48C172.412 101.052 172.183 101.6 171.777 102.004C171.37 102.409 170.819 102.636 170.244 102.636Z" fill="white"/>
<path d="M152.543 111.153H136.036C135.461 111.153 134.91 110.926 134.504 110.521C134.097 110.117 133.869 109.569 133.869 108.997C133.869 108.426 134.097 107.877 134.504 107.473C134.91 107.069 135.461 106.842 136.036 106.842H152.543C153.118 106.842 153.67 107.069 154.076 107.473C154.483 107.877 154.711 108.426 154.711 108.997C154.711 109.569 154.483 110.117 154.076 110.521C153.67 110.926 153.118 111.153 152.543 111.153Z" fill="white"/>
<path d="M125.147 75.7324C131.597 75.7324 136.825 70.5332 136.825 64.1197C136.825 57.7062 131.597 52.507 125.147 52.507C118.697 52.507 113.469 57.7062 113.469 64.1197C113.469 70.5332 118.697 75.7324 125.147 75.7324Z" fill="#FF6584"/>
<path d="M157.193 307.342C157.193 307.428 157.177 307.514 157.143 307.594C157.11 307.674 157.061 307.747 157 307.808C156.938 307.869 156.865 307.917 156.785 307.95C156.705 307.983 156.618 308 156.531 308H0.661762C0.486252 308 0.317928 307.931 0.193824 307.807C0.0697201 307.684 0 307.516 0 307.342C0 307.167 0.0697201 307 0.193824 306.877C0.317928 306.753 0.486252 306.684 0.661762 306.684H156.531C156.618 306.684 156.705 306.7 156.785 306.733C156.865 306.766 156.938 306.815 157 306.876C157.061 306.937 157.11 307.01 157.143 307.09C157.177 307.17 157.193 307.255 157.193 307.342Z" fill="#CCCCCC"/>
<path d="M122.651 94.8793C123.131 96.2141 123.064 97.683 122.465 98.9694C121.866 100.256 120.783 101.256 119.448 101.756C119.153 101.865 118.849 101.949 118.539 102.005L115.455 120.784L108.22 114.141L112.258 97.3268C112.108 95.9099 112.526 94.4915 113.419 93.3781C114.313 92.2647 115.612 91.5459 117.034 91.377C118.231 91.2406 119.439 91.513 120.46 92.1494C121.48 92.7858 122.253 93.7485 122.651 94.8793L122.651 94.8793Z" fill="#FFB6B6"/>
<path d="M69.2571 137.431C69.2571 137.431 74.8723 130.053 95.2486 130.255L106.814 126.076L109.458 101.983L118.709 104.173L117.387 133.962L97.5631 145.351L71.5715 150.608L69.2571 137.431Z" fill="#3F3D56"/>
<path d="M66.2735 122.061C72.9527 122.061 78.3673 116.677 78.3673 110.035C78.3673 103.393 72.9527 98.0088 66.2735 98.0088C59.5943 98.0088 54.1797 103.393 54.1797 110.035C54.1797 116.677 59.5943 122.061 66.2735 122.061Z" fill="#FFB6B6"/>
<path d="M45.8045 201.22C45.7831 201.22 45.7617 201.217 45.741 201.211C45.5178 201.149 45.3414 201.1 46.1472 194.172L47.0168 188.695L46.1678 183.86L44.7397 182.44L47.0349 180.157L48.9609 174.717L45.6283 169.806L41.8049 149.724C41.1475 146.259 41.6583 142.674 43.258 139.527C44.8577 136.38 47.457 133.846 50.6528 132.317L55.0781 131.031L56.6882 128.095C57.1404 127.27 57.8061 126.581 58.6164 126.099C59.4267 125.616 60.352 125.358 61.2965 125.351L69.4003 125.291C70.2179 125.284 71.0258 125.467 71.7607 125.823C72.4956 126.18 73.1375 126.701 73.636 127.345L76.4632 131L88.1873 134.96L86.2434 176.612C86.5522 176.869 86.804 177.187 86.9828 177.545C87.1617 177.904 87.2637 178.296 87.2825 178.696C87.3013 179.096 87.2364 179.495 87.0919 179.869C86.9474 180.243 86.7265 180.583 86.4431 180.867C86.3212 180.989 86.2243 181.089 86.1646 181.155C85.967 181.434 86.3378 183.518 86.7958 185.288L87.383 187.999C87.1946 188.133 87.0361 188.304 86.9176 188.502C86.7991 188.7 86.7231 188.92 86.6945 189.149C86.6659 189.377 86.6852 189.609 86.7513 189.83C86.8174 190.051 86.9288 190.255 87.0784 190.431L87.8272 191.311C87.9752 192.413 87.6774 193.53 86.999 194.414C86.3206 195.299 85.3171 195.88 84.2084 196.03C73.4937 197.48 45.8605 201.22 45.8045 201.22Z" fill="#3F3D56"/>
<path d="M63.1797 121.472C63.128 121.359 63.0765 121.245 63.0251 121.131C63.0449 121.132 63.0646 121.135 63.0844 121.135L63.1797 121.472Z" fill="#2F2E41"/>
<path d="M53.8435 98.5557C54.4177 98.017 55.1641 97.6961 55.9521 97.6491C56.7342 97.6742 57.5272 98.3766 57.3652 99.1378C58.8016 96.6087 61.088 94.6635 63.823 93.6437C66.558 92.6239 69.5669 92.5946 72.3214 93.561C74.2651 94.2429 76.1712 95.6071 76.6177 97.608C76.6612 98.1333 76.8187 98.643 77.0794 99.1019C77.3054 99.3473 77.5986 99.5215 77.9229 99.6032C78.2473 99.6849 78.5885 99.6705 78.9047 99.5618L78.9239 99.5562C79.0321 99.5194 79.1489 99.5158 79.2593 99.5458C79.3696 99.5758 79.4683 99.638 79.5426 99.7244C79.617 99.8108 79.6636 99.9174 79.6764 100.03C79.6892 100.143 79.6675 100.258 79.6143 100.358L79.0644 101.378C79.7576 101.532 80.478 101.517 81.1641 101.334C81.278 101.304 81.3984 101.31 81.5088 101.351C81.6192 101.392 81.7141 101.466 81.7805 101.563C81.8469 101.66 81.8816 101.775 81.8797 101.892C81.8779 102.009 81.8397 102.123 81.7703 102.217C80.8564 103.461 79.6631 104.475 78.2856 105.179C76.9081 105.883 75.3843 106.258 73.8355 106.273C71.6381 106.26 69.4181 105.507 67.2796 106.009C66.4522 106.204 65.6792 106.58 65.0171 107.11C64.355 107.64 63.8207 108.311 63.4534 109.073C63.0861 109.836 62.8951 110.67 62.8943 111.516C62.8936 112.361 63.0833 113.196 63.4493 113.959C62.7924 113.244 61.5224 113.413 60.8503 114.114C60.5409 114.489 60.3121 114.923 60.1782 115.39C60.0444 115.856 60.0082 116.345 60.0721 116.826C60.2513 118.299 60.6911 119.729 61.3713 121.05C58.7728 120.971 56.2614 120.1 54.1764 118.556C52.0914 117.012 50.5333 114.868 49.7124 112.415C48.8915 109.963 48.8475 107.318 49.5863 104.84C50.3251 102.361 51.8111 100.168 53.8435 98.5557L53.8435 98.5557Z" fill="#2F2E41"/>
<path d="M50.5161 218.467C49.3598 217.638 48.5776 216.39 48.3381 214.993C48.0986 213.595 48.421 212.16 49.2358 210.997C49.4165 210.74 49.6197 210.5 49.843 210.279L41.6821 193.069L51.4288 194.465L57.6843 210.594C58.6149 211.677 59.0795 213.081 58.9775 214.502C58.8755 215.923 58.2153 217.247 57.1394 218.188C56.2311 218.975 55.0806 219.431 53.877 219.482C52.6734 219.533 51.4882 219.175 50.5161 218.467H50.5161Z" fill="#FFB6B6"/>
<path d="M48.0446 209.07L35.0585 180.048L34.9285 157.125L39.022 144.744C39.5773 143.064 40.4657 141.512 41.6346 140.179C42.8035 138.847 44.2291 137.761 45.8273 136.985C47.4255 136.21 49.1637 135.761 50.9394 135.665C52.715 135.569 54.4919 135.828 56.1651 136.427L56.2553 136.459L56.2931 136.547C56.4444 136.898 59.8777 145.343 49.6938 162.715L47.6442 174.602L54.8358 201.85L48.0446 209.07Z" fill="#3F3D56"/>
</g>
<defs>
<clipPath id="clip0_32_75">
<rect width="499" height="308" fill="white"/>
</clipPath>
</defs>
</svg>
