<svg width="55" height="56" viewBox="0 0 55 56" fill="none" xmlns="http://www.w3.org/2000/svg">
<rect y="0.5" width="55" height="55" rx="10" fill="#2B65B1"/>
<path d="M40.5758 20.5C39.6133 20.9375 38.5758 21.225 37.5008 21.3625C38.6008 20.7 39.4508 19.65 39.8508 18.3875C38.8133 19.0125 37.6633 19.45 36.4508 19.7C35.4633 18.625 34.0758 18 32.5008 18C29.5633 18 27.1633 20.4 27.1633 23.3625C27.1633 23.7875 27.2133 24.2 27.3008 24.5875C22.8508 24.3625 18.8883 22.225 16.2508 18.9875C15.7883 19.775 15.5258 20.7 15.5258 21.675C15.5258 23.5375 16.4633 25.1875 17.9133 26.125C17.0258 26.125 16.2008 25.875 15.4758 25.5V25.5375C15.4758 28.1375 17.3258 30.3125 19.7758 30.8C18.9892 31.0153 18.1634 31.0452 17.3633 30.8875C17.7028 31.9531 18.3677 32.8855 19.2646 33.5537C20.1614 34.2218 21.2451 34.5921 22.3633 34.6125C20.4678 36.113 18.1183 36.9241 15.7008 36.9125C15.2758 36.9125 14.8508 36.8875 14.4258 36.8375C16.8008 38.3625 19.6258 39.25 22.6508 39.25C32.5008 39.25 37.9133 31.075 37.9133 23.9875C37.9133 23.75 37.9133 23.525 37.9008 23.2875C38.9508 22.5375 39.8508 21.5875 40.5758 20.5Z" fill="white"/>
</svg>
