<svg width="26" height="18" viewBox="0 0 26 18" fill="none" xmlns="http://www.w3.org/2000/svg">
<g clip-path="url(#clip0_303_6)">
<path d="M0 0H26V17.3335H0V0Z" fill="black"/>
<path d="M0 2.48145H26V4.96302H0V2.48145ZM0 12.4078H26V14.8893H0V12.4078Z" fill="#FFDA44"/>
<path d="M0 0H26V2.48158H0V0Z" fill="#057F44"/>
<path d="M0 4.96289H26V7.44447H0V4.96289ZM0 9.9261H26V12.4077H0V9.9261Z" fill="#D80027"/>
<path d="M0 14.8896H26V17.3336H0V14.8896Z" fill="#057F44"/>
<path d="M14.066 8.66648L5.39952 17.333H0V0H5.39952L14.066 8.66648Z" fill="white"/>
<path d="M12.9996 8.66663L4.33301 17.3333H5.39875L14.0654 8.66663L5.39875 0H4.33301L12.9996 8.66663Z" fill="black"/>
<path d="M5.20327 5.95312L5.87658 8.02561H8.05596L6.29294 9.30662L6.9663 11.3792L5.20327 10.0983L3.44015 11.3792L4.11361 9.30662L2.35059 8.02561H4.52986L5.20327 5.95312Z" fill="#D80027"/>
<path d="M7.05508 8.83566L5.30013 8.21395C5.30013 8.21395 5.17048 6.99748 5.16261 6.9563C5.10305 6.64247 4.8273 6.40527 4.49621 6.40527C4.12165 6.40527 3.81793 6.70894 3.81793 7.08356C3.81793 7.14566 3.82696 7.20553 3.84261 7.26271L3.35059 7.75809H4.2255C4.2255 8.66616 3.54787 8.66616 3.54787 9.57052L3.92375 10.4749H6.18464L6.56153 9.57052H6.56133C6.59812 9.48607 6.62177 9.39649 6.63146 9.30488C6.95631 9.17341 7.05508 8.83566 7.05508 8.83566V8.83566Z" fill="#FFDA44"/>
</g>
<defs>
<clipPath id="clip0_303_6">
<rect width="26" height="17.3333" fill="white"/>
</clipPath>
</defs>
</svg>
